<?xml version="1.0" encoding="UTF-8" standalone="no"?>
<svg
   xmlns:dc="http://purl.org/dc/elements/1.1/"
   xmlns:cc="http://creativecommons.org/ns#"
   xmlns:rdf="http://www.w3.org/1999/02/22-rdf-syntax-ns#"
   xmlns:svg="http://www.w3.org/2000/svg"
   xmlns="http://www.w3.org/2000/svg"
   xmlns:sodipodi="http://sodipodi.sourceforge.net/DTD/sodipodi-0.dtd"
   xmlns:inkscape="http://www.inkscape.org/namespaces/inkscape"
   width="300"
   height="380"
   viewBox="0 0 79.375 100.542"
   version="1.1"
   id="svg52"
   sodipodi:docname="TwelveKey.svg"
   inkscape:version="0.92.3 (2405546, 2018-03-11)">
  <metadata
     id="metadata58">
    <rdf:RDF>
      <cc:Work
         rdf:about="">
        <dc:format>image/svg+xml</dc:format>
        <dc:type
           rdf:resource="http://purl.org/dc/dcmitype/StillImage" />
      </cc:Work>
    </rdf:RDF>
  </metadata>
  <defs
     id="defs56" />
  <sodipodi:namedview
     pagecolor="#ffffff"
     bordercolor="#666666"
     borderopacity="1"
     objecttolerance="10"
     gridtolerance="10"
     guidetolerance="10"
     inkscape:pageopacity="0"
     inkscape:pageshadow="2"
     inkscape:window-width="1920"
     inkscape:window-height="1017"
     id="namedview54"
     showgrid="false"
     showguides="true"
     inkscape:guide-bbox="true"
     inkscape:zoom="4.4737287"
     inkscape:cx="159.43838"
     inkscape:cy="115.82055"
     inkscape:window-x="-8"
     inkscape:window-y="-8"
     inkscape:window-maximized="1"
     inkscape:current-layer="svg52">
    <sodipodi:guide
       position="11.1125,67.185045"
       orientation="1,0"
       id="guide892"
       inkscape:locked="false"
       inkscape:label=""
       inkscape:color="rgb(0,0,255)" />
    <sodipodi:guide
       position="50.270833,46.485427"
       orientation="1,0"
       id="guide894"
       inkscape:locked="false"
       inkscape:label=""
       inkscape:color="rgb(0,0,255)" />
    <sodipodi:guide
       position="29.104167,35.780768"
       orientation="1,0"
       id="guide911"
       inkscape:locked="false"
       inkscape:label=""
       inkscape:color="rgb(0,0,255)" />
    <sodipodi:guide
       position="68.2625,37.495879"
       orientation="1,0"
       id="guide958"
       inkscape:locked="false"
       inkscape:label=""
       inkscape:color="rgb(0,0,255)" />
    <sodipodi:guide
       position="19.98985,44.415465"
       orientation="0,1"
       id="guide1013"
       inkscape:locked="false" />
  </sodipodi:namedview>
  <path
     style="fill:#dcdcdc"
     inkscape:connector-curvature="0"
     id="path2"
     d="M 0,0 H 79.375 V 100.541 H 0 Z m 0,0" />
  <rect
     style="fill:#999999;paint-order:stroke markers fill"
     id="rect4"
     rx="2.3399999"
     ry="2.3399999"
     y="53.187996"
     x="60.926003"
     height="39.763"
     width="14.513" />
  <g
     id="g8"
     style="line-height:1.25"
     transform="translate(-26.543,-161.307)">
    <path
       inkscape:connector-curvature="0"
       id="path6"
       word-spacing="0"
       letter-spacing="0"
       font-weight="400"
       aria-label="♫"
       font-size="3.528"
       style="font-weight:400;font-size:3.52800012px;font-family:Arial;-inkscape-font-specification:'Arial, Normal';font-variant-ligatures:normal;font-variant-caps:normal;font-variant-numeric:normal;font-feature-settings:normal;text-align:start;letter-spacing:0;word-spacing:0;fill:#333333"
       d="m 74.693,258.177 -1.63,0.115 v -2.06 q 0,-0.23 0.065,-0.333 0.064,-0.104 0.22,-0.147 0.153,-0.043 0.348,-0.002 0.223,0.047 0.356,0.19 0.133,0.146 0.133,0.33 0,0.186 -0.157,0.286 -0.158,0.103 -0.408,0.05 -0.082,-0.018 -0.143,-0.044 -0.064,-0.027 -0.205,-0.11 v 1.345 l 1.219,-0.085 v -1.554 q 0,-0.225 0.065,-0.337 0.066,-0.11 0.226,-0.151 0.16,-0.04 0.348,0 0.223,0.047 0.354,0.19 0.13,0.14 0.13,0.325 0,0.195 -0.156,0.294 -0.156,0.1 -0.408,0.047 -0.16,-0.034 -0.357,-0.16 z" />
  </g>
  <g
     id="g12"
     style="line-height:1.25"
     transform="translate(-26.543,-161.307)">
    <path
       inkscape:connector-curvature="0"
       id="path10"
       word-spacing="0"
       letter-spacing="0"
       font-size="3.528"
       font-weight="400"
       aria-label="IMPROMPT"
       d="m 56.675,258.005 q -0.007,-0.127 -0.01,-0.265 0,-0.137 -0.004,-0.296 -0.003,-0.159 -0.003,-0.342 v -0.417 q 0,-0.25 0.003,-0.426 0.004,-0.18 0.021,-0.293 0.018,-0.113 0.053,-0.166 0.039,-0.053 0.102,-0.053 0.032,0 0.06,0.007 0.029,0.007 0.05,0.032 0.02,0.02 0.035,0.067 0.018,0.042 0.021,0.113 0.007,0.127 0.01,0.225 l 0.008,0.198 q 0.003,0.095 0.003,0.201 v 0.536 q 0,0.145 -0.003,0.286 l -0.007,0.286 -0.01,0.303 q -0.004,0.085 -0.018,0.13 -0.015,0.047 -0.036,0.071 -0.02,0.025 -0.05,0.028 -0.027,0.007 -0.063,0.007 -0.063,0 -0.109,-0.042 -0.046,-0.046 -0.053,-0.19 z m 1.754,-0.381 q -0.162,-0.357 -0.29,-0.688 -0.123,-0.335 -0.211,-0.596 -0.081,0.437 -0.138,0.882 -0.053,0.444 -0.137,0.85 -0.021,0.092 -0.078,0.123 -0.056,0.028 -0.095,0.028 -0.064,0 -0.102,-0.038 -0.036,-0.04 -0.036,-0.1 0,-0.08 0.018,-0.246 0.021,-0.17 0.05,-0.381 0.031,-0.212 0.07,-0.445 0.039,-0.232 0.078,-0.448 l 0.077,-0.395 q 0.039,-0.176 0.067,-0.271 0.046,-0.163 0.187,-0.163 0.085,0 0.145,0.085 0.06,0.081 0.127,0.254 0.07,0.17 0.166,0.43 0.098,0.262 0.254,0.614 0.151,-0.352 0.243,-0.61 0.095,-0.261 0.159,-0.43 0.067,-0.173 0.127,-0.254 0.06,-0.085 0.148,-0.085 0.081,0 0.123,0.042 0.043,0.039 0.064,0.12 0.025,0.099 0.06,0.275 0.035,0.173 0.074,0.388 0.042,0.212 0.081,0.445 0.039,0.233 0.07,0.444 0.032,0.212 0.05,0.385 0.021,0.17 0.021,0.261 0,0.056 -0.039,0.092 -0.038,0.031 -0.098,0.031 -0.04,0 -0.096,-0.028 -0.056,-0.032 -0.077,-0.123 -0.043,-0.201 -0.078,-0.417 l -0.063,-0.433 -0.057,-0.441 q -0.028,-0.223 -0.06,-0.441 -0.046,0.14 -0.106,0.31 -0.06,0.17 -0.127,0.342 -0.067,0.17 -0.137,0.335 -0.07,0.166 -0.138,0.3 -0.024,0.046 -0.067,0.07 -0.039,0.022 -0.08,0.022 -0.047,0 -0.09,-0.021 -0.038,-0.025 -0.06,-0.074 z m 2.005,0.377 q 0,0.085 -0.018,0.13 -0.014,0.047 -0.039,0.071 -0.02,0.025 -0.053,0.029 -0.028,0.007 -0.056,0.007 -0.095,0 -0.127,-0.043 -0.028,-0.042 -0.039,-0.19 -0.007,-0.078 -0.01,-0.226 -0.004,-0.148 -0.007,-0.353 0,-0.204 -0.004,-0.451 v -0.522 q 0,-0.131 0.032,-0.265 0.032,-0.134 0.12,-0.243 0.091,-0.11 0.25,-0.177 0.162,-0.067 0.42,-0.067 0.18,0 0.342,0.039 0.162,0.039 0.286,0.134 0.123,0.095 0.198,0.254 0.074,0.159 0.074,0.395 0,0.247 -0.082,0.41 -0.08,0.162 -0.229,0.257 -0.148,0.095 -0.353,0.134 -0.204,0.039 -0.448,0.039 h -0.12 q -0.06,0 -0.134,-0.007 z m 1.016,-1.485 q 0,-0.236 -0.134,-0.356 -0.13,-0.12 -0.438,-0.12 -0.116,0 -0.2,0.021 -0.082,0.018 -0.135,0.067 -0.053,0.046 -0.08,0.127 -0.026,0.081 -0.026,0.205 v 0.275 q 0,0.151 0.004,0.286 0.081,0.004 0.18,0.004 h 0.19 q 0.106,0 0.219,-0.015 0.116,-0.014 0.208,-0.063 0.092,-0.053 0.152,-0.152 0.06,-0.102 0.06,-0.278 z m 1.451,0.84 -0.102,0.007 h -0.223 q -0.06,0 -0.134,-0.007 v 0.716 q 0,0.113 -0.056,0.14 -0.053,0.026 -0.134,0.026 -0.042,0 -0.067,-0.007 -0.025,-0.004 -0.042,-0.018 -0.015,-0.018 -0.025,-0.05 -0.007,-0.031 -0.01,-0.088 -0.008,-0.063 -0.011,-0.183 -0.004,-0.123 -0.007,-0.318 0,-0.194 -0.004,-0.469 v -0.652 q 0,-0.145 0.035,-0.279 0.036,-0.138 0.127,-0.24 0.092,-0.106 0.247,-0.17 0.16,-0.063 0.402,-0.063 0.173,0 0.336,0.039 0.165,0.039 0.292,0.134 0.127,0.095 0.205,0.258 0.078,0.162 0.078,0.405 0,0.325 -0.141,0.505 -0.138,0.176 -0.381,0.25 l 0.472,0.65 q 0.064,0.084 0.064,0.172 0,0.07 -0.05,0.11 -0.046,0.042 -0.116,0.042 -0.078,0 -0.134,-0.042 -0.057,-0.046 -0.106,-0.117 z m 0.554,-0.822 q 0,-0.244 -0.148,-0.36 -0.145,-0.12 -0.462,-0.12 -0.117,0 -0.194,0.021 -0.078,0.018 -0.124,0.07 -0.046,0.054 -0.067,0.149 -0.018,0.091 -0.018,0.236 v 0.24 q 0,0.138 0.004,0.25 0.081,0.005 0.18,0.005 h 0.19 q 0.1,0 0.208,-0.011 0.113,-0.014 0.209,-0.064 0.095,-0.052 0.158,-0.148 0.064,-0.099 0.064,-0.268 z m 1.609,1.725 q -0.212,0 -0.398,-0.085 -0.184,-0.085 -0.322,-0.243 -0.137,-0.163 -0.218,-0.395 -0.078,-0.233 -0.078,-0.53 0,-0.278 0.067,-0.511 0.07,-0.233 0.205,-0.402 0.137,-0.17 0.338,-0.261 0.202,-0.096 0.466,-0.096 0.215,0 0.41,0.078 0.193,0.078 0.338,0.233 0.148,0.155 0.233,0.388 0.085,0.233 0.085,0.543 0,0.258 -0.071,0.49 -0.067,0.233 -0.208,0.41 -0.138,0.173 -0.35,0.278 -0.211,0.103 -0.497,0.103 z m 0.007,-0.332 q 0.194,0 0.339,-0.077 0.145,-0.082 0.24,-0.212 0.095,-0.13 0.14,-0.3 0.047,-0.173 0.047,-0.353 0,-0.218 -0.06,-0.388 -0.057,-0.173 -0.155,-0.29 -0.1,-0.115 -0.23,-0.175 -0.13,-0.064 -0.278,-0.064 -0.177,0 -0.31,0.074 -0.131,0.074 -0.223,0.201 -0.088,0.127 -0.134,0.3 -0.046,0.17 -0.046,0.363 0,0.209 0.053,0.381 0.053,0.17 0.141,0.29 0.092,0.12 0.215,0.187 0.124,0.063 0.261,0.063 z m 2.384,-0.303 q -0.162,-0.357 -0.29,-0.688 -0.123,-0.335 -0.21,-0.596 -0.082,0.437 -0.138,0.882 -0.053,0.444 -0.138,0.85 -0.021,0.092 -0.078,0.123 -0.056,0.028 -0.095,0.028 -0.063,0 -0.102,-0.038 -0.036,-0.04 -0.036,-0.1 0,-0.08 0.018,-0.246 0.021,-0.17 0.05,-0.381 0.031,-0.212 0.07,-0.445 0.039,-0.232 0.078,-0.448 l 0.077,-0.395 q 0.04,-0.176 0.067,-0.271 0.046,-0.163 0.187,-0.163 0.085,0 0.145,0.085 0.06,0.081 0.127,0.254 0.07,0.17 0.166,0.43 0.099,0.262 0.254,0.614 0.151,-0.352 0.243,-0.61 0.095,-0.261 0.159,-0.43 0.067,-0.173 0.127,-0.254 0.06,-0.085 0.148,-0.085 0.081,0 0.124,0.042 0.042,0.039 0.063,0.12 0.025,0.099 0.06,0.275 0.035,0.173 0.074,0.388 0.042,0.212 0.081,0.445 0.039,0.233 0.07,0.444 0.033,0.212 0.05,0.385 0.021,0.17 0.021,0.261 0,0.056 -0.038,0.092 -0.04,0.031 -0.1,0.031 -0.038,0 -0.094,-0.028 -0.057,-0.032 -0.078,-0.123 -0.042,-0.201 -0.078,-0.417 l -0.063,-0.433 -0.057,-0.441 q -0.028,-0.223 -0.06,-0.441 -0.045,0.14 -0.105,0.31 -0.06,0.17 -0.127,0.342 -0.067,0.17 -0.138,0.335 -0.07,0.166 -0.138,0.3 -0.024,0.046 -0.067,0.07 -0.038,0.022 -0.08,0.022 -0.047,0 -0.089,-0.021 -0.039,-0.025 -0.06,-0.074 z m 2.005,0.377 q 0,0.085 -0.018,0.13 -0.014,0.047 -0.038,0.071 -0.022,0.025 -0.053,0.029 -0.029,0.007 -0.057,0.007 -0.095,0 -0.127,-0.043 -0.028,-0.042 -0.039,-0.19 -0.007,-0.078 -0.01,-0.226 -0.004,-0.148 -0.007,-0.353 0,-0.204 -0.004,-0.451 v -0.522 q 0,-0.131 0.032,-0.265 0.032,-0.134 0.12,-0.243 0.092,-0.11 0.25,-0.177 0.163,-0.067 0.42,-0.067 0.18,0 0.342,0.039 0.163,0.039 0.286,0.134 0.124,0.095 0.198,0.254 0.074,0.159 0.074,0.395 0,0.247 -0.081,0.41 -0.082,0.162 -0.23,0.257 -0.148,0.095 -0.352,0.134 -0.205,0.039 -0.449,0.039 h -0.12 q -0.06,0 -0.134,-0.007 z m 1.016,-1.485 q 0,-0.236 -0.134,-0.356 -0.13,-0.12 -0.438,-0.12 -0.116,0 -0.2,0.021 -0.082,0.018 -0.135,0.067 -0.053,0.046 -0.08,0.127 -0.025,0.081 -0.025,0.205 v 0.275 q 0,0.151 0.003,0.286 0.081,0.004 0.18,0.004 h 0.19 q 0.106,0 0.22,-0.015 0.116,-0.014 0.207,-0.063 0.092,-0.053 0.152,-0.152 0.06,-0.102 0.06,-0.278 z m 1.974,-0.437 q -0.099,0.007 -0.212,0.01 l -0.243,0.007 0.007,0.18 0.007,0.166 q 0.004,0.085 0.004,0.176 0.003,0.092 0.003,0.205 v 0.307 q 0,0.144 -0.003,0.293 l -0.007,0.292 q -0.004,0.149 -0.011,0.307 -0.003,0.085 -0.018,0.13 -0.01,0.047 -0.031,0.072 -0.022,0.024 -0.05,0.028 -0.028,0.007 -0.063,0.007 -0.064,0 -0.11,-0.043 -0.042,-0.045 -0.049,-0.19 -0.007,-0.127 -0.01,-0.268 0,-0.141 -0.004,-0.304 -0.004,-0.162 -0.004,-0.349 v -0.758 q 0.004,-0.145 0.011,-0.25 h -0.145 q -0.148,0 -0.254,-0.005 -0.102,-0.004 -0.169,-0.017 -0.067,-0.018 -0.099,-0.053 -0.028,-0.036 -0.028,-0.1 0,-0.03 0.007,-0.055 0.007,-0.029 0.032,-0.05 0.025,-0.025 0.067,-0.039 0.046,-0.014 0.116,-0.02 l 0.12,-0.008 0.106,-0.007 q 0.053,-0.004 0.11,-0.004 h 0.13 q 0.208,0 0.392,0.004 0.186,0.004 0.395,0.014 0.084,0.007 0.13,0.021 0.046,0.011 0.07,0.032 0.025,0.021 0.029,0.05 0.007,0.028 0.007,0.063 0,0.064 -0.046,0.106 -0.042,0.042 -0.187,0.05 z"
       style="font-weight:400;font-size:3.52800012px;font-family:Sniglet;-inkscape-font-specification:'Sniglet, Normal';font-variant-ligatures:normal;font-variant-caps:normal;font-variant-numeric:normal;font-feature-settings:normal;text-align:start;letter-spacing:0;word-spacing:0;fill:#333333" />
  </g>
  <path
     inkscape:connector-curvature="0"
     id="path14"
     word-spacing="0"
     letter-spacing="0"
     font-size="2.822"
     font-weight="400"
     style="font-weight:400;font-size:2.82200003px;line-height:1.25;font-family:Sniglet;-inkscape-font-specification:'Sniglet, Normal';font-variant-ligatures:normal;font-variant-caps:normal;font-variant-numeric:normal;font-feature-settings:normal;text-align:start;letter-spacing:0;word-spacing:0"
     d="m 66.124426,68.061 q 0.094,0 0.192,0.017 0.1,0.017 0.181,0.05 0.082,0.032 0.135,0.08 0.054,0.048 0.054,0.11 0,0.064 -0.034,0.098 -0.034,0.034 -0.085,0.034 -0.048,0 -0.09,-0.017 l -0.09,-0.036 q -0.051,-0.02 -0.122,-0.037 -0.07,-0.017 -0.177,-0.017 -0.119,0 -0.223,0.057 -0.102,0.053 -0.18,0.152 -0.08,0.096 -0.125,0.229 -0.045,0.132 -0.045,0.287 0,0.19 0.048,0.328 0.048,0.138 0.124,0.228 0.079,0.09 0.175,0.136 0.099,0.042 0.197,0.042 0.161,0 0.254,-0.045 0.096,-0.048 0.153,-0.121 0.003,-0.06 0.003,-0.141 v -0.178 q 0,-0.037 -0.006,-0.057 -0.006,-0.022 -0.028,-0.034 -0.023,-0.01 -0.068,-0.014 -0.042,-0.003 -0.116,-0.003 -0.09,0 -0.147,-0.022 -0.056,-0.026 -0.056,-0.105 0,-0.056 0.028,-0.09 0.031,-0.037 0.124,-0.042 h 0.054 q 0.04,-0.003 0.082,-0.003 h 0.155 q 0.085,0 0.136,0.017 0.05,0.014 0.09,0.067 0.02,0.028 0.022,0.1 0.006,0.07 0.006,0.163 v 0.728 q 0,0.076 -0.042,0.113 -0.04,0.036 -0.093,0.036 -0.065,0 -0.107,-0.033 -0.04,-0.031 -0.04,-0.102 v -0.11 q -0.073,0.085 -0.175,0.121 -0.099,0.037 -0.25,0.037 -0.156,0 -0.306,-0.062 -0.15,-0.062 -0.265,-0.184 -0.116,-0.124 -0.19,-0.307 -0.07,-0.186 -0.07,-0.432 0,-0.246 0.07,-0.437 0.074,-0.192 0.198,-0.325 0.125,-0.135 0.291,-0.206 0.167,-0.07 0.359,-0.07 z m 2.114,1.854 q -0.029,-0.068 -0.062,-0.155 -0.031,-0.09 -0.068,-0.19 l -0.178,0.007 h -0.409 q -0.099,0 -0.18,-0.003 l -0.066,0.186 q -0.03,0.087 -0.059,0.155 -0.056,0.144 -0.164,0.144 -0.04,0 -0.076,-0.025 -0.034,-0.026 -0.034,-0.074 0,-0.048 0.017,-0.124 0.017,-0.079 0.042,-0.166 l 0.06,-0.184 q 0.03,-0.096 0.059,-0.178 0.028,-0.09 0.079,-0.228 l 0.113,-0.294 0.118,-0.299 q 0.06,-0.15 0.108,-0.26 0.011,-0.028 0.028,-0.062 0.017,-0.036 0.04,-0.067 0.025,-0.031 0.053,-0.054 0.031,-0.023 0.068,-0.023 0.036,0 0.067,0.026 0.031,0.022 0.054,0.056 0.025,0.034 0.042,0.07 0.02,0.038 0.031,0.066 l 0.102,0.26 q 0.06,0.146 0.116,0.296 0.059,0.15 0.11,0.285 0.05,0.135 0.081,0.228 l 0.057,0.175 q 0.034,0.093 0.062,0.184 0.028,0.09 0.045,0.17 0.02,0.075 0.02,0.123 0,0.048 -0.037,0.074 -0.034,0.025 -0.073,0.025 -0.05,0 -0.093,-0.034 -0.043,-0.036 -0.074,-0.11 z m -0.5,-0.62 0.136,0.002 q 0.067,0 0.135,0.003 l -0.068,-0.197 -0.065,-0.19 -0.053,-0.166 -0.04,-0.138 q -0.011,-0.037 -0.025,-0.06 -0.014,-0.022 -0.037,-0.022 -0.022,0 -0.036,0.025 -0.015,0.023 -0.026,0.06 -0.034,0.115 -0.096,0.301 l -0.127,0.387 q 0.076,-0.003 0.153,-0.003 0.076,-0.003 0.15,-0.003 z m 1.876,-0.952 q -0.08,0.006 -0.17,0.008 l -0.194,0.006 0.006,0.144 0.006,0.133 q 0.003,0.067 0.003,0.14 0.003,0.074 0.003,0.164 v 0.246 q 0,0.116 -0.003,0.234 l -0.006,0.234 -0.008,0.246 q -0.003,0.068 -0.014,0.104 -0.008,0.037 -0.026,0.057 -0.017,0.02 -0.04,0.022 -0.022,0.006 -0.05,0.006 -0.051,0 -0.088,-0.034 -0.034,-0.036 -0.04,-0.152 -0.005,-0.102 -0.007,-0.214 0,-0.113 -0.003,-0.243 -0.003,-0.13 -0.003,-0.28 v -0.606 q 0.003,-0.116 0.008,-0.2 h -0.116 q -0.118,0 -0.203,-0.004 -0.082,-0.003 -0.136,-0.014 -0.053,-0.014 -0.079,-0.042 -0.022,-0.028 -0.022,-0.08 0,-0.024 0.006,-0.044 0.006,-0.023 0.025,-0.04 0.02,-0.02 0.054,-0.03 0.037,-0.012 0.093,-0.018 l 0.096,-0.006 0.085,-0.006 q 0.042,-0.003 0.087,-0.003 h 0.105 q 0.166,0 0.313,0.003 0.15,0.003 0.316,0.012 0.068,0.006 0.104,0.016 0.037,0.008 0.057,0.026 0.02,0.017 0.022,0.04 0.006,0.022 0.006,0.05 0,0.05 -0.036,0.085 -0.034,0.034 -0.15,0.04 z m 0.402,1.287 q -0.006,-0.09 -0.012,-0.246 -0.006,-0.155 -0.006,-0.318 v -0.192 l 0.006,-0.206 q 0.006,-0.21 0.026,-0.328 0.022,-0.118 0.084,-0.178 0.065,-0.059 0.181,-0.073 0.116,-0.014 0.308,-0.014 h 0.059 q 0.06,0 0.141,0.003 0.082,0 0.17,0.003 l 0.149,0.006 q 0.062,0.006 0.099,0.017 0.04,0.008 0.059,0.025 0.02,0.014 0.025,0.037 0.006,0.02 0.006,0.045 0,0.065 -0.036,0.096 -0.037,0.028 -0.15,0.037 -0.056,0.006 -0.166,0.008 h -0.22 q -0.113,0 -0.204,0.003 h -0.113 q -0.073,0.003 -0.104,0.034 -0.028,0.028 -0.028,0.138 l 0.003,0.124 q 0.006,0.096 0.006,0.271 h 0.234 q 0.15,0 0.243,0.006 0.096,0.003 0.146,0.017 0.054,0.014 0.074,0.045 0.02,0.031 0.02,0.082 0,0.025 -0.006,0.048 -0.003,0.02 -0.023,0.037 -0.02,0.014 -0.056,0.025 -0.037,0.008 -0.105,0.014 -0.082,0.006 -0.155,0.008 h -0.378 v 0.344 l 0.006,0.096 q 0.003,0.046 0.011,0.077 0.011,0.03 0.037,0.05 0.028,0.02 0.079,0.029 0.053,0.008 0.141,0.008 h 0.607 q 0.099,0 0.124,0.036 0.025,0.037 0.025,0.1 0,0.05 -0.022,0.078 -0.023,0.026 -0.11,0.037 -0.085,0.014 -0.257,0.017 -0.17,0.003 -0.469,0.003 -0.127,0 -0.208,-0.023 -0.082,-0.022 -0.133,-0.076 -0.05,-0.054 -0.076,-0.138 -0.023,-0.088 -0.031,-0.212 z" />
  <path
     inkscape:connector-curvature="0"
     id="path16"
     word-spacing="0"
     letter-spacing="0"
     font-size="10.667"
     font-weight="400"
     style="font-weight:400;font-size:10.66699982px;line-height:1.25;font-family:Sniglet;-inkscape-font-specification:'Sniglet, Normal';font-variant-ligatures:normal;font-variant-caps:normal;font-variant-numeric:normal;font-feature-settings:normal;text-align:start;letter-spacing:0;word-spacing:0"
     d="m 67.525284,55.209 q 0.093,0 0.186,0.017 0.096,0.014 0.173,0.048 0.076,0.031 0.124,0.079 0.05,0.045 0.05,0.107 0,0.065 -0.033,0.099 -0.034,0.034 -0.085,0.034 -0.048,0 -0.085,-0.014 -0.036,-0.017 -0.084,-0.037 -0.046,-0.02 -0.11,-0.034 -0.065,-0.017 -0.173,-0.017 -0.107,0 -0.206,0.057 -0.096,0.053 -0.169,0.152 -0.07,0.096 -0.113,0.229 -0.042,0.132 -0.042,0.288 0,0.191 0.048,0.33 0.05,0.138 0.13,0.228 0.079,0.088 0.177,0.133 0.102,0.042 0.204,0.042 0.121,0 0.203,-0.025 0.082,-0.025 0.138,-0.056 0.06,-0.031 0.102,-0.057 0.042,-0.025 0.082,-0.025 0.048,0 0.076,0.028 0.028,0.025 0.028,0.093 0,0.056 -0.045,0.116 -0.043,0.056 -0.127,0.104 -0.082,0.045 -0.198,0.076 -0.116,0.029 -0.26,0.029 -0.157,0 -0.316,-0.063 -0.155,-0.062 -0.279,-0.183 -0.121,-0.124 -0.197,-0.308 -0.077,-0.186 -0.077,-0.431 0,-0.246 0.068,-0.438 0.07,-0.192 0.19,-0.324 0.12,-0.136 0.279,-0.206 0.16,-0.071 0.341,-0.071 z m 1.642,1.885 q -0.037,0.068 -0.068,0.1 -0.028,0.03 -0.073,0.03 -0.046,0 -0.08,-0.03 -0.033,-0.032 -0.073,-0.097 -0.05,-0.085 -0.116,-0.234 -0.062,-0.15 -0.127,-0.325 -0.064,-0.177 -0.127,-0.367 -0.062,-0.189 -0.112,-0.355 -0.048,-0.167 -0.08,-0.29 -0.028,-0.128 -0.028,-0.181 0,-0.057 0.023,-0.085 0.023,-0.028 0.087,-0.028 0.037,0 0.063,0.02 0.028,0.016 0.07,0.101 0.034,0.065 0.073,0.17 0.04,0.104 0.082,0.23 0.045,0.128 0.09,0.269 l 0.09,0.276 q 0.046,0.139 0.086,0.266 l 0.073,0.228 0.076,-0.231 0.088,-0.265 0.09,-0.277 q 0.045,-0.141 0.09,-0.265 l 0.085,-0.229 q 0.04,-0.104 0.07,-0.172 0.04,-0.082 0.068,-0.102 0.031,-0.02 0.062,-0.02 0.065,0 0.088,0.035 0.025,0.03 0.025,0.093 0,0.056 -0.017,0.135 -0.016,0.08 -0.059,0.212 -0.04,0.13 -0.107,0.324 l -0.167,0.477 q -0.025,0.076 -0.059,0.158 -0.03,0.082 -0.065,0.161 -0.03,0.076 -0.062,0.147 -0.031,0.07 -0.06,0.121 z" />
  <rect
     style="fill:#999999;stroke-width:0.99999994;paint-order:stroke markers fill"
     id="rect4-1"
     rx="2.3400002"
     ry="2.3399999"
     y="78.914665"
     x="43.42004"
     height="14.036332"
     width="13.803296" />
  <g
     id="g20"
     style="line-height:1.25"
     transform="translate(-44.298144,-161.307)">
    <path
       inkscape:connector-curvature="0"
       id="path18"
       word-spacing="0"
       letter-spacing="0"
       font-size="2.822"
       font-weight="400"
       aria-label="OCT +1"
       style="font-weight:400;font-size:2.82200003px;font-family:Sniglet;-inkscape-font-specification:'Sniglet, Normal';font-variant-ligatures:normal;font-variant-caps:normal;font-variant-numeric:normal;font-feature-settings:normal;text-align:start;letter-spacing:0;word-spacing:0"
       d="m 91.556,244.333 q -0.17,0 -0.319,-0.068 -0.147,-0.068 -0.257,-0.195 -0.11,-0.13 -0.175,-0.316 -0.062,-0.186 -0.062,-0.423 0,-0.223 0.054,-0.41 0.056,-0.186 0.164,-0.321 0.11,-0.136 0.27,-0.209 0.161,-0.076 0.373,-0.076 0.172,0 0.327,0.062 0.156,0.062 0.271,0.186 0.119,0.124 0.187,0.31 0.067,0.187 0.067,0.435 0,0.206 -0.056,0.393 -0.054,0.186 -0.167,0.327 -0.11,0.138 -0.279,0.223 -0.17,0.082 -0.398,0.082 z m 0.006,-0.266 q 0.155,0 0.271,-0.062 0.116,-0.065 0.192,-0.17 0.076,-0.103 0.113,-0.239 0.037,-0.138 0.037,-0.282 0,-0.175 -0.048,-0.31 -0.046,-0.139 -0.125,-0.232 -0.079,-0.093 -0.183,-0.141 -0.104,-0.051 -0.223,-0.051 -0.141,0 -0.248,0.06 -0.105,0.059 -0.178,0.16 -0.07,0.102 -0.107,0.24 -0.037,0.136 -0.037,0.29 0,0.167 0.042,0.306 0.042,0.135 0.113,0.231 0.073,0.096 0.172,0.15 0.099,0.05 0.21,0.05 z m 1.999,-1.761 q 0.093,0 0.187,0.017 0.096,0.014 0.172,0.048 0.076,0.031 0.124,0.08 0.05,0.044 0.05,0.106 0,0.065 -0.033,0.1 -0.034,0.033 -0.085,0.033 -0.048,0 -0.085,-0.014 -0.036,-0.017 -0.084,-0.037 -0.045,-0.02 -0.11,-0.034 -0.065,-0.016 -0.173,-0.016 -0.107,0 -0.206,0.056 -0.096,0.054 -0.169,0.152 -0.07,0.096 -0.113,0.229 -0.042,0.133 -0.042,0.288 0,0.192 0.048,0.33 0.05,0.138 0.13,0.229 0.079,0.087 0.178,0.132 0.101,0.043 0.203,0.043 0.121,0 0.203,-0.026 0.082,-0.025 0.138,-0.056 0.06,-0.031 0.102,-0.057 0.042,-0.025 0.082,-0.025 0.048,0 0.076,0.028 0.028,0.025 0.028,0.093 0,0.057 -0.045,0.116 -0.042,0.056 -0.127,0.104 -0.082,0.046 -0.198,0.077 -0.115,0.028 -0.26,0.028 -0.157,0 -0.315,-0.062 -0.156,-0.062 -0.28,-0.184 -0.121,-0.124 -0.197,-0.307 -0.076,-0.187 -0.076,-0.432 0,-0.246 0.067,-0.438 0.07,-0.192 0.19,-0.324 0.12,-0.136 0.279,-0.206 0.16,-0.07 0.341,-0.07 z m 1.914,0.283 q -0.079,0.006 -0.17,0.008 l -0.194,0.006 0.006,0.143 0.006,0.133 q 0.003,0.068 0.003,0.141 0.003,0.074 0.003,0.164 v 0.245 q 0,0.116 -0.003,0.235 l -0.006,0.234 -0.008,0.245 q -0.003,0.068 -0.014,0.105 -0.008,0.037 -0.026,0.056 -0.016,0.02 -0.04,0.023 -0.022,0.006 -0.05,0.006 -0.05,0 -0.087,-0.034 -0.034,-0.037 -0.04,-0.152 -0.006,-0.102 -0.008,-0.215 0,-0.113 -0.003,-0.243 -0.003,-0.13 -0.003,-0.279 v -0.606 q 0.003,-0.117 0.008,-0.201 h -0.116 q -0.118,0 -0.203,-0.003 -0.082,-0.003 -0.135,-0.014 -0.054,-0.014 -0.08,-0.043 -0.022,-0.028 -0.022,-0.079 0,-0.025 0.006,-0.045 0.006,-0.022 0.026,-0.04 0.02,-0.02 0.053,-0.03 0.037,-0.012 0.093,-0.017 l 0.096,-0.006 0.085,-0.006 q 0.042,-0.003 0.087,-0.003 h 0.105 q 0.166,0 0.313,0.003 0.15,0.003 0.316,0.011 0.068,0.006 0.105,0.017 0.036,0.008 0.056,0.025 0.02,0.017 0.023,0.04 0.006,0.022 0.006,0.05 0,0.051 -0.037,0.085 -0.034,0.034 -0.15,0.04 z m 1.941,0.857 q -0.064,0.006 -0.138,0.008 -0.07,0 -0.155,0.003 v 0.127 q 0,0.096 -0.003,0.164 -0.003,0.068 -0.017,0.11 -0.011,0.043 -0.04,0.062 -0.028,0.02 -0.078,0.02 -0.026,0 -0.048,-0.006 -0.02,-0.006 -0.037,-0.025 -0.017,-0.02 -0.031,-0.054 -0.012,-0.037 -0.017,-0.093 l -0.006,-0.073 -0.006,-0.068 v -0.16 q -0.144,0 -0.237,-0.004 -0.09,-0.003 -0.147,-0.014 -0.054,-0.014 -0.076,-0.042 -0.02,-0.028 -0.02,-0.08 0,-0.025 0.006,-0.044 0.006,-0.023 0.025,-0.04 0.02,-0.017 0.054,-0.028 0.037,-0.014 0.093,-0.02 l 0.073,-0.006 q 0.034,-0.003 0.068,-0.003 0.034,-0.003 0.07,-0.003 h 0.091 q 0.003,-0.073 0.003,-0.144 l 0.008,-0.147 q 0.003,-0.067 0.014,-0.104 0.011,-0.037 0.028,-0.056 0.017,-0.02 0.04,-0.023 0.022,-0.006 0.05,-0.006 0.051,0 0.085,0.037 0.034,0.034 0.04,0.15 l 0.006,0.137 0.006,0.159 q 0.141,0 0.293,0.008 0.068,0.006 0.105,0.016 0.037,0.008 0.056,0.026 0.02,0.017 0.023,0.04 0.006,0.022 0.006,0.05 0,0.05 -0.037,0.085 -0.034,0.034 -0.15,0.04 z m 0.762,0.684 q -0.006,-0.102 -0.008,-0.212 0,-0.11 -0.003,-0.237 -0.003,-0.127 -0.003,-0.274 v -0.686 l -0.169,0.088 q -0.07,0.045 -0.113,0.053 -0.04,0.008 -0.087,0.008 -0.043,0 -0.077,-0.036 -0.03,-0.037 -0.03,-0.088 0,-0.05 0.033,-0.087 0.037,-0.04 0.085,-0.071 0.062,-0.042 0.133,-0.085 0.073,-0.042 0.14,-0.076 0.068,-0.037 0.125,-0.056 0.06,-0.023 0.099,-0.023 0.02,0 0.04,0.006 0.022,0.006 0.039,0.023 0.02,0.017 0.03,0.053 0.015,0.034 0.018,0.093 0.006,0.102 0.008,0.178 l 0.006,0.15 q 0.003,0.07 0.003,0.15 v 0.425 q 0,0.116 -0.003,0.23 l -0.006,0.228 -0.008,0.242 q -0.003,0.068 -0.015,0.105 -0.008,0.037 -0.025,0.056 -0.017,0.02 -0.04,0.023 -0.02,0.006 -0.047,0.006 -0.051,0 -0.085,-0.034 -0.034,-0.037 -0.04,-0.152 z" />
  </g>
  <g
     id="g24"
     style="line-height:1.25"
     transform="translate(-26.543,-165.92898)">
    <path
       inkscape:connector-curvature="0"
       id="path22"
       word-spacing="0"
       letter-spacing="0"
       font-size="2.822"
       font-weight="400"
       aria-label="OCTAVE"
       style="font-weight:400;font-size:2.82200003px;font-family:Sniglet;-inkscape-font-specification:'Sniglet, Normal';font-variant-ligatures:normal;font-variant-caps:normal;font-variant-numeric:normal;font-feature-settings:normal;text-align:start;letter-spacing:0;word-spacing:0"
       d="m 62.231,223.126 q -0.17,0 -0.319,-0.068 -0.146,-0.068 -0.257,-0.195 -0.11,-0.13 -0.174,-0.316 -0.063,-0.186 -0.063,-0.423 0,-0.223 0.054,-0.41 0.056,-0.186 0.164,-0.321 0.11,-0.136 0.27,-0.209 0.162,-0.076 0.373,-0.076 0.172,0 0.328,0.062 0.155,0.062 0.27,0.186 0.119,0.124 0.187,0.31 0.068,0.187 0.068,0.435 0,0.206 -0.057,0.393 -0.054,0.186 -0.166,0.327 -0.11,0.138 -0.28,0.223 -0.17,0.082 -0.398,0.082 z m 0.006,-0.266 q 0.155,0 0.27,-0.062 0.116,-0.065 0.193,-0.17 0.076,-0.104 0.113,-0.239 0.036,-0.138 0.036,-0.282 0,-0.175 -0.048,-0.31 -0.045,-0.139 -0.124,-0.232 -0.079,-0.093 -0.183,-0.141 -0.105,-0.051 -0.223,-0.051 -0.141,0 -0.249,0.06 -0.104,0.059 -0.177,0.16 -0.071,0.102 -0.108,0.24 -0.036,0.136 -0.036,0.29 0,0.167 0.042,0.306 0.042,0.135 0.113,0.231 0.073,0.096 0.172,0.15 0.099,0.05 0.209,0.05 z m 1.999,-1.76 q 0.094,0 0.187,0.016 0.096,0.014 0.172,0.048 0.076,0.031 0.124,0.08 0.05,0.044 0.05,0.106 0,0.065 -0.033,0.1 -0.034,0.033 -0.085,0.033 -0.048,0 -0.084,-0.014 l -0.085,-0.037 q -0.045,-0.02 -0.11,-0.034 -0.065,-0.016 -0.172,-0.016 -0.108,0 -0.206,0.056 -0.096,0.054 -0.17,0.152 -0.07,0.096 -0.113,0.229 -0.042,0.133 -0.042,0.288 0,0.192 0.048,0.33 0.05,0.138 0.13,0.229 0.079,0.087 0.178,0.132 0.101,0.043 0.203,0.043 0.121,0 0.203,-0.026 0.082,-0.025 0.138,-0.056 0.06,-0.031 0.102,-0.057 0.042,-0.025 0.082,-0.025 0.048,0 0.076,0.028 0.028,0.026 0.028,0.093 0,0.057 -0.045,0.116 -0.042,0.056 -0.127,0.104 -0.082,0.046 -0.197,0.077 -0.116,0.028 -0.26,0.028 -0.158,0 -0.316,-0.062 -0.155,-0.062 -0.28,-0.184 -0.12,-0.124 -0.197,-0.307 -0.076,-0.187 -0.076,-0.432 0,-0.246 0.067,-0.438 0.071,-0.191 0.19,-0.324 0.12,-0.136 0.279,-0.206 0.16,-0.07 0.341,-0.07 z m 1.914,0.281 q -0.079,0.006 -0.17,0.008 l -0.194,0.006 0.006,0.144 0.005,0.133 q 0.003,0.068 0.003,0.141 0.003,0.074 0.003,0.164 v 0.245 q 0,0.116 -0.003,0.235 l -0.006,0.234 q -0.002,0.118 -0.008,0.245 -0.003,0.068 -0.014,0.105 -0.009,0.037 -0.026,0.056 -0.017,0.02 -0.04,0.023 -0.022,0.006 -0.05,0.006 -0.05,0 -0.087,-0.034 -0.034,-0.037 -0.04,-0.152 -0.005,-0.102 -0.008,-0.215 0,-0.113 -0.003,-0.243 -0.003,-0.13 -0.003,-0.279 v -0.606 q 0.003,-0.117 0.009,-0.201 h -0.116 q -0.119,0 -0.203,-0.003 -0.082,-0.003 -0.136,-0.014 -0.053,-0.014 -0.079,-0.043 -0.022,-0.028 -0.022,-0.079 0,-0.025 0.005,-0.045 0.006,-0.022 0.026,-0.04 0.02,-0.02 0.053,-0.03 0.037,-0.012 0.093,-0.017 l 0.096,-0.006 0.085,-0.006 q 0.042,-0.003 0.087,-0.003 h 0.105 q 0.166,0 0.313,0.003 0.15,0.003 0.316,0.011 0.068,0.006 0.105,0.017 0.036,0.008 0.056,0.025 0.02,0.017 0.023,0.04 0.005,0.022 0.005,0.05 0,0.051 -0.036,0.085 -0.034,0.034 -0.15,0.04 z m 1.397,1.572 q -0.029,-0.067 -0.062,-0.155 -0.031,-0.09 -0.068,-0.189 l -0.178,0.006 h -0.41 q -0.098,0 -0.18,-0.003 l -0.065,0.186 q -0.03,0.088 -0.059,0.156 -0.056,0.144 -0.164,0.144 -0.04,0 -0.076,-0.026 -0.034,-0.025 -0.034,-0.073 0,-0.048 0.017,-0.124 0.017,-0.08 0.043,-0.167 l 0.059,-0.183 q 0.03,-0.096 0.06,-0.178 0.027,-0.09 0.078,-0.229 l 0.113,-0.293 0.118,-0.3 q 0.06,-0.149 0.108,-0.26 0.011,-0.027 0.028,-0.061 0.017,-0.037 0.04,-0.068 0.025,-0.03 0.053,-0.053 0.031,-0.023 0.068,-0.023 0.037,0 0.068,0.025 0.03,0.023 0.053,0.057 0.026,0.034 0.043,0.07 0.02,0.037 0.03,0.065 0.046,0.113 0.102,0.26 0.06,0.147 0.116,0.296 0.06,0.15 0.11,0.285 0.05,0.136 0.082,0.229 0.025,0.082 0.056,0.175 0.034,0.093 0.062,0.183 0.029,0.09 0.045,0.17 0.02,0.076 0.02,0.124 0,0.048 -0.036,0.073 -0.034,0.026 -0.074,0.026 -0.05,0 -0.093,-0.034 -0.042,-0.037 -0.073,-0.11 z m -0.5,-0.62 q 0.068,0 0.136,0.003 0.067,0 0.135,0.003 l -0.068,-0.198 -0.065,-0.19 -0.053,-0.166 -0.04,-0.138 q -0.011,-0.037 -0.025,-0.06 -0.014,-0.022 -0.037,-0.022 -0.022,0 -0.036,0.026 -0.015,0.022 -0.026,0.059 -0.034,0.116 -0.096,0.302 l -0.127,0.387 q 0.076,-0.003 0.153,-0.003 0.076,-0.003 0.15,-0.003 z m 1.631,0.652 q -0.037,0.067 -0.068,0.098 -0.028,0.031 -0.073,0.031 -0.045,0 -0.08,-0.03 -0.033,-0.032 -0.072,-0.097 -0.051,-0.084 -0.116,-0.234 -0.062,-0.15 -0.127,-0.324 -0.065,-0.178 -0.127,-0.367 -0.062,-0.19 -0.113,-0.356 -0.048,-0.166 -0.08,-0.29 -0.027,-0.128 -0.027,-0.181 0,-0.057 0.022,-0.085 0.023,-0.028 0.088,-0.028 0.036,0 0.062,0.02 0.028,0.016 0.07,0.101 0.034,0.065 0.074,0.17 0.04,0.104 0.082,0.23 0.045,0.128 0.09,0.269 l 0.09,0.277 0.085,0.265 0.073,0.228 0.076,-0.231 0.088,-0.265 0.09,-0.277 q 0.045,-0.14 0.09,-0.265 l 0.085,-0.229 q 0.04,-0.104 0.07,-0.172 0.04,-0.082 0.069,-0.101 0.03,-0.02 0.062,-0.02 0.065,0 0.087,0.034 0.026,0.03 0.026,0.093 0,0.056 -0.017,0.135 -0.017,0.08 -0.06,0.212 -0.04,0.13 -0.107,0.325 l -0.166,0.476 q -0.026,0.077 -0.06,0.159 -0.03,0.081 -0.065,0.16 -0.03,0.077 -0.062,0.147 -0.03,0.07 -0.059,0.121 z m 0.839,-0.317 q -0.005,-0.09 -0.01,-0.245 -0.006,-0.155 -0.006,-0.319 v -0.192 l 0.005,-0.206 q 0.006,-0.209 0.026,-0.327 0.022,-0.119 0.084,-0.178 0.065,-0.06 0.18,-0.074 0.117,-0.014 0.309,-0.014 h 0.059 q 0.06,0 0.14,0.003 0.083,0 0.17,0.003 l 0.15,0.006 q 0.062,0.006 0.099,0.017 0.04,0.008 0.059,0.026 0.02,0.014 0.025,0.036 0.006,0.02 0.006,0.046 0,0.064 -0.037,0.095 -0.037,0.029 -0.15,0.037 -0.056,0.006 -0.166,0.008 h -0.22 q -0.113,0 -0.203,0.003 h -0.113 q -0.074,0.003 -0.105,0.034 -0.028,0.028 -0.028,0.138 l 0.003,0.125 q 0.006,0.096 0.006,0.27 h 0.234 q 0.15,0 0.243,0.006 0.096,0.003 0.146,0.017 0.054,0.014 0.074,0.046 0.02,0.03 0.02,0.081 0,0.026 -0.006,0.048 -0.003,0.02 -0.023,0.037 -0.02,0.014 -0.056,0.025 -0.037,0.008 -0.105,0.015 -0.081,0.006 -0.155,0.008 h -0.378 v 0.343 l 0.006,0.097 q 0.002,0.045 0.01,0.076 0.012,0.031 0.038,0.05 0.028,0.02 0.079,0.03 0.053,0.007 0.14,0.007 h 0.608 q 0.098,0 0.124,0.037 0.025,0.036 0.025,0.099 0,0.05 -0.022,0.079 -0.023,0.025 -0.11,0.036 -0.085,0.014 -0.257,0.017 -0.17,0.003 -0.469,0.003 -0.127,0 -0.209,-0.022 -0.082,-0.023 -0.132,-0.077 -0.051,-0.053 -0.077,-0.138 -0.022,-0.087 -0.03,-0.212 z" />
  </g>
  <path
     inkscape:connector-curvature="0"
     id="path26"
     word-spacing="0"
     letter-spacing="0"
     font-size="2.822"
     font-weight="400"
     style="font-weight:400;font-size:2.82200003px;line-height:1.25;font-family:Sniglet;-inkscape-font-specification:'Sniglet, Normal';font-variant-ligatures:normal;font-variant-caps:normal;font-variant-numeric:normal;font-feature-settings:normal;text-align:start;letter-spacing:0;word-spacing:0"
     d="m 8.9897164,68.067 q 0.093,0 0.192,0.017 0.099,0.017 0.18,0.05 0.082,0.032 0.136,0.08 0.054,0.048 0.054,0.11 0,0.065 -0.034,0.098 -0.034,0.034 -0.085,0.034 -0.048,0 -0.09,-0.017 l -0.09,-0.036 q -0.051,-0.02 -0.122,-0.037 -0.07,-0.017 -0.178,-0.017 -0.118,0 -0.223,0.057 -0.101,0.053 -0.18,0.152 -0.08,0.096 -0.124,0.229 -0.046,0.132 -0.046,0.287 0,0.19 0.048,0.328 0.048,0.138 0.125,0.228 0.079,0.09 0.174,0.136 0.1,0.042 0.198,0.042 0.16,0 0.254,-0.045 0.096,-0.048 0.152,-0.121 0.003,-0.06 0.003,-0.141 v -0.178 q 0,-0.037 -0.006,-0.057 -0.006,-0.022 -0.028,-0.034 -0.022,-0.01 -0.067,-0.014 -0.043,-0.003 -0.116,-0.003 -0.09,0 -0.147,-0.022 -0.056,-0.026 -0.056,-0.105 0,-0.056 0.028,-0.09 0.03,-0.037 0.124,-0.042 h 0.054 q 0.04,-0.003 0.081,-0.003 h 0.156 q 0.084,0 0.135,0.017 0.05,0.014 0.09,0.067 0.02,0.029 0.023,0.1 0.006,0.07 0.006,0.163 v 0.728 q 0,0.076 -0.042,0.113 -0.04,0.037 -0.093,0.037 -0.065,0 -0.108,-0.034 -0.04,-0.031 -0.04,-0.102 v -0.11 q -0.073,0.085 -0.174,0.121 -0.099,0.037 -0.251,0.037 -0.156,0 -0.305,-0.062 -0.15,-0.062 -0.265,-0.184 -0.116,-0.124 -0.19,-0.307 -0.07,-0.186 -0.07,-0.432 0,-0.245 0.07,-0.437 0.074,-0.192 0.198,-0.325 0.124,-0.135 0.29,-0.206 0.167,-0.07 0.36,-0.07 z m 2.1129996,1.854 -0.062,-0.155 q -0.03,-0.09 -0.068,-0.19 l -0.177,0.007 h -0.41 q -0.098,0 -0.18,-0.003 l -0.065,0.186 q -0.031,0.088 -0.06,0.155 -0.056,0.144 -0.1629996,0.144 -0.04,0 -0.076,-0.025 -0.034,-0.026 -0.034,-0.074 0,-0.048 0.017,-0.124 0.017,-0.079 0.042,-0.166 0.028,-0.09 0.06,-0.184 0.03,-0.096 0.059,-0.178 0.028,-0.09 0.079,-0.228 l 0.112,-0.294 0.119,-0.299 q 0.06,-0.15 0.107,-0.26 l 0.028,-0.062 q 0.017,-0.036 0.04,-0.067 0.025,-0.031 0.054,-0.054 0.03,-0.022 0.067,-0.022 0.037,0 0.068,0.025 0.031,0.023 0.054,0.056 0.025,0.034 0.042,0.07 0.02,0.038 0.03,0.066 0.046,0.113 0.102,0.26 0.06,0.146 0.116,0.296 0.06,0.15 0.11,0.285 0.051,0.135 0.082,0.228 0.025,0.082 0.056,0.175 0.034,0.094 0.063,0.184 0.028,0.09 0.045,0.17 0.02,0.075 0.02,0.123 0,0.048 -0.037,0.074 -0.034,0.025 -0.074,0.025 -0.05,0 -0.093,-0.034 -0.042,-0.036 -0.073,-0.11 z m -0.5,-0.62 0.136,0.002 q 0.068,0 0.136,0.003 l -0.068,-0.197 -0.065,-0.19 q -0.028,-0.09 -0.054,-0.166 l -0.04,-0.138 q -0.01,-0.037 -0.024,-0.06 -0.015,-0.022 -0.037,-0.022 -0.023,0 -0.037,0.025 -0.014,0.023 -0.025,0.06 -0.034,0.115 -0.096,0.302 l -0.127,0.386 q 0.076,-0.003 0.152,-0.003 0.076,-0.003 0.15,-0.003 z m 1.876,-0.952 q -0.079,0.006 -0.169,0.008 l -0.195,0.006 0.006,0.144 0.006,0.133 q 0.003,0.067 0.003,0.14 0.003,0.074 0.003,0.164 v 0.246 q 0,0.116 -0.003,0.234 l -0.006,0.234 -0.008,0.246 q -0.003,0.068 -0.014,0.104 -0.008,0.037 -0.025,0.057 -0.017,0.02 -0.04,0.022 -0.022,0.006 -0.05,0.006 -0.051,0 -0.088,-0.033 -0.034,-0.037 -0.04,-0.153 -0.006,-0.101 -0.008,-0.214 0,-0.113 -0.003,-0.243 -0.003,-0.13 -0.003,-0.28 v -0.606 q 0.003,-0.116 0.008,-0.2 h -0.114 q -0.119,0 -0.203,-0.004 -0.082,-0.003 -0.136,-0.014 -0.054,-0.014 -0.079,-0.042 -0.023,-0.028 -0.023,-0.079 0,-0.025 0.006,-0.045 0.006,-0.023 0.026,-0.04 0.02,-0.02 0.053,-0.03 0.037,-0.012 0.094,-0.018 l 0.096,-0.006 0.084,-0.006 q 0.043,-0.003 0.088,-0.003 h 0.104 q 0.167,0 0.313,0.003 0.15,0.003 0.317,0.012 0.067,0.006 0.104,0.016 0.037,0.008 0.056,0.026 0.02,0.017 0.023,0.04 0.006,0.022 0.006,0.05 0,0.051 -0.037,0.085 -0.034,0.034 -0.15,0.04 z m 0.402,1.287 q -0.006,-0.09 -0.011,-0.246 -0.006,-0.155 -0.006,-0.318 V 68.88 l 0.006,-0.206 q 0.006,-0.21 0.025,-0.328 0.023,-0.118 0.085,-0.178 0.065,-0.059 0.18,-0.073 0.116,-0.014 0.308,-0.014 h 0.06 q 0.059,0 0.14,0.003 0.082,0 0.17,0.003 l 0.15,0.006 q 0.062,0.006 0.098,0.017 0.04,0.008 0.06,0.025 0.02,0.014 0.025,0.037 0.006,0.02 0.006,0.045 0,0.065 -0.037,0.096 -0.036,0.028 -0.15,0.037 -0.056,0.006 -0.166,0.008 h -0.22 q -0.113,0 -0.203,0.003 h -0.113 q -0.073,0.003 -0.104,0.034 -0.029,0.028 -0.029,0.138 l 0.003,0.124 q 0.006,0.096 0.006,0.271 h 0.235 q 0.15,0 0.242,0.006 0.096,0.003 0.147,0.017 0.054,0.014 0.073,0.045 0.02,0.031 0.02,0.082 0,0.025 -0.006,0.048 -0.003,0.02 -0.022,0.037 -0.02,0.014 -0.057,0.025 -0.036,0.008 -0.104,0.014 -0.082,0.006 -0.155,0.008 h -0.379 v 0.344 l 0.006,0.096 q 0.003,0.046 0.012,0.077 0.011,0.03 0.036,0.05 0.029,0.02 0.08,0.029 0.053,0.008 0.14,0.008 h 0.607 q 0.1,0 0.125,0.036 0.025,0.037 0.025,0.1 0,0.05 -0.023,0.078 -0.022,0.026 -0.11,0.037 -0.084,0.014 -0.257,0.017 -0.169,0.003 -0.468,0.003 -0.127,0 -0.209,-0.023 -0.082,-0.022 -0.133,-0.076 -0.05,-0.054 -0.076,-0.138 -0.022,-0.088 -0.03,-0.212 z" />
  <path
     inkscape:connector-curvature="0"
     id="path28"
     word-spacing="0"
     letter-spacing="0"
     font-size="10.667"
     font-weight="400"
     style="font-weight:400;font-size:10.66699982px;line-height:1.25;font-family:Sniglet;-inkscape-font-specification:'Sniglet, Normal';font-variant-ligatures:normal;font-variant-caps:normal;font-variant-numeric:normal;font-feature-settings:normal;text-align:start;letter-spacing:0;word-spacing:0"
     d="m 10.419858,55.173 q 0.093,0 0.186,0.018 0.096,0.014 0.172,0.048 0.076,0.03 0.124,0.079 0.051,0.045 0.051,0.107 0,0.065 -0.034,0.099 -0.034,0.034 -0.084,0.034 -0.048,0 -0.085,-0.014 l -0.085,-0.037 q -0.045,-0.02 -0.11,-0.034 -0.065,-0.017 -0.172,-0.017 -0.107,0 -0.206,0.056 -0.096,0.054 -0.17,0.153 -0.07,0.096 -0.1119998,0.228 -0.043,0.133 -0.043,0.288 0,0.192 0.048,0.33 0.051,0.139 0.1299998,0.23 0.08,0.087 0.178,0.132 0.102,0.042 0.203,0.042 0.122,0 0.204,-0.025 0.081,-0.026 0.138,-0.057 0.06,-0.03 0.101,-0.056 0.043,-0.026 0.082,-0.026 0.048,0 0.076,0.029 0.029,0.025 0.029,0.093 0,0.056 -0.046,0.115 -0.042,0.057 -0.127,0.105 -0.081,0.045 -0.197,0.076 -0.116,0.028 -0.26,0.028 -0.158,0 -0.316,-0.062 -0.1549998,-0.062 -0.2799998,-0.183 -0.12,-0.124 -0.197,-0.308 -0.076,-0.186 -0.076,-0.432 0,-0.245 0.068,-0.437 0.07,-0.192 0.189,-0.325 0.121,-0.135 0.2799998,-0.206 0.16,-0.07 0.34,-0.07 z m 1.641,1.886 q -0.036,0.068 -0.067,0.099 -0.029,0.03 -0.074,0.03 -0.045,0 -0.079,-0.03 -0.034,-0.031 -0.073,-0.096 -0.051,-0.085 -0.116,-0.234 -0.062,-0.15 -0.127,-0.325 -0.065,-0.178 -0.127,-0.367 -0.062,-0.189 -0.113,-0.355 -0.048,-0.167 -0.079,-0.291 -0.028,-0.127 -0.028,-0.18 0,-0.057 0.023,-0.085 0.022,-0.029 0.087,-0.029 0.037,0 0.062,0.02 0.028,0.017 0.07,0.102 0.035,0.065 0.074,0.17 0.04,0.104 0.082,0.23 0.045,0.128 0.09,0.269 l 0.09,0.276 q 0.046,0.138 0.085,0.265 l 0.074,0.23 0.076,-0.232 0.087,-0.266 0.09,-0.276 q 0.046,-0.141 0.091,-0.265 0.045,-0.125 0.085,-0.23 0.04,-0.104 0.07,-0.171 0.04,-0.082 0.068,-0.102 0.031,-0.02 0.062,-0.02 0.065,0 0.088,0.034 0.025,0.031 0.025,0.093 0,0.057 -0.017,0.136 -0.017,0.079 -0.06,0.211 -0.039,0.13 -0.106,0.325 l -0.167,0.477 q -0.025,0.076 -0.06,0.158 -0.03,0.082 -0.064,0.16 -0.031,0.077 -0.062,0.148 -0.031,0.07 -0.06,0.121 z" />
  <path
     inkscape:connector-curvature="0"
     id="path30"
     word-spacing="0"
     letter-spacing="0"
     font-size="2.822"
     font-weight="400"
     style="font-weight:400;font-size:2.82200003px;line-height:1.25;font-family:Sniglet;-inkscape-font-specification:'Sniglet, Normal';font-variant-ligatures:normal;font-variant-caps:normal;font-variant-numeric:normal;font-feature-settings:normal;text-align:start;letter-spacing:0;word-spacing:0"
     d="m 27.448146,83.038 q -0.17,0 -0.319,-0.068 -0.146,-0.067 -0.257,-0.194 -0.11,-0.13 -0.175,-0.316 -0.062,-0.187 -0.062,-0.424 0,-0.223 0.054,-0.409 0.056,-0.186 0.164,-0.322 0.11,-0.135 0.27,-0.209 0.161,-0.076 0.372999,-0.076 0.172,0 0.328,0.062 0.155,0.062 0.269999,0.187 0.119,0.124 0.187,0.31 0.067,0.186 0.067,0.435 0,0.206 -0.056,0.392 -0.054,0.186 -0.166,0.327 -0.11,0.139 -0.279999,0.223 -0.17,0.082 -0.397999,0.082 z m 0.006,-0.265 q 0.154999,0 0.270999,-0.062 0.116,-0.065 0.192,-0.17 0.076,-0.104 0.112999,-0.24 0.037,-0.138 0.037,-0.282 0,-0.175 -0.048,-0.31 -0.046,-0.138 -0.124999,-0.232 -0.079,-0.093 -0.183,-0.14 -0.104,-0.051 -0.223,-0.051 -0.140999,0 -0.247999,0.059 -0.105,0.06 -0.178,0.16 -0.07,0.102 -0.107,0.24 -0.037,0.136 -0.037,0.291 0,0.167 0.042,0.305 0.043,0.136 0.113,0.232 0.074,0.096 0.172,0.15 0.1,0.05 0.21,0.05 z m 1.998998,-1.761 q 0.093,0 0.187,0.017 0.096,0.014 0.172,0.048 0.076,0.03 0.124,0.079 0.05,0.045 0.05,0.107 0,0.065 -0.033,0.099 -0.034,0.034 -0.085,0.034 -0.048,0 -0.085,-0.014 -0.036,-0.017 -0.084,-0.037 -0.045,-0.02 -0.11,-0.034 -0.065,-0.017 -0.172,-0.017 -0.108,0 -0.206,0.056 -0.096,0.054 -0.17,0.153 -0.07,0.096 -0.113,0.228 -0.042,0.133 -0.042,0.288 0,0.192 0.048,0.33 0.05,0.139 0.13,0.23 0.079,0.087 0.178,0.132 0.101,0.042 0.203,0.042 0.121,0 0.203,-0.025 0.082,-0.026 0.138,-0.057 0.06,-0.03 0.102,-0.056 0.042,-0.026 0.082,-0.026 0.048,0 0.076,0.029 0.028,0.025 0.028,0.093 0,0.056 -0.045,0.115 -0.042,0.057 -0.127,0.105 -0.082,0.045 -0.198,0.076 -0.115,0.028 -0.26,0.028 -0.157,0 -0.315,-0.062 -0.155,-0.062 -0.28,-0.183 -0.121,-0.125 -0.197,-0.308 -0.076,-0.186 -0.076,-0.432 0,-0.245 0.067,-0.437 0.07,-0.192 0.19,-0.325 0.12,-0.135 0.279,-0.206 0.16,-0.07 0.341,-0.07 z m 1.914,0.282 q -0.079,0.006 -0.17,0.008 l -0.194,0.006 0.006,0.144 0.006,0.133 q 0.003,0.067 0.003,0.14 0.003,0.074 0.003,0.164 v 0.246 q 0,0.116 -0.003,0.234 l -0.006,0.234 -0.008,0.246 q -0.003,0.068 -0.014,0.104 -0.008,0.037 -0.025,0.057 -0.017,0.02 -0.04,0.022 -0.023,0.006 -0.05,0.006 -0.052,0 -0.088,-0.034 -0.034,-0.036 -0.04,-0.152 -0.006,-0.102 -0.008,-0.214 0,-0.113 -0.003,-0.243 -0.003,-0.13 -0.003,-0.28 v -0.606 q 0.003,-0.116 0.008,-0.2 h -0.115 q -0.119,0 -0.204,-0.004 -0.081,-0.003 -0.135,-0.014 -0.054,-0.014 -0.08,-0.042 -0.022,-0.028 -0.022,-0.08 0,-0.024 0.006,-0.044 0.006,-0.023 0.026,-0.04 0.02,-0.02 0.053,-0.03 0.037,-0.012 0.093,-0.018 l 0.096,-0.006 0.085,-0.006 q 0.042,-0.003 0.088,-0.003 h 0.104 q 0.166,0 0.313,0.003 0.15,0.003 0.316,0.012 0.068,0.006 0.105,0.016 0.036,0.008 0.056,0.026 0.02,0.017 0.023,0.04 0.006,0.022 0.006,0.05 0,0.05 -0.037,0.085 -0.034,0.034 -0.15,0.04 z" />
  <g
     id="g34"
     style="line-height:1.25"
     transform="translate(-26.543,-161.307)">
    <path
       inkscape:connector-curvature="0"
       id="path32"
       word-spacing="0"
       letter-spacing="0"
       font-size="4.233"
       font-weight="400"
       aria-label="TWELVE-KEY"
       style="font-weight:400;font-size:4.2329998px;font-family:Sniglet;-inkscape-font-specification:'Sniglet, Normal';font-variant-ligatures:normal;font-variant-caps:normal;font-variant-numeric:normal;font-feature-settings:normal;text-align:start;letter-spacing:0;word-spacing:0"
       d="m 56.297,165.255 q -0.119,0.008 -0.254,0.013 l -0.292,0.008 0.008,0.216 0.009,0.199 q 0.004,0.101 0.004,0.211 0.004,0.11 0.004,0.246 v 0.368 q 0,0.174 -0.004,0.352 l -0.009,0.351 q -0.004,0.178 -0.012,0.368 -0.005,0.102 -0.022,0.157 -0.012,0.055 -0.038,0.085 -0.025,0.03 -0.059,0.034 -0.034,0.008 -0.076,0.008 -0.076,0 -0.131,-0.051 -0.051,-0.055 -0.06,-0.229 -0.008,-0.152 -0.012,-0.322 0,-0.169 -0.005,-0.364 -0.004,-0.194 -0.004,-0.419 v -0.91 q 0.004,-0.173 0.013,-0.3 h -0.174 q -0.177,0 -0.304,-0.004 -0.123,-0.004 -0.204,-0.022 -0.08,-0.02 -0.118,-0.063 -0.034,-0.042 -0.034,-0.119 0,-0.038 0.008,-0.067 0.009,-0.034 0.039,-0.06 0.03,-0.03 0.08,-0.046 0.055,-0.017 0.14,-0.026 l 0.144,-0.008 0.127,-0.008 q 0.063,-0.004 0.13,-0.004 h 0.158 q 0.25,0 0.47,0.004 0.224,0.004 0.474,0.017 0.101,0.008 0.156,0.026 0.055,0.012 0.085,0.038 0.03,0.025 0.034,0.059 0.008,0.034 0.008,0.076 0,0.076 -0.055,0.127 -0.05,0.051 -0.224,0.06 z m 1.82,0.415 q 0.025,-0.06 0.076,-0.097 0.055,-0.038 0.114,-0.038 0.055,0 0.106,0.038 0.05,0.034 0.08,0.093 0.161,0.33 0.318,0.715 0.157,0.381 0.284,0.724 0.072,-0.525 0.156,-1.058 0.085,-0.534 0.19,-1.02 0.013,-0.055 0.039,-0.09 0.025,-0.037 0.055,-0.054 0.03,-0.022 0.06,-0.03 0.033,-0.008 0.054,-0.008 0.072,0 0.119,0.042 0.046,0.038 0.046,0.106 0,0.076 -0.025,0.271 -0.026,0.19 -0.068,0.449 -0.042,0.254 -0.097,0.542 -0.051,0.288 -0.102,0.554 -0.05,0.267 -0.097,0.487 -0.047,0.22 -0.076,0.335 -0.026,0.097 -0.077,0.148 -0.05,0.046 -0.148,0.046 -0.101,0 -0.173,-0.089 -0.068,-0.093 -0.153,-0.287 -0.08,-0.195 -0.194,-0.496 -0.115,-0.305 -0.297,-0.728 -0.186,0.423 -0.305,0.728 -0.114,0.305 -0.199,0.5 -0.08,0.195 -0.152,0.288 -0.072,0.089 -0.17,0.089 -0.169,0 -0.224,-0.195 -0.034,-0.114 -0.08,-0.33 -0.047,-0.22 -0.097,-0.487 l -0.098,-0.55 q -0.05,-0.288 -0.089,-0.542 -0.038,-0.254 -0.063,-0.445 -0.021,-0.195 -0.021,-0.27 0,-0.073 0.046,-0.12 0.047,-0.046 0.131,-0.046 0.06,0 0.115,0.038 0.055,0.034 0.08,0.144 0.102,0.487 0.178,1.02 0.08,0.534 0.17,1.059 0.13,-0.31 0.262,-0.657 0.131,-0.347 0.326,-0.778 z m 2.082,1.516 q -0.009,-0.136 -0.017,-0.369 -0.009,-0.233 -0.009,-0.478 v -0.288 l 0.009,-0.309 q 0.008,-0.313 0.038,-0.491 0.034,-0.178 0.127,-0.267 0.097,-0.089 0.27,-0.11 0.174,-0.021 0.462,-0.021 h 0.089 q 0.089,0 0.212,0.004 0.122,0 0.254,0.004 l 0.224,0.008 q 0.093,0.008 0.148,0.025 0.06,0.013 0.089,0.038 0.03,0.022 0.038,0.055 0.009,0.03 0.009,0.068 0,0.098 -0.055,0.144 -0.055,0.042 -0.225,0.055 -0.084,0.008 -0.25,0.013 h -0.33 q -0.17,0 -0.305,0.004 h -0.169 q -0.11,0.004 -0.156,0.05 -0.043,0.043 -0.043,0.208 l 0.004,0.186 q 0.009,0.144 0.009,0.407 h 0.351 q 0.225,0 0.364,0.008 0.144,0.004 0.22,0.025 0.08,0.021 0.11,0.068 0.03,0.046 0.03,0.123 0,0.038 -0.008,0.072 -0.005,0.03 -0.034,0.055 -0.03,0.02 -0.085,0.038 -0.055,0.012 -0.157,0.02 -0.122,0.009 -0.232,0.014 h -0.568 v 0.516 l 0.009,0.144 q 0.004,0.068 0.017,0.114 0.017,0.047 0.055,0.076 0.042,0.03 0.118,0.043 0.08,0.012 0.212,0.012 h 0.91 q 0.148,0 0.186,0.055 0.039,0.055 0.039,0.149 0,0.076 -0.034,0.118 -0.034,0.038 -0.165,0.055 -0.127,0.021 -0.386,0.026 -0.254,0.004 -0.702,0.004 -0.19,0 -0.314,-0.034 -0.122,-0.034 -0.199,-0.115 -0.076,-0.08 -0.114,-0.207 -0.034,-0.131 -0.046,-0.318 z m 2.762,-0.538 v 0.241 q 0,0.102 -0.004,0.195 0,0.093 -0.004,0.186 l -0.009,0.208 q 0.292,-0.034 0.457,-0.055 l 0.259,-0.034 q 0.097,-0.013 0.148,-0.017 0.055,-0.004 0.127,-0.004 0.186,0 0.186,0.182 0,0.072 -0.076,0.123 -0.072,0.05 -0.186,0.089 -0.11,0.033 -0.25,0.059 -0.136,0.021 -0.267,0.03 -0.127,0.012 -0.233,0.016 -0.101,0.004 -0.144,0.004 -0.152,0 -0.237,-0.02 -0.084,-0.018 -0.127,-0.11 -0.042,-0.098 -0.055,-0.293 -0.008,-0.195 -0.008,-0.55 v -0.61 q 0,-0.267 0.004,-0.478 0.004,-0.212 0.004,-0.377 0.004,-0.165 0.013,-0.3 0.008,-0.174 0.06,-0.225 0.05,-0.055 0.126,-0.055 0.043,0 0.072,0.008 0.034,0.004 0.06,0.034 0.025,0.03 0.038,0.085 0.016,0.055 0.02,0.156 0.018,0.373 0.022,0.737 0.004,0.364 0.004,0.775 z m 2.312,1.012 q -0.055,0.101 -0.102,0.148 -0.042,0.046 -0.11,0.046 -0.068,0 -0.118,-0.046 -0.051,-0.047 -0.11,-0.144 -0.077,-0.127 -0.174,-0.351 -0.093,-0.225 -0.19,-0.487 -0.098,-0.267 -0.191,-0.55 -0.093,-0.284 -0.17,-0.534 -0.071,-0.25 -0.118,-0.436 -0.042,-0.19 -0.042,-0.27 0,-0.086 0.034,-0.128 0.033,-0.042 0.13,-0.042 0.056,0 0.094,0.03 0.042,0.025 0.106,0.152 0.05,0.097 0.11,0.254 0.06,0.156 0.123,0.347 0.067,0.19 0.135,0.402 l 0.136,0.415 0.127,0.398 q 0.059,0.19 0.11,0.343 0.05,-0.157 0.114,-0.347 0.063,-0.195 0.131,-0.398 l 0.136,-0.415 q 0.067,-0.212 0.135,-0.398 l 0.127,-0.343 q 0.06,-0.157 0.106,-0.258 0.06,-0.123 0.102,-0.153 0.046,-0.03 0.093,-0.03 0.097,0 0.13,0.052 0.039,0.046 0.039,0.14 0,0.084 -0.025,0.202 -0.026,0.119 -0.09,0.318 -0.059,0.195 -0.16,0.487 l -0.25,0.715 q -0.038,0.115 -0.089,0.237 -0.046,0.123 -0.097,0.242 -0.047,0.114 -0.093,0.22 -0.047,0.106 -0.09,0.182 z m 1.259,-0.474 q -0.009,-0.136 -0.017,-0.369 -0.008,-0.233 -0.008,-0.478 v -0.288 l 0.008,-0.309 q 0.009,-0.313 0.038,-0.491 0.034,-0.178 0.127,-0.267 0.098,-0.089 0.271,-0.11 0.174,-0.021 0.462,-0.021 h 0.088 q 0.09,0 0.212,0.004 0.123,0 0.254,0.004 l 0.224,0.008 q 0.094,0.008 0.149,0.025 0.059,0.013 0.089,0.038 0.03,0.022 0.038,0.055 0.008,0.03 0.008,0.068 0,0.098 -0.055,0.144 -0.055,0.042 -0.224,0.055 -0.085,0.008 -0.25,0.013 h -0.33 q -0.17,0 -0.305,0.004 h -0.17 q -0.11,0.004 -0.156,0.05 -0.042,0.043 -0.042,0.208 l 0.004,0.186 q 0.008,0.144 0.008,0.407 h 0.352 q 0.224,0 0.364,0.008 0.144,0.004 0.22,0.025 0.08,0.021 0.11,0.068 0.03,0.046 0.03,0.123 0,0.038 -0.009,0.072 -0.004,0.03 -0.034,0.055 -0.03,0.02 -0.084,0.038 -0.055,0.012 -0.157,0.02 -0.123,0.009 -0.233,0.014 h -0.567 v 0.516 l 0.008,0.144 q 0.005,0.068 0.017,0.114 0.017,0.047 0.055,0.076 0.043,0.03 0.119,0.043 0.08,0.012 0.211,0.012 h 0.91 q 0.149,0 0.187,0.055 0.038,0.055 0.038,0.149 0,0.076 -0.034,0.118 -0.034,0.038 -0.165,0.055 -0.127,0.021 -0.385,0.026 -0.254,0.004 -0.703,0.004 -0.19,0 -0.313,-0.034 -0.123,-0.034 -0.2,-0.115 -0.075,-0.08 -0.113,-0.207 -0.034,-0.131 -0.047,-0.318 z m 3.753,-0.416 q -0.195,0.009 -0.449,0.018 -0.254,0.004 -0.6,0.004 -0.145,0 -0.246,-0.004 -0.102,-0.004 -0.165,-0.022 -0.064,-0.02 -0.093,-0.063 -0.03,-0.042 -0.03,-0.119 0,-0.038 0.008,-0.067 0.009,-0.034 0.039,-0.06 0.03,-0.025 0.08,-0.042 0.055,-0.021 0.14,-0.03 0.063,-0.003 0.11,-0.007 0.05,-0.004 0.097,-0.004 0.047,-0.004 0.097,-0.004 H 69.4 q 0.23,0 0.44,0.004 0.212,0 0.441,0.012 0.102,0.008 0.157,0.026 0.055,0.012 0.084,0.038 0.03,0.025 0.034,0.059 0.009,0.034 0.009,0.076 0,0.076 -0.055,0.127 -0.051,0.051 -0.225,0.06 z m 0.641,0.797 q -0.008,-0.153 -0.012,-0.318 0,-0.165 -0.004,-0.355 -0.005,-0.191 -0.005,-0.411 v -0.5 q 0,-0.3 0.005,-0.512 0.004,-0.216 0.02,-0.351 0.022,-0.136 0.064,-0.2 0.043,-0.063 0.119,-0.063 0.072,0 0.127,0.047 0.055,0.046 0.063,0.216 0.009,0.152 0.013,0.27 l 0.008,0.238 q 0.005,0.114 0.005,0.241 v 0.5 l 0.906,-1.038 q 0.177,-0.203 0.275,-0.266 0.097,-0.068 0.17,-0.068 0.084,0 0.122,0.042 0.042,0.043 0.042,0.106 0,0.026 -0.008,0.051 -0.009,0.025 -0.038,0.072 -0.026,0.042 -0.08,0.11 -0.056,0.064 -0.149,0.165 l -0.588,0.64 0.927,1.32 q 0.034,0.047 0.05,0.098 0.022,0.05 0.022,0.097 0,0.08 -0.047,0.131 -0.042,0.055 -0.152,0.055 -0.09,0 -0.161,-0.05 -0.068,-0.047 -0.127,-0.14 l -0.805,-1.19 -0.364,0.398 -0.008,0.322 q -0.004,0.16 -0.013,0.338 -0.004,0.102 -0.021,0.157 -0.013,0.055 -0.038,0.085 -0.026,0.03 -0.06,0.034 -0.029,0.008 -0.071,0.008 -0.077,0 -0.127,-0.051 -0.051,-0.055 -0.06,-0.229 z m 2.419,-0.381 q -0.009,-0.136 -0.017,-0.369 -0.008,-0.233 -0.008,-0.478 v -0.288 l 0.008,-0.309 q 0.009,-0.313 0.038,-0.491 0.034,-0.178 0.127,-0.267 0.098,-0.089 0.271,-0.11 0.174,-0.021 0.462,-0.021 h 0.088 q 0.09,0 0.212,0.004 0.123,0 0.254,0.004 l 0.224,0.008 q 0.094,0.008 0.149,0.025 0.059,0.013 0.089,0.038 0.03,0.022 0.038,0.055 0.008,0.03 0.008,0.068 0,0.098 -0.055,0.144 -0.055,0.042 -0.224,0.055 -0.085,0.008 -0.25,0.013 h -0.33 q -0.17,0 -0.305,0.004 h -0.17 q -0.11,0.004 -0.156,0.05 -0.042,0.043 -0.042,0.208 l 0.004,0.186 q 0.008,0.144 0.008,0.407 h 0.352 q 0.224,0 0.364,0.008 0.144,0.004 0.22,0.025 0.08,0.021 0.11,0.068 0.03,0.046 0.03,0.123 0,0.038 -0.009,0.072 -0.004,0.03 -0.034,0.055 -0.03,0.02 -0.084,0.038 -0.055,0.012 -0.157,0.02 -0.123,0.009 -0.233,0.014 H 73.76 v 0.516 l 0.008,0.144 q 0.005,0.068 0.017,0.114 0.017,0.047 0.055,0.076 0.043,0.03 0.119,0.043 0.08,0.012 0.212,0.012 h 0.91 q 0.148,0 0.186,0.055 0.038,0.055 0.038,0.149 0,0.076 -0.034,0.118 -0.034,0.038 -0.165,0.055 -0.127,0.021 -0.385,0.026 -0.254,0.004 -0.703,0.004 -0.19,0 -0.313,-0.034 -0.123,-0.034 -0.2,-0.115 -0.075,-0.08 -0.113,-0.207 -0.034,-0.131 -0.047,-0.318 z m 3.105,0.381 -0.016,-0.496 q -0.005,-0.266 -0.005,-0.614 l -0.842,-1.206 q -0.034,-0.047 -0.055,-0.097 -0.017,-0.051 -0.017,-0.098 0,-0.08 0.042,-0.131 0.047,-0.055 0.157,-0.055 0.089,0 0.157,0.05 0.072,0.047 0.13,0.14 l 0.632,1.004 0.63,-1.004 q 0.06,-0.093 0.127,-0.14 0.072,-0.05 0.161,-0.05 0.11,0 0.153,0.055 0.046,0.05 0.046,0.131 0,0.047 -0.021,0.098 -0.017,0.05 -0.05,0.097 l -0.826,1.181 q 0,0.288 -0.009,0.555 -0.004,0.262 -0.017,0.575 -0.004,0.102 -0.02,0.157 -0.014,0.055 -0.039,0.085 -0.025,0.03 -0.06,0.034 -0.029,0.008 -0.071,0.008 -0.076,0 -0.127,-0.051 -0.051,-0.055 -0.06,-0.229 z" />
  </g>
  <g
     id="g40"
     transform="translate(-26.808,-161.307)">
    <rect
       style="fill:#333333;paint-order:markers stroke fill"
       id="rect36"
       ry="0.60900003"
       rx="0.60900003"
       width="77.258003"
       height="41.009998"
       x="27.865999"
       y="170.567" />
    <path
       style="fill:#999999;stroke:#000000;stroke-width:0.26499999"
       inkscape:connector-curvature="0"
       id="path38"
       d="m 45.858,171.897 0.047,18.245 3.398,1.85 V 210.27 H 40.02 v -18.278 l 3.461,-1.85 v -18.245 z m 32.702,0 0.048,18.245 3.397,1.85 v 18.278 h -9.283 v -18.278 l 3.461,-1.85 v -18.245 z m 8.477,0 -0.048,18.245 -3.397,1.85 v 18.278 h 9.282 v -18.278 l -3.46,-1.85 v -18.245 z m -52.049,0 0.048,18.245 3.397,1.85 V 210.27 H 29.15 v -18.278 l -0.008,-20.095 h 3.468 z m 19.34,0 -0.048,18.245 -3.397,1.85 v 18.278 h 9.282 v -18.278 l 0.007,-20.095 h -3.468 z m 13.362,0 0.048,18.245 3.397,1.85 v 18.278 h -9.282 v -18.278 l -0.008,-20.095 h 3.469 z m 30.217,0 -0.048,18.245 -3.397,1.85 v 18.278 h 9.282 v -18.278 l 0.007,-20.095 h -3.468 z" />
  </g>
  <g
     aria-label="VEL"
     style="font-style:normal;font-weight:normal;font-size:10.5833683px;line-height:1.25;font-family:sans-serif;letter-spacing:0px;word-spacing:0px;fill:#000000;fill-opacity:1;stroke:none;stroke-width:0.26458421"
     id="text915">
    <path
       d="m 9.80482,82.896792 q -0.036689,0.06773 -0.067733,0.09878 -0.028222,0.03104 -0.073378,0.03104 -0.045156,0 -0.079023,-0.03104 -0.033867,-0.03104 -0.073378,-0.09596 -0.0508,-0.08467 -0.1157115,-0.234246 -0.062089,-0.149578 -0.1270005,-0.324556 -0.064911,-0.177801 -0.1270004,-0.36689 -0.062089,-0.18909 -0.1128892,-0.355601 -0.047978,-0.166512 -0.079023,-0.29069 -0.028222,-0.127001 -0.028222,-0.180623 0,-0.05644 0.022578,-0.08467 0.022578,-0.02822 0.087489,-0.02822 0.036689,0 0.062089,0.01976 0.028222,0.01693 0.070556,0.101601 0.033867,0.06491 0.073378,0.169333 0.039511,0.104423 0.081845,0.231423 0.045156,0.127001 0.090311,0.268112 0.045156,0.13829 0.090311,0.276579 0.045156,0.138289 0.084667,0.26529 0.039511,0.127 0.073378,0.228601 0.033867,-0.104423 0.0762,-0.231423 0.042333,-0.129823 0.087489,-0.26529 0.045156,-0.138289 0.090311,-0.276579 0.045156,-0.141111 0.090311,-0.26529 0.04516,-0.124178 0.08467,-0.2286 0.03951,-0.104423 0.07056,-0.172156 0.03951,-0.08184 0.06773,-0.101601 0.03104,-0.01976 0.06209,-0.01976 0.06491,0 0.08749,0.03387 0.0254,0.03104 0.0254,0.09313 0,0.05644 -0.01693,0.135467 -0.01693,0.07902 -0.05927,0.211668 -0.03951,0.129822 -0.107245,0.324556 -0.06773,0.194734 -0.166512,0.476957 -0.0254,0.0762 -0.059267,0.158045 -0.031045,0.08184 -0.064911,0.160867 -0.031045,0.0762 -0.062089,0.146756 -0.031045,0.07056 -0.059267,0.121356 z"
       style="font-style:normal;font-variant:normal;font-weight:normal;font-stretch:normal;font-size:2.82223153px;font-family:Sniglet;-inkscape-font-specification:'Sniglet, Normal';font-variant-ligatures:normal;font-variant-caps:normal;font-variant-numeric:normal;font-feature-settings:normal;text-align:start;writing-mode:lr-tb;text-anchor:start;stroke-width:0.26458421"
       id="path927" />
    <path
       d="m 10.644302,82.580703 q -0.0056,-0.09031 -0.01129,-0.245535 -0.0056,-0.155222 -0.0056,-0.318912 0,-0.09313 0,-0.191912 0.0028,-0.1016 0.0056,-0.206022 0.0056,-0.208846 0.0254,-0.327379 0.02258,-0.118534 0.08467,-0.177801 0.06491,-0.05927 0.180623,-0.07338 0.115711,-0.01411 0.307623,-0.01411 0.0028,0 0.05927,0 0.05927,0 0.141111,0.0028 0.08184,0 0.169334,0.0028 0.09031,0.0028 0.149578,0.0056 0.06209,0.0056 0.09878,0.01693 0.03951,0.0085 0.05927,0.0254 0.01976,0.01411 0.0254,0.03669 0.0056,0.01976 0.0056,0.04516 0,0.06491 -0.03669,0.09596 -0.03669,0.02822 -0.149578,0.03669 -0.05645,0.0056 -0.166512,0.0085 -0.107245,0 -0.220134,0 -0.112889,0 -0.203201,0.0028 -0.09031,0 -0.112889,0 -0.07338,0.0028 -0.104423,0.03387 -0.02822,0.02822 -0.02822,0.138289 0,0.0254 0.0028,0.124178 0.0056,0.09596 0.0056,0.270934 h 0.234245 q 0.149578,0 0.242712,0.0056 0.09596,0.0028 0.146756,0.01693 0.05362,0.01411 0.07338,0.04516 0.01976,0.03104 0.01976,0.08185 0,0.0254 -0.0056,0.04798 -0.0028,0.01976 -0.02258,0.03669 -0.01975,0.01411 -0.05644,0.0254 -0.03669,0.0085 -0.104423,0.01411 -0.08184,0.0056 -0.155223,0.0085 -0.07056,0 -0.141111,0 H 10.92088 q 0,0.04233 0,0.1016 0,0.05927 0,0.121356 0,0.06209 0,0.121356 0.0028,0.05927 0.0056,0.09596 0.0028,0.04515 0.01129,0.0762 0.01129,0.03104 0.03669,0.0508 0.02822,0.01976 0.07902,0.02822 0.05362,0.0085 0.141112,0.0085 h 0.60678 q 0.09878,0 0.124178,0.03669 0.0254,0.03669 0.0254,0.09878 0,0.0508 -0.02258,0.07902 -0.02258,0.0254 -0.110067,0.03669 -0.08467,0.01411 -0.256823,0.01693 -0.169334,0.0028 -0.468491,0.0028 -0.127,0 -0.208845,-0.02258 -0.08184,-0.02258 -0.132645,-0.0762 -0.0508,-0.05362 -0.0762,-0.138289 -0.02258,-0.08749 -0.03104,-0.211667 z"
       style="font-style:normal;font-variant:normal;font-weight:normal;font-stretch:normal;font-size:2.82223153px;font-family:Sniglet;-inkscape-font-specification:'Sniglet, Normal';font-variant-ligatures:normal;font-variant-caps:normal;font-variant-numeric:normal;font-feature-settings:normal;text-align:start;writing-mode:lr-tb;text-anchor:start;stroke-width:0.26458421"
       id="path929" />
    <path
       d="m 12.486072,82.222279 q 0,0.09031 0,0.160867 0,0.06773 -0.0028,0.129823 0,0.06209 -0.0028,0.124178 -0.0028,0.06209 -0.0056,0.138289 0.194734,-0.02258 0.304802,-0.03669 0.110067,-0.01411 0.172156,-0.02258 0.06491,-0.0085 0.09878,-0.01129 0.03669,-0.0028 0.08467,-0.0028 0.124178,0 0.124178,0.121356 0,0.04798 -0.0508,0.08185 -0.04798,0.03387 -0.124178,0.05927 -0.07338,0.02258 -0.166512,0.03951 -0.09031,0.01411 -0.177801,0.01976 -0.08467,0.0085 -0.155222,0.01129 -0.06773,0.0028 -0.09596,0.0028 -0.101601,0 -0.158045,-0.01411 -0.05645,-0.01129 -0.08467,-0.07338 -0.02822,-0.06491 -0.03669,-0.194734 -0.0056,-0.129823 -0.0056,-0.36689 0,-0.228601 0,-0.406402 0,-0.1778 0.0028,-0.318912 0.0028,-0.141111 0.0028,-0.251178 0.0028,-0.110067 0.0085,-0.200379 0.0056,-0.115711 0.03951,-0.149578 0.03387,-0.03669 0.08467,-0.03669 0.02822,0 0.04798,0.0056 0.02258,0.0028 0.03951,0.02258 0.01693,0.01976 0.0254,0.05644 0.01129,0.03669 0.01411,0.104422 0.01129,0.248357 0.01411,0.491069 0.0028,0.242712 0.0028,0.516468 z"
       style="font-style:normal;font-variant:normal;font-weight:normal;font-stretch:normal;font-size:2.82223153px;font-family:Sniglet;-inkscape-font-specification:'Sniglet, Normal';font-variant-ligatures:normal;font-variant-caps:normal;font-variant-numeric:normal;font-feature-settings:normal;text-align:start;writing-mode:lr-tb;text-anchor:start;stroke-width:0.26458421"
       id="path931" />
  </g>
  <g
     transform="translate(57.152789,-9.6157895e-6)"
     aria-label="VEL"
     style="font-style:normal;font-weight:normal;font-size:10.5833683px;line-height:1.25;font-family:sans-serif;letter-spacing:0px;word-spacing:0px;fill:#000000;fill-opacity:1;stroke:none;stroke-width:0.26458421"
     id="text915-6">
    <path
       inkscape:connector-curvature="0"
       d="m 9.80482,82.896792 q -0.036689,0.06773 -0.067733,0.09878 -0.028222,0.03104 -0.073378,0.03104 -0.045156,0 -0.079023,-0.03104 -0.033867,-0.03104 -0.073378,-0.09596 -0.0508,-0.08467 -0.1157115,-0.234246 Q 9.3335075,82.515788 9.268596,82.34081 9.203685,82.163009 9.1415956,81.97392 9.0795066,81.78483 9.0287064,81.618319 q -0.047978,-0.166512 -0.079023,-0.29069 -0.028222,-0.127001 -0.028222,-0.180623 0,-0.05644 0.022578,-0.08467 0.022578,-0.02822 0.087489,-0.02822 0.036689,0 0.062089,0.01976 0.028222,0.01693 0.070556,0.101601 0.033867,0.06491 0.073378,0.169333 0.039511,0.104423 0.081845,0.231423 0.045156,0.127001 0.090311,0.268112 0.045156,0.13829 0.090311,0.276579 0.045156,0.138289 0.084667,0.26529 0.039511,0.127 0.073378,0.228601 0.033867,-0.104423 0.0762,-0.231423 0.042333,-0.129823 0.087489,-0.26529 0.045156,-0.138289 0.090311,-0.276579 0.045156,-0.141111 0.090311,-0.26529 0.04516,-0.124178 0.08467,-0.2286 0.03951,-0.104423 0.07056,-0.172156 0.03951,-0.08184 0.06773,-0.101601 0.03104,-0.01976 0.06209,-0.01976 0.06491,0 0.08749,0.03387 0.0254,0.03104 0.0254,0.09313 0,0.05644 -0.01693,0.135467 -0.01693,0.07902 -0.05927,0.211668 -0.03951,0.129822 -0.107245,0.324556 -0.06773,0.194734 -0.166512,0.476957 -0.0254,0.0762 -0.059267,0.158045 -0.031045,0.08184 -0.064911,0.160867 -0.031045,0.0762 -0.062089,0.146756 -0.031045,0.07056 -0.059267,0.121356 z"
       style="font-style:normal;font-variant:normal;font-weight:normal;font-stretch:normal;font-size:2.82223153px;font-family:Sniglet;-inkscape-font-specification:'Sniglet, Normal';font-variant-ligatures:normal;font-variant-caps:normal;font-variant-numeric:normal;font-feature-settings:normal;text-align:start;writing-mode:lr-tb;text-anchor:start;stroke-width:0.26458421"
       id="path927-5" />
    <path
       inkscape:connector-curvature="0"
       d="m 10.644302,82.580703 q -0.0056,-0.09031 -0.01129,-0.245535 -0.0056,-0.155222 -0.0056,-0.318912 0,-0.09313 0,-0.191912 0.0028,-0.1016 0.0056,-0.206022 0.0056,-0.208846 0.0254,-0.327379 0.02258,-0.118534 0.08467,-0.177801 0.06491,-0.05927 0.180623,-0.07338 0.115711,-0.01411 0.307623,-0.01411 0.0028,0 0.05927,0 0.05927,0 0.141111,0.0028 0.08184,0 0.169334,0.0028 0.09031,0.0028 0.149578,0.0056 0.06209,0.0056 0.09878,0.01693 0.03951,0.0085 0.05927,0.0254 0.01976,0.01411 0.0254,0.03669 0.0056,0.01976 0.0056,0.04516 0,0.06491 -0.03669,0.09596 -0.03669,0.02822 -0.149578,0.03669 -0.05645,0.0056 -0.166512,0.0085 -0.107245,0 -0.220134,0 -0.112889,0 -0.203201,0.0028 -0.09031,0 -0.112889,0 -0.07338,0.0028 -0.104423,0.03387 -0.02822,0.02822 -0.02822,0.138289 0,0.0254 0.0028,0.124178 0.0056,0.09596 0.0056,0.270934 h 0.234245 q 0.149578,0 0.242712,0.0056 0.09596,0.0028 0.146756,0.01693 0.05362,0.01411 0.07338,0.04516 0.01976,0.03104 0.01976,0.08185 0,0.0254 -0.0056,0.04798 -0.0028,0.01976 -0.02258,0.03669 -0.01975,0.01411 -0.05644,0.0254 -0.03669,0.0085 -0.104423,0.01411 -0.08184,0.0056 -0.155223,0.0085 -0.07056,0 -0.141111,0 h -0.23702 q 0,0.04233 0,0.1016 0,0.05927 0,0.121356 0,0.06209 0,0.121356 0.0028,0.05927 0.0056,0.09596 0.0028,0.04515 0.01129,0.0762 0.01129,0.03104 0.03669,0.0508 0.02822,0.01976 0.07902,0.02822 0.05362,0.0085 0.141112,0.0085 h 0.60678 q 0.09878,0 0.124178,0.03669 0.0254,0.03669 0.0254,0.09878 0,0.0508 -0.02258,0.07902 -0.02258,0.0254 -0.110067,0.03669 -0.08467,0.01411 -0.256823,0.01693 -0.169334,0.0028 -0.468491,0.0028 -0.127,0 -0.208845,-0.02258 -0.08184,-0.02258 -0.132645,-0.0762 -0.0508,-0.05362 -0.0762,-0.138289 -0.02258,-0.08749 -0.03104,-0.211667 z"
       style="font-style:normal;font-variant:normal;font-weight:normal;font-stretch:normal;font-size:2.82223153px;font-family:Sniglet;-inkscape-font-specification:'Sniglet, Normal';font-variant-ligatures:normal;font-variant-caps:normal;font-variant-numeric:normal;font-feature-settings:normal;text-align:start;writing-mode:lr-tb;text-anchor:start;stroke-width:0.26458421"
       id="path929-0" />
    <path
       inkscape:connector-curvature="0"
       d="m 12.486072,82.222279 q 0,0.09031 0,0.160867 0,0.06773 -0.0028,0.129823 0,0.06209 -0.0028,0.124178 -0.0028,0.06209 -0.0056,0.138289 0.194734,-0.02258 0.304802,-0.03669 0.110067,-0.01411 0.172156,-0.02258 0.06491,-0.0085 0.09878,-0.01129 0.03669,-0.0028 0.08467,-0.0028 0.124178,0 0.124178,0.121356 0,0.04798 -0.0508,0.08185 -0.04798,0.03387 -0.124178,0.05927 -0.07338,0.02258 -0.166512,0.03951 -0.09031,0.01411 -0.177801,0.01976 -0.08467,0.0085 -0.155222,0.01129 -0.06773,0.0028 -0.09596,0.0028 -0.101601,0 -0.158045,-0.01411 -0.05645,-0.01129 -0.08467,-0.07338 -0.02822,-0.06491 -0.03669,-0.194734 -0.0056,-0.129823 -0.0056,-0.36689 0,-0.228601 0,-0.406402 0,-0.1778 0.0028,-0.318912 0.0028,-0.141111 0.0028,-0.251178 0.0028,-0.110067 0.0085,-0.200379 0.0056,-0.115711 0.03951,-0.149578 0.03387,-0.03669 0.08467,-0.03669 0.02822,0 0.04798,0.0056 0.02258,0.0028 0.03951,0.02258 0.01693,0.01976 0.0254,0.05644 0.01129,0.03669 0.01411,0.104422 0.01129,0.248357 0.01411,0.491069 0.0028,0.242712 0.0028,0.516468 z"
       style="font-style:normal;font-variant:normal;font-weight:normal;font-stretch:normal;font-size:2.82223153px;font-family:Sniglet;-inkscape-font-specification:'Sniglet, Normal';font-variant-ligatures:normal;font-variant-caps:normal;font-variant-numeric:normal;font-feature-settings:normal;text-align:start;writing-mode:lr-tb;text-anchor:start;stroke-width:0.26458421"
       id="path931-0" />
  </g>
  <g
     aria-label="OUT"
     style="font-style:normal;font-weight:normal;font-size:10.5833683px;line-height:1.25;font-family:sans-serif;letter-spacing:0px;word-spacing:0px;fill:#000000;fill-opacity:1;stroke:none;stroke-width:0.26458421"
     id="text977"
     transform="translate(0,-1.5875052)">
    <path
       d="m 54.595198,76.789018 q -0.169334,0 -0.318912,-0.06773 -0.146756,-0.06773 -0.256823,-0.194734 -0.110067,-0.129822 -0.174979,-0.31609 -0.06209,-0.186267 -0.06209,-0.423334 0,-0.222957 0.05362,-0.409224 0.05644,-0.186267 0.163689,-0.321734 0.110067,-0.135467 0.270934,-0.208845 0.160868,-0.0762 0.372535,-0.0762 0.172156,0 0.327379,0.06209 0.155223,0.06209 0.270934,0.186268 0.118534,0.124178 0.186267,0.310445 0.06773,0.186267 0.06773,0.434624 0,0.206023 -0.05644,0.39229 -0.05362,0.186267 -0.166511,0.327379 -0.110067,0.138289 -0.279401,0.222956 -0.169334,0.08185 -0.397935,0.08185 z m 0.0056,-0.26529 q 0.155223,0 0.270935,-0.06209 0.115711,-0.06491 0.191911,-0.169334 0.0762,-0.104422 0.11289,-0.23989 0.03669,-0.138289 0.03669,-0.282223 0,-0.174978 -0.04798,-0.310445 -0.04516,-0.138289 -0.124178,-0.231423 -0.07902,-0.09313 -0.183445,-0.141112 -0.104423,-0.0508 -0.222957,-0.0508 -0.141111,0 -0.248356,0.05927 -0.104423,0.05927 -0.177801,0.160867 -0.07055,0.101601 -0.107245,0.23989 -0.03669,0.135467 -0.03669,0.29069 0,0.166511 0.04233,0.304801 0.04233,0.135467 0.112889,0.231423 0.07338,0.09596 0.172156,0.149578 0.09878,0.0508 0.208845,0.0508 z"
       style="font-style:normal;font-variant:normal;font-weight:normal;font-stretch:normal;font-size:2.82223153px;font-family:Sniglet;-inkscape-font-specification:'Sniglet, Normal';font-variant-ligatures:normal;font-variant-caps:normal;font-variant-numeric:normal;font-feature-settings:normal;text-align:start;writing-mode:lr-tb;text-anchor:start;stroke-width:0.26458421"
       id="path1021"
       inkscape:connector-curvature="0" />
    <path
       d="m 56.459282,76.808774 q -0.321734,0 -0.471313,-0.174979 -0.05927,-0.06773 -0.1016,-0.172156 -0.03951,-0.107245 -0.06491,-0.276579 -0.02258,-0.169334 -0.03387,-0.41769 -0.0085,-0.251179 -0.0085,-0.609602 0,-0.115711 0.0056,-0.189089 0.0056,-0.0762 0.02258,-0.118534 0.01693,-0.04516 0.04233,-0.06209 0.02822,-0.01693 0.07056,-0.01693 0.08184,0 0.115711,0.07338 0.03387,0.07338 0.03387,0.254001 0,0.06209 -0.0028,0.110067 0,0.04798 0,0.09878 0,0.04798 -0.0028,0.107245 0,0.05927 0,0.143934 0,0.282223 0.01693,0.46849 0.01976,0.186268 0.06491,0.299157 0.04516,0.110067 0.121356,0.155223 0.07902,0.04515 0.194734,0.04515 0.121356,0 0.200379,-0.04798 0.08184,-0.0508 0.129822,-0.166511 0.04798,-0.118534 0.06773,-0.313268 0.02258,-0.194734 0.02258,-0.485424 0,-0.127 -0.0028,-0.217312 0,-0.09031 0,-0.163689 0,-0.104423 0.0056,-0.174978 0.0085,-0.07056 0.02258,-0.110067 0.01693,-0.04233 0.04516,-0.05927 0.02822,-0.01693 0.07056,-0.01693 0.04233,0 0.07056,0.01693 0.02822,0.01693 0.04516,0.05927 0.01693,0.04233 0.02258,0.118533 0.0056,0.07338 0.0056,0.191912 0,0.496713 -0.03104,0.818447 -0.03104,0.318912 -0.110067,0.50518 -0.07902,0.183445 -0.217311,0.256823 -0.135468,0.07056 -0.349957,0.07056 z"
       style="font-style:normal;font-variant:normal;font-weight:normal;font-stretch:normal;font-size:2.82223153px;font-family:Sniglet;-inkscape-font-specification:'Sniglet, Normal';font-variant-ligatures:normal;font-variant-caps:normal;font-variant-numeric:normal;font-feature-settings:normal;text-align:start;writing-mode:lr-tb;text-anchor:start;stroke-width:0.26458421"
       id="path1023"
       inkscape:connector-curvature="0" />
    <path
       d="m 58.602282,75.044879 q -0.07902,0.0056 -0.169334,0.0085 -0.08749,0.0028 -0.194734,0.0056 0.0028,0.0762 0.0056,0.143934 0.0028,0.06491 0.0056,0.132645 0.0028,0.06773 0.0028,0.141111 0.0028,0.07338 0.0028,0.16369 0,0.127 0,0.245534 0,0.115711 -0.0028,0.234245 -0.0028,0.115712 -0.0056,0.234245 -0.0028,0.118534 -0.0085,0.245534 -0.0028,0.06773 -0.01411,0.104423 -0.0085,0.03669 -0.0254,0.05644 -0.01693,0.01976 -0.03951,0.02258 -0.02258,0.0056 -0.0508,0.0056 -0.0508,0 -0.08749,-0.03387 -0.03387,-0.03669 -0.03951,-0.1524 -0.0056,-0.101601 -0.0085,-0.21449 0,-0.112889 -0.0028,-0.242712 -0.0028,-0.129823 -0.0028,-0.279401 0,-0.1524 0,-0.335845 0,-0.155223 0,-0.270935 0.0028,-0.115711 0.0085,-0.200378 h -0.115711 q -0.118534,0 -0.203201,-0.0028 -0.08185,-0.0028 -0.135467,-0.01411 -0.05362,-0.01411 -0.07902,-0.04233 -0.02258,-0.02822 -0.02258,-0.07902 0,-0.0254 0.0056,-0.04516 0.0056,-0.02258 0.0254,-0.03951 0.01976,-0.01976 0.05362,-0.03104 0.03669,-0.01129 0.09313,-0.01693 0.05362,-0.0028 0.09596,-0.0056 0.04233,-0.0028 0.08467,-0.0056 0.04233,-0.0028 0.08749,-0.0028 0.04516,0 0.104423,0 0.166511,0 0.313267,0.0028 0.149579,0.0028 0.31609,0.01129 0.06773,0.0056 0.104423,0.01693 0.03669,0.0085 0.05644,0.0254 0.01976,0.01693 0.02258,0.03951 0.0056,0.02258 0.0056,0.0508 0,0.0508 -0.03669,0.08467 -0.03387,0.03387 -0.149578,0.03951 z"
       style="font-style:normal;font-variant:normal;font-weight:normal;font-stretch:normal;font-size:2.82223153px;font-family:Sniglet;-inkscape-font-specification:'Sniglet, Normal';font-variant-ligatures:normal;font-variant-caps:normal;font-variant-numeric:normal;font-feature-settings:normal;text-align:start;writing-mode:lr-tb;text-anchor:start;stroke-width:0.26458421"
       id="path1025"
       inkscape:connector-curvature="0" />
  </g>
  <g
     aria-label="IN"
     style="font-style:normal;font-weight:normal;font-size:10.5833683px;line-height:1.25;font-family:sans-serif;letter-spacing:0px;word-spacing:0px;fill:#000000;fill-opacity:1;stroke:none;stroke-width:0.26458421"
     id="text977-4"
     transform="translate(0,-1.5875052)">
    <path
       d="m 19.418882,76.62253 q -0.0056,-0.1016 -0.0085,-0.211667 0,-0.110067 -0.0028,-0.237068 -0.0028,-0.127 -0.0028,-0.273756 0,-0.149579 0,-0.333024 0,-0.200378 0.0028,-0.34149 0.0028,-0.143933 0.01693,-0.234245 0.01411,-0.09031 0.04233,-0.132645 0.03104,-0.04233 0.08184,-0.04233 0.0254,0 0.04798,0.0056 0.02258,0.0056 0.03951,0.0254 0.01693,0.01693 0.02822,0.05362 0.01411,0.03387 0.01693,0.09031 0.0056,0.101601 0.0085,0.180623 0.0028,0.07902 0.0056,0.158045 0.0028,0.0762 0.0028,0.160867 0,0.08185 0,0.186267 0,0.127001 0,0.242712 0,0.115712 -0.0028,0.228601 -0.0028,0.112889 -0.0056,0.228601 -0.0028,0.115711 -0.0085,0.242712 -0.0028,0.06773 -0.01411,0.104422 -0.01129,0.03669 -0.02822,0.05644 -0.01693,0.01976 -0.03951,0.02258 -0.02258,0.0056 -0.0508,0.0056 -0.0508,0 -0.08749,-0.03387 -0.03669,-0.03669 -0.04233,-0.1524 z"
       style="font-style:normal;font-variant:normal;font-weight:normal;font-stretch:normal;font-size:2.82223129px;font-family:Sniglet;-inkscape-font-specification:'Sniglet, Normal';font-variant-ligatures:normal;font-variant-caps:normal;font-variant-numeric:normal;font-feature-settings:normal;text-align:start;writing-mode:lr-tb;text-anchor:start;stroke-width:0.26458421"
       id="path1028"
       inkscape:connector-curvature="0" />
    <path
       d="m 21.183173,76.664863 q -0.09031,-0.124178 -0.172156,-0.245534 -0.07902,-0.124178 -0.172156,-0.270934 -0.09031,-0.146756 -0.208845,-0.324557 -0.115712,-0.180622 -0.279401,-0.420512 0,0.211667 0,0.381001 0,0.166512 -0.0028,0.310446 -0.0028,0.143933 -0.0056,0.270934 -0.0028,0.127 -0.0085,0.254001 -0.0028,0.06773 -0.01411,0.104422 -0.0085,0.03669 -0.0254,0.05644 -0.01693,0.01976 -0.03951,0.02258 -0.01976,0.0056 -0.04798,0.0056 -0.0508,0 -0.08467,-0.03387 -0.03387,-0.03669 -0.03951,-0.1524 -0.01411,-0.310446 -0.01693,-0.620891 0,-0.313268 0,-0.646291 0,-0.189089 0.0028,-0.296334 0.0056,-0.107245 0.01975,-0.160867 0.01693,-0.05362 0.04233,-0.06773 0.02822,-0.01411 0.07338,-0.01411 0.04516,0 0.118534,0.07056 0.07338,0.06773 0.160867,0.180622 0.08749,0.11289 0.186267,0.259646 0.1016,0.146756 0.200378,0.301978 0.09878,0.155223 0.18909,0.307624 0.09313,0.1524 0.169334,0.276578 -0.0028,-0.132645 -0.0028,-0.290689 0,-0.160868 0,-0.355602 0,-0.222956 0.0028,-0.36689 0.0028,-0.146756 0.01411,-0.231423 0.01411,-0.08467 0.04233,-0.118533 0.02822,-0.03387 0.07902,-0.03387 0.04798,0 0.08467,0.03104 0.03669,0.03104 0.04233,0.143934 0.0056,0.101601 0.0085,0.180623 0.0028,0.07902 0.0056,0.158045 0.0028,0.0762 0.0028,0.160867 0,0.08185 0,0.186267 0,0.127001 0,0.242712 0,0.115712 -0.0028,0.228601 -0.0028,0.112889 -0.0056,0.228601 -0.0028,0.115711 -0.0085,0.242712 -0.0028,0.06773 -0.01411,0.104422 -0.0085,0.03669 -0.0254,0.05644 -0.01693,0.01976 -0.03951,0.02258 -0.01976,0.0056 -0.04798,0.0056 -0.04798,0 -0.08185,-0.02822 -0.03387,-0.02822 -0.09878,-0.115712 z"
       style="font-style:normal;font-variant:normal;font-weight:normal;font-stretch:normal;font-size:2.82223129px;font-family:Sniglet;-inkscape-font-specification:'Sniglet, Normal';font-variant-ligatures:normal;font-variant-caps:normal;font-variant-numeric:normal;font-feature-settings:normal;text-align:start;writing-mode:lr-tb;text-anchor:start;stroke-width:0.26458421"
       id="path1030"
       inkscape:connector-curvature="0" />
  </g>
  <g
     aria-label="-"
     style="font-style:normal;font-weight:normal;font-size:10.5833683px;line-height:1.25;font-family:sans-serif;letter-spacing:0px;word-spacing:0px;fill:#000000;fill-opacity:1;stroke:none;stroke-width:0.26458421"
     id="text977-1">
    <path
       d="m 29.529756,56.273538 q -0.129822,0.0056 -0.299156,0.01129 -0.169334,0.0028 -0.400757,0.0028 -0.09596,0 -0.16369,-0.0028 -0.06773,-0.0028 -0.110067,-0.01411 -0.04233,-0.01411 -0.06209,-0.04233 -0.01975,-0.02822 -0.01975,-0.07902 0,-0.0254 0.0056,-0.04515 0.0056,-0.02258 0.0254,-0.03951 0.01976,-0.01693 0.05362,-0.02822 0.03669,-0.01411 0.09313,-0.01976 0.04233,-0.0028 0.07338,-0.0056 0.03387,-0.0028 0.06491,-0.0028 0.03104,-0.0028 0.06491,-0.0028 0.03669,0 0.08467,0 0.1524,0 0.293512,0.0028 0.141111,0 0.293512,0.0085 0.06773,0.0056 0.104423,0.01693 0.03669,0.0085 0.05644,0.0254 0.01976,0.01693 0.02258,0.03951 0.0056,0.02258 0.0056,0.0508 0,0.0508 -0.03669,0.08467 -0.03387,0.03387 -0.149578,0.03951 z"
       style="font-style:normal;font-variant:normal;font-weight:normal;font-stretch:normal;font-size:2.82223129px;font-family:Sniglet;-inkscape-font-specification:'Sniglet, Normal';font-variant-ligatures:normal;font-variant-caps:normal;font-variant-numeric:normal;font-feature-settings:normal;text-align:start;writing-mode:lr-tb;text-anchor:start;stroke-width:0.26458421"
       id="path1015" />
  </g>
  <g
     aria-label="+"
     style="font-style:normal;font-weight:normal;font-size:10.5833683px;line-height:1.25;font-family:sans-serif;letter-spacing:0px;word-spacing:0px;fill:#000000;fill-opacity:1;stroke:none;stroke-width:0.26458421"
     id="text977-5">
    <path
       d="m 50.730588,56.298559 q -0.06491,0.0056 -0.138289,0.0085 -0.07056,0 -0.155223,0.0028 v 0.127 q 0,0.09596 -0.0028,0.163689 -0.0028,0.06773 -0.01693,0.110067 -0.01129,0.04233 -0.03951,0.06209 -0.02822,0.01975 -0.07902,0.01975 -0.0254,0 -0.04798,-0.0056 -0.01976,-0.0056 -0.03669,-0.0254 -0.01693,-0.01976 -0.03104,-0.05362 -0.01129,-0.03669 -0.01693,-0.09313 -0.0028,-0.04233 -0.0056,-0.07338 -0.0028,-0.03387 -0.0056,-0.06773 0,-0.03387 0,-0.07056 0,-0.03951 0,-0.09031 -0.143934,0 -0.237068,-0.0028 -0.09031,-0.0028 -0.146756,-0.01411 -0.05362,-0.01411 -0.0762,-0.04233 -0.01975,-0.02822 -0.01975,-0.07902 0,-0.0254 0.0056,-0.04516 0.0056,-0.02258 0.0254,-0.03951 0.01976,-0.01693 0.05362,-0.02822 0.03669,-0.01411 0.09313,-0.01975 0.04233,-0.0028 0.07338,-0.0056 0.03387,-0.0028 0.06773,-0.0028 0.03387,-0.0028 0.07055,-0.0028 0.03951,0 0.09031,0 0.0028,-0.07338 0.0028,-0.143934 0.0028,-0.07338 0.0085,-0.146756 0.0028,-0.06773 0.01411,-0.104423 0.01129,-0.03669 0.02822,-0.05644 0.01693,-0.01976 0.03951,-0.02258 0.02258,-0.0056 0.0508,-0.0056 0.0508,0 0.08467,0.03669 0.03387,0.03387 0.03951,0.149579 0.0028,0.06491 0.0056,0.138289 0.0028,0.07338 0.0056,0.158045 0.141111,0 0.293512,0.0085 0.06773,0.0056 0.104422,0.01693 0.03669,0.0085 0.05644,0.0254 0.01976,0.01693 0.02258,0.03951 0.0056,0.02258 0.0056,0.0508 0,0.0508 -0.03669,0.08467 -0.03387,0.03387 -0.149578,0.03951 z"
       style="font-style:normal;font-variant:normal;font-weight:normal;font-stretch:normal;font-size:2.82223129px;font-family:Sniglet;-inkscape-font-specification:'Sniglet, Normal';font-variant-ligatures:normal;font-variant-caps:normal;font-variant-numeric:normal;font-feature-settings:normal;text-align:start;writing-mode:lr-tb;text-anchor:start;stroke-width:0.26458421"
       id="path1018" />
  </g>
</svg>
