<?xml version="1.0" encoding="UTF-8" standalone="no"?>
<svg
   xmlns:dc="http://purl.org/dc/elements/1.1/"
   xmlns:cc="http://creativecommons.org/ns#"
   xmlns:rdf="http://www.w3.org/1999/02/22-rdf-syntax-ns#"
   xmlns:svg="http://www.w3.org/2000/svg"
   xmlns="http://www.w3.org/2000/svg"
   xmlns:xlink="http://www.w3.org/1999/xlink"
   xmlns:sodipodi="http://sodipodi.sourceforge.net/DTD/sodipodi-0.dtd"
   xmlns:inkscape="http://www.inkscape.org/namespaces/inkscape"
   width="60"
   height="380"
   viewBox="0 0 15.875 100.542"
   version="1.1"
   id="svg235"
   sodipodi:docname="ClockedExpander_dark.svg"
   inkscape:version="0.92.3 (2405546, 2018-03-11)">
  <metadata
     id="metadata239">
    <rdf:RDF>
      <cc:Work
         rdf:about="">
        <dc:format>image/svg+xml</dc:format>
        <dc:type
           rdf:resource="http://purl.org/dc/dcmitype/StillImage" />
        <dc:title></dc:title>
      </cc:Work>
    </rdf:RDF>
  </metadata>
  <sodipodi:namedview
     pagecolor="#ffffff"
     bordercolor="#666666"
     borderopacity="1"
     objecttolerance="10"
     gridtolerance="10"
     guidetolerance="10"
     inkscape:pageopacity="0"
     inkscape:pageshadow="2"
     inkscape:window-width="1920"
     inkscape:window-height="1017"
     id="namedview237"
     showgrid="false"
     inkscape:zoom="1.5779803"
     inkscape:cx="180"
     inkscape:cy="198.14805"
     inkscape:window-x="-8"
     inkscape:window-y="-8"
     inkscape:window-maximized="1"
     inkscape:current-layer="svg235" />
  <defs
     id="defs23">
    <linearGradient
       id="c">
      <stop
         offset="0"
         id="stop2" />
      <stop
         offset="1"
         stop-color="#fff"
         stop-opacity=".99"
         id="stop4" />
    </linearGradient>
    <linearGradient
       xlink:href="#a"
       id="d"
       x1="26.759001"
       y1="162"
       x2="30.999001"
       y2="162"
       gradientUnits="userSpaceOnUse"
       gradientTransform="matrix(1,0,0,0.56406,0,70.452)" />
    <linearGradient
       id="a">
      <stop
         offset="0"
         stop-color="#fff"
         id="stop8" />
      <stop
         offset="1"
         stop-color="#fff"
         stop-opacity="0"
         id="stop10" />
    </linearGradient>
    <linearGradient
       xlink:href="#b"
       id="e"
       x1="26.759001"
       y1="162"
       x2="30.999001"
       y2="162"
       gradientUnits="userSpaceOnUse"
       gradientTransform="matrix(0.99995,0,0,0.53173,135.453,-112.052)" />
    <linearGradient
       id="b">
      <stop
         offset="0"
         stop-color="#fff"
         stop-opacity=".992"
         id="stop14" />
      <stop
         offset="1"
         stop-color="#fff"
         stop-opacity="0"
         id="stop16" />
    </linearGradient>
    <linearGradient
       xlink:href="#c"
       id="f"
       x1="100.257"
       y1="173.646"
       x2="100.251"
       y2="182.42"
       gradientUnits="userSpaceOnUse"
       gradientTransform="matrix(1.03455,0,0,1.07033,-29.729,-173.893)" />
    <linearGradient
       xlink:href="#c"
       id="g"
       x1="100.257"
       y1="173.646"
       x2="100.251"
       y2="182.42"
       gradientUnits="userSpaceOnUse"
       gradientTransform="matrix(1.03455,0,0,1.07033,-67.843,-144.795)" />
    <linearGradient
       xlink:href="#c"
       id="h"
       x1="100.257"
       y1="173.646"
       x2="100.251"
       y2="182.42"
       gradientUnits="userSpaceOnUse"
       gradientTransform="matrix(1.03455,0,0,1.07033,-67.869,-131.507)" />
    <linearGradient
       xlink:href="#c"
       id="i"
       x1="100.257"
       y1="173.646"
       x2="100.251"
       y2="182.42"
       gradientUnits="userSpaceOnUse"
       gradientTransform="matrix(1.03455,0,0,1.07033,-67.869,-118.309)" />
  </defs>
  <path
     d="M 0,0 H 15.875053 V 100.541 H 0 Z m 0,0"
     id="path25"
     inkscape:connector-curvature="0"
     style="fill:#191919;stroke-width:1" />
  <g
     transform="translate(-26.47,-161.276)"
     id="g167">
    <rect
       width="4.2399998"
       height="0.43900001"
       x="26.759001"
       y="161.61099"
       ry="0.206"
       id="rect163"
       style="fill:url(#d)"
       rx="0.206" />
    <rect
       width="4.2399998"
       height="0.41299999"
       x="162.21001"
       y="-26.118999"
       ry="0.19400001"
       transform="matrix(0.00655,0.99998,-0.99973,0.02317,0,0)"
       id="rect165"
       style="fill:url(#e)"
       rx="0.19400001" />
  </g>
  <g
     style="line-height:1.25"
     id="g179"
     transform="translate(-79.375155)">
    <path
       word-spacing="0"
       letter-spacing="0"
       font-weight="400"
       aria-label="♫"
       font-size="3.528"
       style="font-weight:400;font-size:3.52800012px;font-family:Arial;-inkscape-font-specification:'Arial, Normal';font-variant-ligatures:normal;font-variant-caps:normal;font-variant-numeric:normal;font-feature-settings:normal;text-align:start;letter-spacing:0;word-spacing:0;fill:#969696"
       d="m 88.039,93.893 -1.63,0.115 v -2.06 q 0,-0.23 0.065,-0.333 0.064,-0.104 0.22,-0.147 0.153,-0.043 0.348,-0.002 0.223,0.047 0.356,0.19 0.133,0.146 0.133,0.33 0,0.186 -0.158,0.286 -0.157,0.103 -0.407,0.05 -0.082,-0.018 -0.144,-0.044 -0.063,-0.026 -0.205,-0.11 v 1.345 l 1.22,-0.085 v -1.554 q 0,-0.224 0.065,-0.337 0.065,-0.11 0.225,-0.151 0.16,-0.04 0.349,0 0.223,0.047 0.354,0.19 0.129,0.14 0.129,0.325 0,0.195 -0.156,0.294 -0.155,0.1 -0.407,0.047 -0.16,-0.034 -0.357,-0.16 z"
       id="path177"
       inkscape:connector-curvature="0" />
  </g>
  <g
     style="line-height:1.25"
     id="g183"
     transform="translate(-79.375155)">
    <path
       style="font-weight:400;font-size:3.88100004px;font-family:Sniglet;-inkscape-font-specification:'Sniglet, Normal';font-variant-ligatures:normal;font-variant-caps:normal;font-variant-numeric:normal;font-feature-settings:normal;text-align:start;letter-spacing:0;word-spacing:0;fill:#c8c8c8"
       d="m 83.332,5.947 q 0.128,0 0.256,0.023 0.132,0.02 0.237,0.066 0.104,0.043 0.17,0.11 0.07,0.061 0.07,0.147 0,0.089 -0.046,0.135 -0.047,0.047 -0.117,0.047 -0.066,0 -0.116,-0.02 -0.05,-0.023 -0.117,-0.05 -0.062,-0.027 -0.151,-0.046 -0.09,-0.024 -0.237,-0.024 -0.147,0 -0.283,0.078 -0.132,0.074 -0.233,0.21 -0.097,0.131 -0.155,0.314 -0.058,0.182 -0.058,0.396 0,0.263 0.066,0.454 0.07,0.19 0.178,0.314 0.109,0.12 0.245,0.182 0.14,0.058 0.28,0.058 0.166,0 0.278,-0.034 0.113,-0.035 0.19,-0.078 0.082,-0.043 0.14,-0.078 0.059,-0.035 0.113,-0.035 0.066,0 0.105,0.04 0.038,0.034 0.038,0.127 0,0.078 -0.062,0.16 Q 84.065,8.52 83.949,8.586 83.836,8.648 83.677,8.691 83.518,8.73 83.32,8.73 83.103,8.73 82.885,8.644 82.672,8.559 82.501,8.392 82.334,8.222 82.23,7.969 82.125,7.713 82.125,7.375 q 0,-0.337 0.093,-0.601 0.097,-0.264 0.26,-0.447 0.167,-0.186 0.384,-0.283 0.221,-0.097 0.47,-0.097 z m 1.585,1.665 v 0.221 q 0,0.093 -0.004,0.179 0,0.085 -0.003,0.17 l -0.008,0.19 q 0.267,-0.03 0.419,-0.05 l 0.237,-0.031 q 0.089,-0.012 0.135,-0.015 0.05,-0.004 0.117,-0.004 0.17,0 0.17,0.166 0,0.066 -0.07,0.113 -0.065,0.047 -0.17,0.081 -0.101,0.031 -0.229,0.055 -0.124,0.02 -0.244,0.027 -0.117,0.012 -0.214,0.015 -0.093,0.004 -0.132,0.004 -0.14,0 -0.217,-0.019 Q 84.626,8.699 84.587,8.614 84.549,8.524 84.537,8.345 84.529,8.167 84.529,7.841 V 7.282 q 0,-0.244 0.004,-0.438 0.004,-0.194 0.004,-0.346 0.004,-0.151 0.012,-0.275 0.007,-0.16 0.054,-0.206 0.047,-0.05 0.116,-0.05 0.04,0 0.066,0.008 0.031,0.004 0.055,0.03 0.023,0.028 0.035,0.078 0.015,0.05 0.019,0.144 0.015,0.341 0.02,0.675 0.003,0.334 0.003,0.71 z m 1.39,0.842 Q 86.299,8.314 86.295,8.163 86.295,8.012 86.292,7.837 86.288,7.662 86.288,7.461 V 7.003 q 0,-0.276 0.004,-0.47 0.003,-0.198 0.019,-0.322 0.02,-0.124 0.058,-0.182 0.039,-0.059 0.109,-0.059 0.066,0 0.116,0.043 0.05,0.043 0.058,0.198 0.008,0.14 0.012,0.248 l 0.008,0.218 q 0.004,0.105 0.004,0.221 v 0.458 l 0.83,-0.95 q 0.163,-0.187 0.252,-0.245 0.09,-0.062 0.156,-0.062 0.077,0 0.112,0.038 0.039,0.04 0.039,0.097 0,0.024 -0.008,0.047 -0.008,0.023 -0.035,0.066 -0.023,0.039 -0.073,0.1 -0.05,0.059 -0.136,0.152 l -0.54,0.586 0.85,1.21 q 0.031,0.044 0.047,0.09 0.02,0.047 0.02,0.09 0,0.073 -0.044,0.12 -0.038,0.05 -0.14,0.05 -0.08,0 -0.147,-0.047 Q 87.797,8.656 87.743,8.57 L 87.006,7.48 86.672,7.845 86.664,8.14 q -0.004,0.147 -0.012,0.31 -0.004,0.093 -0.019,0.144 -0.012,0.05 -0.035,0.077 -0.023,0.027 -0.054,0.031 -0.027,0.008 -0.066,0.008 -0.07,0 -0.117,-0.046 -0.046,-0.05 -0.054,-0.21 z m 3.49,-0.73 Q 89.618,7.732 89.386,7.74 89.153,7.744 88.835,7.744 88.703,7.744 88.609,7.74 88.516,7.736 88.459,7.72 88.399,7.701 88.373,7.662 88.346,7.624 88.346,7.554 q 0,-0.035 0.007,-0.062 0.008,-0.031 0.035,-0.055 0.027,-0.023 0.074,-0.038 0.05,-0.02 0.128,-0.028 l 0.101,-0.008 q 0.047,-0.004 0.09,-0.004 0.042,-0.004 0.088,-0.004 h 0.117 q 0.21,0 0.403,0.004 0.195,0 0.404,0.012 0.093,0.008 0.144,0.023 0.05,0.012 0.077,0.035 0.027,0.023 0.031,0.054 0.008,0.031 0.008,0.07 0,0.07 -0.05,0.117 -0.047,0.046 -0.206,0.054 z m 1.476,-0.05 -0.578,0.896 q -0.054,0.086 -0.12,0.129 -0.062,0.046 -0.144,0.046 -0.1,0 -0.143,-0.05 -0.04,-0.047 -0.04,-0.12 0,-0.043 0.016,-0.09 0.02,-0.046 0.05,-0.09 L 91.037,7.364 90.315,6.331 Q 90.284,6.289 90.265,6.242 90.249,6.196 90.249,6.153 q 0,-0.074 0.039,-0.12 0.042,-0.05 0.143,-0.05 0.082,0 0.144,0.046 0.066,0.042 0.12,0.128 l 0.578,0.896 0.579,-0.896 q 0.054,-0.086 0.116,-0.128 0.066,-0.047 0.147,-0.047 0.101,0 0.14,0.05 0.043,0.047 0.043,0.121 0,0.043 -0.02,0.09 -0.015,0.046 -0.046,0.088 l -0.722,1.033 0.722,1.032 q 0.03,0.043 0.046,0.09 0.02,0.046 0.02,0.088 0,0.074 -0.043,0.12 -0.039,0.051 -0.14,0.051 -0.081,0 -0.147,-0.046 Q 91.906,8.656 91.852,8.57 Z"
       word-spacing="0"
       letter-spacing="0"
       font-size="3.881"
       font-weight="400"
       aria-label="CLK-X"
       id="path181"
       inkscape:connector-curvature="0" />
  </g>
  <rect
     rx="0.99000001"
     ry="0.99000001"
     y="11.648"
     x="4.2588472"
     height="3.043"
     width="7.1960001"
     id="rect191"
     style="fill:#3e3e3e;stroke:#c8c8c8;stroke-width:0.132;paint-order:stroke markers fill" />
  <rect
     rx="0.99000001"
     ry="0.99000001"
     y="38.105999"
     x="3.4658482"
     height="3.043"
     width="8.7469997"
     id="rect193"
     style="fill:#3e3e3e;stroke:#c8c8c8;stroke-width:0.132;paint-order:stroke markers fill" />
  <g
     style="line-height:1.25"
     id="g197"
     transform="translate(-79.375155)">
    <path
       style="font-weight:400;font-size:2.82200003px;font-family:Sniglet;-inkscape-font-specification:'Sniglet, Normal';font-variant-ligatures:normal;font-variant-caps:normal;font-variant-numeric:normal;font-feature-settings:normal;text-align:start;letter-spacing:0;word-spacing:0;fill:#ffffff"
       d="m 84.656,40.43 q 0,0.067 -0.014,0.104 -0.012,0.037 -0.031,0.056 -0.017,0.02 -0.043,0.023 -0.022,0.006 -0.045,0.006 -0.076,0 -0.101,-0.034 -0.023,-0.034 -0.031,-0.152 -0.006,-0.062 -0.009,-0.18 L 84.376,39.97 84.374,39.609 v -0.418 q 0,-0.104 0.025,-0.212 0.025,-0.107 0.096,-0.194 0.073,-0.088 0.2,-0.142 0.13,-0.053 0.336,-0.053 0.144,0 0.274,0.03 0.13,0.032 0.229,0.108 0.098,0.076 0.158,0.203 0.059,0.127 0.059,0.316 0,0.198 -0.065,0.328 -0.065,0.13 -0.183,0.206 -0.119,0.076 -0.283,0.107 -0.163,0.03 -0.358,0.03 h -0.096 q -0.048,0 -0.107,-0.005 z m 0.813,-1.19 q 0,-0.188 -0.108,-0.284 -0.104,-0.096 -0.35,-0.096 -0.093,0 -0.16,0.017 -0.065,0.014 -0.108,0.054 -0.042,0.037 -0.065,0.102 -0.02,0.064 -0.02,0.163 v 0.22 q 0,0.122 0.003,0.229 0.065,0.003 0.144,0.003 h 0.153 q 0.084,0 0.175,-0.011 0.093,-0.012 0.166,-0.051 0.074,-0.042 0.122,-0.122 0.048,-0.081 0.048,-0.222 z m 1.282,-0.072 q 0.017,-0.04 0.05,-0.065 0.037,-0.025 0.077,-0.025 0.037,0 0.07,0.025 0.034,0.023 0.054,0.062 0.107,0.22 0.212,0.477 0.104,0.254 0.189,0.483 0.048,-0.35 0.104,-0.706 0.057,-0.355 0.127,-0.68 0.009,-0.037 0.026,-0.06 0.017,-0.025 0.036,-0.036 0.02,-0.014 0.04,-0.02 0.022,-0.006 0.037,-0.006 0.048,0 0.079,0.029 0.03,0.025 0.03,0.07 0,0.05 -0.016,0.18 -0.017,0.128 -0.045,0.3 -0.029,0.17 -0.065,0.36 -0.034,0.193 -0.068,0.37 -0.034,0.179 -0.065,0.325 -0.031,0.147 -0.05,0.223 -0.018,0.065 -0.052,0.1 -0.033,0.03 -0.098,0.03 -0.068,0 -0.116,-0.06 -0.045,-0.061 -0.102,-0.191 -0.053,-0.13 -0.13,-0.33 -0.076,-0.203 -0.197,-0.486 -0.124,0.283 -0.203,0.486 -0.076,0.203 -0.133,0.333 -0.054,0.13 -0.101,0.192 -0.048,0.059 -0.113,0.059 -0.113,0 -0.15,-0.13 -0.023,-0.076 -0.054,-0.22 -0.03,-0.147 -0.064,-0.325 l -0.065,-0.366 q -0.034,-0.192 -0.06,-0.362 l -0.042,-0.296 q -0.014,-0.13 -0.014,-0.18 0,-0.05 0.03,-0.08 0.032,-0.03 0.088,-0.03 0.04,0 0.077,0.025 0.036,0.022 0.053,0.096 0.068,0.324 0.119,0.68 0.053,0.356 0.113,0.706 0.087,-0.207 0.175,-0.438 0.087,-0.231 0.217,-0.52 z m 2.548,-0.265 q -0.102,0 -0.17,0.022 -0.067,0.02 -0.113,0.054 -0.045,0.034 -0.073,0.07 l -0.05,0.07 q -0.023,0.035 -0.051,0.058 -0.026,0.02 -0.065,0.02 -0.068,0 -0.096,-0.035 -0.026,-0.036 -0.026,-0.096 0,-0.124 0.093,-0.23 0.029,-0.035 0.077,-0.071 0.05,-0.04 0.118,-0.071 0.07,-0.031 0.161,-0.05 0.093,-0.023 0.209,-0.023 0.307,0 0.477,0.15 0.17,0.149 0.17,0.42 0,0.053 -0.012,0.118 -0.009,0.065 -0.037,0.136 -0.025,0.07 -0.073,0.146 -0.048,0.077 -0.127,0.156 -0.07,0.07 -0.15,0.13 -0.079,0.059 -0.164,0.118 l -0.177,0.127 q -0.09,0.065 -0.184,0.15 0.09,0.048 0.195,0.062 0.104,0.014 0.234,0.014 0.122,0 0.195,-0.006 0.073,-0.006 0.118,-0.014 0.046,-0.008 0.071,-0.014 0.025,-0.006 0.054,-0.006 0.104,0 0.104,0.096 0,0.084 -0.07,0.13 -0.071,0.044 -0.17,0.067 -0.099,0.02 -0.203,0.023 -0.104,0.006 -0.172,0.006 -0.037,0 -0.105,-0.006 -0.064,-0.003 -0.14,-0.014 -0.077,-0.012 -0.156,-0.032 -0.076,-0.022 -0.141,-0.056 -0.062,-0.037 -0.102,-0.087 -0.04,-0.054 -0.04,-0.127 0,-0.1 0.071,-0.187 0.074,-0.09 0.181,-0.175 0.107,-0.087 0.231,-0.172 0.125,-0.087 0.232,-0.178 0.107,-0.093 0.178,-0.192 0.073,-0.098 0.073,-0.214 0,-0.144 -0.099,-0.214 -0.096,-0.074 -0.276,-0.074 z"
       word-spacing="0"
       letter-spacing="0"
       font-size="2.822"
       font-weight="400"
       aria-label="PW 2"
       id="path195"
       inkscape:connector-curvature="0" />
  </g>
  <rect
     rx="0.99000001"
     ry="0.99000001"
     y="51.334999"
     x="2.6268437"
     height="3.043"
     width="10.406"
     id="rect199"
     style="fill:#3e3e3e;stroke:#c8c8c8;stroke-width:0.132;paint-order:stroke markers fill" />
  <g
     style="line-height:1.25"
     id="g203"
     transform="translate(-79.375155)">
    <path
       style="font-weight:400;font-size:2.82200003px;font-family:Sniglet;-inkscape-font-specification:'Sniglet, Normal';font-variant-ligatures:normal;font-variant-caps:normal;font-variant-numeric:normal;font-feature-settings:normal;text-align:start;letter-spacing:0;word-spacing:0;fill:#ffffff"
       d="m 84.058,51.844 q 0.08,0 0.18,0.014 0.105,0.01 0.196,0.045 0.09,0.03 0.152,0.085 0.062,0.05 0.062,0.127 0,0.045 -0.025,0.076 -0.026,0.03 -0.082,0.03 -0.042,0 -0.088,-0.016 -0.042,-0.017 -0.098,-0.034 -0.054,-0.02 -0.127,-0.036 -0.07,-0.017 -0.167,-0.017 -0.186,0 -0.276,0.067 -0.088,0.065 -0.088,0.18 0,0.08 0.04,0.134 0.04,0.053 0.104,0.093 0.068,0.036 0.15,0.062 0.084,0.025 0.172,0.048 0.099,0.025 0.194,0.062 0.1,0.037 0.175,0.096 0.077,0.06 0.122,0.15 0.048,0.09 0.048,0.228 0,0.144 -0.054,0.26 -0.053,0.113 -0.147,0.195 -0.093,0.08 -0.223,0.124 -0.13,0.042 -0.282,0.042 -0.084,0 -0.197,-0.017 -0.113,-0.014 -0.215,-0.05 -0.101,-0.04 -0.172,-0.102 -0.07,-0.065 -0.07,-0.158 0,-0.057 0.028,-0.09 0.03,-0.035 0.09,-0.035 0.048,0 0.079,0.02 0.031,0.017 0.054,0.04 0.084,0.073 0.192,0.098 0.107,0.026 0.22,0.026 0.065,0 0.135,-0.008 0.074,-0.01 0.133,-0.042 0.06,-0.03 0.099,-0.088 0.04,-0.06 0.04,-0.158 0,-0.09 -0.038,-0.147 -0.033,-0.06 -0.093,-0.1 -0.059,-0.038 -0.14,-0.063 -0.08,-0.026 -0.173,-0.05 -0.104,-0.03 -0.206,-0.063 -0.102,-0.034 -0.18,-0.09 -0.08,-0.06 -0.13,-0.147 -0.048,-0.09 -0.048,-0.23 0,-0.137 0.05,-0.242 0.051,-0.104 0.139,-0.175 0.087,-0.07 0.206,-0.107 0.121,-0.037 0.26,-0.037 z m 1.728,0.553 q 0.017,-0.04 0.05,-0.065 0.037,-0.025 0.077,-0.025 0.036,0 0.07,0.025 0.034,0.023 0.054,0.062 0.107,0.22 0.211,0.477 0.105,0.254 0.19,0.483 0.048,-0.35 0.104,-0.706 0.056,-0.355 0.127,-0.68 0.008,-0.037 0.025,-0.06 0.017,-0.025 0.037,-0.036 0.02,-0.014 0.04,-0.02 0.022,-0.006 0.036,-0.006 0.048,0 0.08,0.03 0.03,0.024 0.03,0.07 0,0.05 -0.017,0.18 -0.017,0.127 -0.045,0.3 -0.028,0.17 -0.065,0.36 l -0.067,0.37 q -0.034,0.178 -0.065,0.324 -0.031,0.147 -0.051,0.223 -0.017,0.065 -0.05,0.1 -0.035,0.03 -0.1,0.03 -0.067,0 -0.115,-0.06 -0.046,-0.06 -0.102,-0.19 -0.054,-0.13 -0.13,-0.33 -0.076,-0.204 -0.197,-0.487 -0.125,0.283 -0.204,0.486 -0.076,0.203 -0.132,0.333 -0.054,0.13 -0.102,0.192 -0.048,0.06 -0.113,0.06 -0.113,0 -0.15,-0.13 -0.022,-0.077 -0.053,-0.22 -0.031,-0.148 -0.065,-0.326 -0.03,-0.177 -0.065,-0.366 -0.034,-0.192 -0.059,-0.362 l -0.042,-0.296 q -0.014,-0.13 -0.014,-0.18 0,-0.05 0.03,-0.08 0.032,-0.03 0.088,-0.03 0.04,0 0.076,0.025 0.037,0.022 0.054,0.096 0.068,0.324 0.118,0.68 0.054,0.356 0.113,0.706 0.088,-0.207 0.175,-0.438 0.088,-0.23 0.218,-0.52 z m 1.413,1.265 Q 87.193,53.56 87.19,53.45 l -0.002,-0.237 q -0.003,-0.127 -0.003,-0.274 v -0.333 q 0,-0.2 0.003,-0.342 0.002,-0.143 0.017,-0.234 0.014,-0.09 0.042,-0.132 0.03,-0.043 0.082,-0.043 0.025,0 0.048,0.006 0.022,0.006 0.04,0.026 0.016,0.017 0.027,0.053 0.015,0.034 0.017,0.09 l 0.009,0.18 0.005,0.159 q 0.003,0.076 0.003,0.16 v 0.43 q 0,0.116 -0.003,0.229 l -0.005,0.228 q -0.003,0.116 -0.009,0.243 -0.002,0.068 -0.014,0.104 -0.011,0.037 -0.028,0.057 -0.017,0.02 -0.04,0.022 -0.022,0.006 -0.05,0.006 -0.051,0 -0.088,-0.033 -0.036,-0.037 -0.042,-0.153 z m 1.764,0.042 q -0.09,-0.124 -0.172,-0.246 l -0.172,-0.27 q -0.09,-0.147 -0.209,-0.325 -0.116,-0.18 -0.28,-0.42 v 0.38 q 0,0.167 -0.002,0.31 l -0.006,0.272 -0.008,0.254 q -0.003,0.067 -0.014,0.104 -0.009,0.037 -0.026,0.056 -0.017,0.02 -0.04,0.023 -0.02,0.006 -0.047,0.006 -0.051,0 -0.085,-0.034 -0.034,-0.037 -0.04,-0.152 -0.014,-0.31 -0.016,-0.62 v -0.647 q 0,-0.19 0.002,-0.297 0.006,-0.107 0.02,-0.16 0.017,-0.054 0.042,-0.068 0.029,-0.014 0.074,-0.014 0.045,0 0.118,0.07 0.074,0.068 0.161,0.18 0.088,0.114 0.187,0.26 0.101,0.147 0.2,0.302 0.099,0.156 0.189,0.308 l 0.17,0.277 q -0.003,-0.133 -0.003,-0.29 v -0.357 q 0,-0.223 0.002,-0.367 0.003,-0.146 0.014,-0.23 0.015,-0.086 0.043,-0.12 0.028,-0.034 0.079,-0.034 0.048,0 0.084,0.03 0.037,0.032 0.043,0.145 l 0.008,0.18 0.006,0.159 q 0.003,0.076 0.003,0.16 v 0.43 q 0,0.116 -0.003,0.23 l -0.006,0.227 q -0.002,0.116 -0.008,0.243 -0.003,0.068 -0.014,0.104 -0.009,0.037 -0.026,0.057 -0.017,0.02 -0.04,0.022 -0.019,0.006 -0.047,0.006 -0.048,0 -0.082,-0.028 -0.034,-0.028 -0.099,-0.116 z m 1.524,-1.866 q 0.093,0 0.192,0.017 0.098,0.017 0.18,0.05 0.082,0.032 0.136,0.08 0.053,0.048 0.053,0.11 0,0.065 -0.033,0.099 -0.034,0.034 -0.085,0.034 -0.048,0 -0.09,-0.017 l -0.09,-0.037 q -0.052,-0.02 -0.122,-0.037 -0.07,-0.016 -0.178,-0.016 -0.118,0 -0.223,0.056 -0.101,0.054 -0.18,0.152 -0.08,0.096 -0.125,0.23 -0.045,0.132 -0.045,0.287 0,0.19 0.048,0.327 0.048,0.138 0.124,0.23 0.08,0.09 0.175,0.134 0.1,0.043 0.198,0.043 0.16,0 0.254,-0.046 0.096,-0.048 0.152,-0.12 0.003,-0.06 0.003,-0.142 v -0.178 q 0,-0.037 -0.006,-0.056 -0.005,-0.023 -0.028,-0.034 -0.022,-0.01 -0.067,-0.014 -0.043,-0.003 -0.116,-0.003 -0.09,0 -0.147,-0.023 -0.056,-0.025 -0.056,-0.104 0,-0.057 0.028,-0.09 0.03,-0.037 0.124,-0.043 h 0.054 q 0.04,-0.003 0.081,-0.003 h 0.156 q 0.084,0 0.135,0.017 0.05,0.014 0.09,0.068 0.02,0.028 0.023,0.1 0.006,0.07 0.006,0.162 v 0.728 q 0,0.077 -0.043,0.113 -0.04,0.037 -0.093,0.037 -0.065,0 -0.107,-0.034 -0.04,-0.03 -0.04,-0.102 v -0.11 q -0.073,0.085 -0.175,0.122 -0.098,0.036 -0.25,0.036 -0.156,0 -0.306,-0.062 -0.15,-0.062 -0.265,-0.183 -0.116,-0.124 -0.189,-0.308 -0.07,-0.186 -0.07,-0.43 0,-0.247 0.07,-0.44 0.073,-0.191 0.198,-0.323 0.124,-0.136 0.29,-0.207 0.167,-0.07 0.359,-0.07 z"
       word-spacing="0"
       letter-spacing="0"
       font-size="2.822"
       font-weight="400"
       aria-label="SWING"
       id="path201"
       inkscape:connector-curvature="0" />
  </g>
  <rect
     rx="0.99000001"
     ry="0.99000001"
     y="64.564003"
     x="1.9288455"
     height="3.043"
     width="11.746"
     id="rect205"
     style="fill:#3e3e3e;stroke:#c8c8c8;stroke-width:0.132;paint-order:stroke markers fill" />
  <g
     style="line-height:1.25"
     id="g209"
     transform="translate(-79.375155)">
    <path
       style="font-weight:400;font-size:2.82200003px;font-family:Sniglet;-inkscape-font-specification:'Sniglet, Normal';font-variant-ligatures:normal;font-variant-caps:normal;font-variant-numeric:normal;font-feature-settings:normal;text-align:start;letter-spacing:0;word-spacing:0;fill:#ffffff"
       d="m 83.278,65.073 q 0.079,0 0.18,0.014 0.105,0.01 0.195,0.045 0.09,0.03 0.153,0.085 0.062,0.05 0.062,0.127 0,0.045 -0.026,0.076 -0.025,0.03 -0.081,0.03 -0.043,0 -0.088,-0.016 -0.042,-0.017 -0.099,-0.034 -0.053,-0.02 -0.127,-0.036 -0.07,-0.017 -0.166,-0.017 -0.186,0 -0.277,0.067 -0.087,0.065 -0.087,0.18 0,0.08 0.04,0.134 0.039,0.053 0.104,0.093 0.067,0.036 0.15,0.062 0.084,0.025 0.171,0.048 0.1,0.025 0.195,0.062 0.099,0.037 0.175,0.096 0.076,0.06 0.121,0.15 0.048,0.09 0.048,0.228 0,0.144 -0.053,0.26 -0.054,0.113 -0.147,0.195 -0.093,0.08 -0.223,0.124 -0.13,0.042 -0.282,0.042 -0.085,0 -0.198,-0.017 -0.113,-0.014 -0.214,-0.05 -0.102,-0.04 -0.172,-0.102 -0.07,-0.065 -0.07,-0.158 0,-0.057 0.027,-0.09 0.031,-0.035 0.09,-0.035 0.049,0 0.08,0.02 0.03,0.017 0.053,0.04 0.085,0.073 0.192,0.098 0.107,0.026 0.22,0.026 0.065,0 0.136,-0.008 0.073,-0.01 0.132,-0.042 0.06,-0.03 0.1,-0.088 0.039,-0.06 0.039,-0.158 0,-0.09 -0.037,-0.147 -0.034,-0.06 -0.093,-0.1 -0.06,-0.038 -0.141,-0.063 -0.08,-0.026 -0.172,-0.05 -0.105,-0.03 -0.206,-0.063 -0.102,-0.034 -0.18,-0.09 -0.08,-0.06 -0.13,-0.147 -0.049,-0.09 -0.049,-0.23 0,-0.137 0.051,-0.242 0.05,-0.104 0.138,-0.175 0.088,-0.07 0.206,-0.107 0.122,-0.037 0.26,-0.037 z m 1.727,0.553 q 0.017,-0.04 0.051,-0.065 0.037,-0.025 0.076,-0.025 0.037,0 0.07,0.025 0.035,0.023 0.054,0.062 0.108,0.22 0.212,0.477 0.105,0.254 0.19,0.483 0.047,-0.35 0.104,-0.706 0.056,-0.355 0.127,-0.68 0.008,-0.037 0.025,-0.06 0.017,-0.025 0.037,-0.036 0.02,-0.014 0.04,-0.02 0.022,-0.006 0.036,-0.006 0.048,0 0.079,0.03 0.031,0.024 0.031,0.07 0,0.05 -0.017,0.18 -0.017,0.127 -0.045,0.3 -0.028,0.17 -0.065,0.36 -0.034,0.192 -0.068,0.37 -0.034,0.178 -0.065,0.324 -0.03,0.147 -0.05,0.223 -0.017,0.065 -0.051,0.1 -0.034,0.03 -0.099,0.03 -0.068,0 -0.116,-0.06 -0.045,-0.06 -0.101,-0.19 -0.054,-0.13 -0.13,-0.33 -0.076,-0.204 -0.198,-0.487 -0.124,0.283 -0.203,0.486 -0.076,0.203 -0.133,0.333 -0.053,0.13 -0.101,0.192 -0.048,0.06 -0.113,0.06 -0.113,0 -0.15,-0.13 -0.022,-0.077 -0.053,-0.22 -0.031,-0.148 -0.065,-0.326 l -0.065,-0.366 q -0.034,-0.192 -0.06,-0.362 l -0.042,-0.296 q -0.014,-0.13 -0.014,-0.18 0,-0.05 0.031,-0.08 0.031,-0.03 0.088,-0.03 0.04,0 0.076,0.025 0.037,0.022 0.054,0.096 0.067,0.324 0.118,0.68 0.054,0.356 0.113,0.706 0.087,-0.207 0.175,-0.438 0.087,-0.23 0.217,-0.52 z m 1.414,1.264 q -0.006,-0.1 -0.009,-0.21 0,-0.11 -0.003,-0.238 -0.003,-0.127 -0.003,-0.274 v -0.333 q 0,-0.2 0.003,-0.342 0.003,-0.143 0.017,-0.234 0.014,-0.09 0.043,-0.132 0.03,-0.043 0.081,-0.043 0.026,0 0.048,0.006 0.023,0.006 0.04,0.026 0.017,0.017 0.028,0.053 0.014,0.034 0.017,0.09 l 0.009,0.18 0.005,0.159 q 0.003,0.076 0.003,0.16 v 0.43 q 0,0.116 -0.003,0.229 l -0.005,0.228 q -0.003,0.116 -0.009,0.243 -0.003,0.068 -0.014,0.104 -0.011,0.037 -0.028,0.057 -0.017,0.02 -0.04,0.022 -0.022,0.006 -0.05,0.006 -0.051,0 -0.088,-0.033 -0.037,-0.037 -0.042,-0.153 z m 1.764,0.043 q -0.09,-0.124 -0.172,-0.246 l -0.172,-0.27 q -0.09,-0.147 -0.21,-0.325 -0.115,-0.18 -0.279,-0.42 v 0.38 q 0,0.167 -0.003,0.31 l -0.005,0.272 q -0.003,0.127 -0.009,0.254 -0.002,0.067 -0.014,0.104 -0.008,0.037 -0.025,0.056 -0.017,0.02 -0.04,0.023 -0.02,0.006 -0.048,0.006 -0.05,0 -0.084,-0.034 -0.034,-0.037 -0.04,-0.152 -0.014,-0.31 -0.017,-0.62 v -0.647 q 0,-0.19 0.003,-0.297 0.006,-0.107 0.02,-0.16 0.017,-0.054 0.042,-0.068 0.028,-0.014 0.074,-0.014 0.045,0 0.118,0.07 0.073,0.068 0.161,0.18 0.087,0.114 0.186,0.26 0.102,0.147 0.2,0.302 0.1,0.156 0.19,0.308 l 0.169,0.277 q -0.003,-0.133 -0.003,-0.29 v -0.357 q 0,-0.223 0.003,-0.367 0.003,-0.146 0.014,-0.23 0.014,-0.086 0.042,-0.12 0.029,-0.034 0.08,-0.034 0.047,0 0.084,0.03 0.037,0.032 0.042,0.145 l 0.009,0.18 0.006,0.159 q 0.002,0.076 0.002,0.16 v 0.43 q 0,0.116 -0.002,0.23 l -0.006,0.227 q -0.003,0.116 -0.009,0.243 -0.002,0.068 -0.014,0.104 -0.008,0.037 -0.025,0.057 -0.017,0.02 -0.04,0.022 -0.02,0.006 -0.048,0.006 -0.047,0 -0.081,-0.028 -0.034,-0.028 -0.1,-0.116 z m 1.523,-1.866 q 0.094,0 0.192,0.017 0.1,0.017 0.181,0.05 0.082,0.032 0.135,0.08 0.054,0.048 0.054,0.11 0,0.065 -0.034,0.099 -0.034,0.034 -0.084,0.034 -0.048,0 -0.09,-0.017 l -0.091,-0.037 q -0.05,-0.02 -0.121,-0.037 -0.071,-0.016 -0.178,-0.016 -0.119,0 -0.223,0.056 -0.102,0.054 -0.18,0.152 -0.08,0.096 -0.125,0.23 -0.045,0.132 -0.045,0.287 0,0.19 0.048,0.327 0.048,0.138 0.124,0.23 0.079,0.09 0.175,0.134 0.099,0.043 0.198,0.043 0.16,0 0.254,-0.046 0.095,-0.048 0.152,-0.12 0.003,-0.06 0.003,-0.142 v -0.178 q 0,-0.037 -0.006,-0.056 -0.005,-0.023 -0.028,-0.034 -0.023,-0.01 -0.068,-0.014 -0.042,-0.003 -0.116,-0.003 -0.09,0 -0.146,-0.023 -0.057,-0.025 -0.057,-0.104 0,-0.057 0.028,-0.09 0.032,-0.037 0.125,-0.043 h 0.053 q 0.04,-0.003 0.082,-0.003 h 0.155 q 0.085,0 0.136,0.017 0.05,0.014 0.09,0.068 0.02,0.028 0.023,0.1 0.005,0.07 0.005,0.162 v 0.728 q 0,0.077 -0.042,0.113 -0.04,0.037 -0.093,0.037 -0.065,0 -0.107,-0.034 -0.04,-0.03 -0.04,-0.102 v -0.11 q -0.073,0.085 -0.175,0.122 -0.099,0.036 -0.251,0.036 -0.155,0 -0.305,-0.062 -0.15,-0.062 -0.265,-0.183 -0.116,-0.124 -0.19,-0.308 -0.07,-0.186 -0.07,-0.43 0,-0.247 0.07,-0.44 0.074,-0.191 0.198,-0.323 0.124,-0.136 0.291,-0.207 0.167,-0.07 0.358,-0.07 z m 1.899,1.823 q -0.005,-0.1 -0.008,-0.21 0,-0.11 -0.003,-0.238 -0.003,-0.127 -0.003,-0.274 v -0.686 l -0.17,0.088 q -0.07,0.045 -0.112,0.053 -0.04,0.008 -0.088,0.008 -0.042,0 -0.076,-0.036 -0.03,-0.037 -0.03,-0.088 0,-0.05 0.033,-0.087 0.037,-0.04 0.085,-0.07 0.062,-0.043 0.132,-0.086 0.074,-0.042 0.141,-0.076 0.068,-0.037 0.125,-0.056 0.059,-0.023 0.098,-0.023 0.02,0 0.04,0.006 0.022,0.006 0.04,0.023 0.02,0.017 0.03,0.053 0.014,0.034 0.017,0.093 l 0.009,0.178 0.005,0.15 q 0.003,0.07 0.003,0.15 v 0.425 q 0,0.116 -0.003,0.23 l -0.005,0.228 q -0.003,0.115 -0.009,0.242 -0.003,0.068 -0.014,0.105 -0.008,0.037 -0.025,0.056 -0.017,0.02 -0.04,0.023 -0.02,0.006 -0.048,0.006 -0.05,0 -0.084,-0.034 -0.034,-0.037 -0.04,-0.152 z"
       word-spacing="0"
       letter-spacing="0"
       font-size="2.822"
       font-weight="400"
       aria-label="SWING 1"
       id="path207"
       inkscape:connector-curvature="0" />
  </g>
  <rect
     rx="0.99000001"
     ry="0.99000001"
     y="77.793999"
     x="1.7168475"
     height="3.043"
     width="12.256"
     id="rect211"
     style="fill:#3e3e3e;stroke:#c8c8c8;stroke-width:0.132;paint-order:stroke markers fill" />
  <g
     style="line-height:1.25"
     id="g215"
     transform="translate(-79.375155)">
    <path
       style="font-weight:400;font-size:2.82200003px;font-family:Sniglet;-inkscape-font-specification:'Sniglet, Normal';font-variant-ligatures:normal;font-variant-caps:normal;font-variant-numeric:normal;font-feature-settings:normal;text-align:start;letter-spacing:0;word-spacing:0;fill:#ffffff"
       d="m 82.938,78.303 q 0.079,0 0.18,0.014 0.105,0.01 0.195,0.045 0.09,0.03 0.153,0.085 0.062,0.05 0.062,0.127 0,0.045 -0.026,0.076 -0.025,0.03 -0.082,0.03 -0.042,0 -0.087,-0.016 -0.042,-0.017 -0.099,-0.034 -0.053,-0.02 -0.127,-0.036 -0.07,-0.017 -0.166,-0.017 -0.187,0 -0.277,0.067 -0.087,0.065 -0.087,0.18 0,0.08 0.04,0.134 0.039,0.053 0.104,0.093 0.067,0.036 0.15,0.062 0.084,0.025 0.171,0.048 0.1,0.025 0.195,0.062 0.099,0.037 0.175,0.096 0.076,0.06 0.121,0.15 0.048,0.09 0.048,0.228 0,0.144 -0.053,0.26 -0.054,0.113 -0.147,0.195 -0.093,0.079 -0.223,0.124 -0.13,0.042 -0.282,0.042 -0.085,0 -0.198,-0.017 -0.113,-0.014 -0.214,-0.05 -0.102,-0.04 -0.172,-0.102 -0.071,-0.065 -0.071,-0.158 0,-0.057 0.028,-0.09 0.031,-0.035 0.09,-0.035 0.049,0 0.08,0.02 0.03,0.017 0.053,0.04 0.085,0.073 0.192,0.098 0.107,0.026 0.22,0.026 0.065,0 0.136,-0.008 0.073,-0.011 0.132,-0.042 0.06,-0.031 0.1,-0.088 0.039,-0.06 0.039,-0.158 0,-0.09 -0.037,-0.147 -0.034,-0.06 -0.093,-0.1 -0.06,-0.038 -0.141,-0.063 -0.08,-0.026 -0.172,-0.051 -0.105,-0.028 -0.206,-0.062 -0.102,-0.034 -0.181,-0.09 -0.08,-0.06 -0.13,-0.147 -0.048,-0.09 -0.048,-0.23 0,-0.137 0.05,-0.242 0.052,-0.104 0.14,-0.175 0.087,-0.07 0.205,-0.107 0.122,-0.037 0.26,-0.037 z m 1.727,0.553 q 0.017,-0.04 0.051,-0.065 0.037,-0.025 0.076,-0.025 0.037,0 0.07,0.025 0.035,0.023 0.054,0.062 0.108,0.22 0.212,0.477 0.104,0.254 0.19,0.483 0.047,-0.35 0.104,-0.706 0.056,-0.355 0.127,-0.68 0.008,-0.037 0.025,-0.06 0.017,-0.025 0.037,-0.036 0.02,-0.014 0.04,-0.02 0.022,-0.006 0.036,-0.006 0.048,0 0.079,0.029 0.03,0.025 0.03,0.07 0,0.05 -0.016,0.18 -0.017,0.128 -0.045,0.3 -0.028,0.17 -0.065,0.36 -0.034,0.193 -0.068,0.37 -0.034,0.179 -0.065,0.325 -0.03,0.147 -0.05,0.223 -0.018,0.065 -0.051,0.1 -0.034,0.03 -0.1,0.03 -0.067,0 -0.115,-0.06 -0.045,-0.061 -0.101,-0.191 -0.054,-0.13 -0.13,-0.33 -0.076,-0.203 -0.198,-0.486 -0.124,0.283 -0.203,0.486 -0.076,0.203 -0.133,0.333 -0.053,0.13 -0.101,0.192 -0.048,0.059 -0.113,0.059 -0.113,0 -0.15,-0.13 -0.022,-0.076 -0.053,-0.22 -0.031,-0.147 -0.065,-0.325 l -0.065,-0.366 q -0.034,-0.192 -0.06,-0.362 l -0.042,-0.296 q -0.014,-0.13 -0.014,-0.18 0,-0.05 0.031,-0.08 0.031,-0.03 0.088,-0.03 0.04,0 0.076,0.025 0.037,0.022 0.053,0.096 0.068,0.324 0.119,0.68 0.054,0.356 0.113,0.706 0.087,-0.207 0.175,-0.438 0.087,-0.231 0.217,-0.52 z m 1.413,1.265 q -0.005,-0.102 -0.008,-0.212 0,-0.11 -0.003,-0.237 -0.003,-0.127 -0.003,-0.274 v -0.333 q 0,-0.2 0.003,-0.342 0.003,-0.143 0.017,-0.234 0.014,-0.09 0.042,-0.132 0.031,-0.043 0.082,-0.043 0.026,0 0.048,0.006 0.023,0.006 0.04,0.026 0.017,0.017 0.028,0.053 0.014,0.034 0.017,0.09 l 0.008,0.18 0.006,0.159 q 0.003,0.076 0.003,0.16 v 0.43 q 0,0.116 -0.003,0.229 l -0.006,0.228 q -0.002,0.116 -0.008,0.243 -0.003,0.068 -0.014,0.104 -0.012,0.037 -0.028,0.057 -0.017,0.02 -0.04,0.022 -0.023,0.006 -0.05,0.006 -0.052,0 -0.088,-0.033 -0.037,-0.037 -0.043,-0.153 z m 1.765,0.042 q -0.09,-0.124 -0.172,-0.246 l -0.173,-0.27 q -0.09,-0.147 -0.208,-0.325 -0.116,-0.18 -0.28,-0.42 v 0.38 q 0,0.167 -0.003,0.31 l -0.005,0.272 q -0.003,0.127 -0.009,0.254 -0.003,0.067 -0.014,0.104 -0.008,0.037 -0.025,0.056 -0.017,0.02 -0.04,0.023 -0.02,0.006 -0.048,0.006 -0.05,0 -0.084,-0.034 -0.034,-0.037 -0.04,-0.152 -0.014,-0.31 -0.017,-0.621 v -0.646 q 0,-0.19 0.003,-0.297 0.006,-0.107 0.02,-0.16 0.017,-0.054 0.042,-0.068 0.028,-0.014 0.073,-0.014 0.046,0 0.119,0.07 0.073,0.068 0.16,0.18 0.088,0.114 0.187,0.26 0.102,0.147 0.2,0.302 0.1,0.156 0.19,0.308 l 0.169,0.277 q -0.003,-0.133 -0.003,-0.291 v -0.356 q 0,-0.223 0.003,-0.367 0.003,-0.146 0.014,-0.231 0.014,-0.085 0.042,-0.12 0.029,-0.033 0.08,-0.033 0.047,0 0.084,0.03 0.037,0.032 0.042,0.145 l 0.009,0.18 0.005,0.159 q 0.003,0.076 0.003,0.16 v 0.43 q 0,0.116 -0.003,0.229 l -0.005,0.228 q -0.003,0.116 -0.009,0.243 -0.002,0.068 -0.014,0.104 -0.008,0.037 -0.025,0.057 -0.017,0.02 -0.04,0.022 -0.02,0.006 -0.048,0.006 -0.048,0 -0.082,-0.028 -0.033,-0.028 -0.098,-0.116 z m 1.523,-1.866 q 0.093,0 0.192,0.017 0.099,0.017 0.18,0.05 0.083,0.032 0.136,0.08 0.054,0.048 0.054,0.11 0,0.065 -0.034,0.099 -0.034,0.034 -0.085,0.034 -0.048,0 -0.09,-0.017 l -0.09,-0.037 q -0.051,-0.02 -0.122,-0.037 -0.07,-0.016 -0.177,-0.016 -0.119,0 -0.223,0.056 -0.102,0.054 -0.181,0.152 -0.079,0.096 -0.124,0.229 -0.045,0.133 -0.045,0.288 0,0.189 0.048,0.327 0.048,0.138 0.124,0.229 0.079,0.09 0.175,0.135 0.099,0.043 0.197,0.043 0.161,0 0.254,-0.046 0.096,-0.048 0.153,-0.12 0.003,-0.06 0.003,-0.142 v -0.178 q 0,-0.037 -0.006,-0.056 -0.006,-0.023 -0.028,-0.034 -0.023,-0.011 -0.068,-0.014 -0.042,-0.003 -0.116,-0.003 -0.09,0 -0.146,-0.023 -0.057,-0.025 -0.057,-0.104 0,-0.057 0.028,-0.09 0.031,-0.037 0.125,-0.043 h 0.053 q 0.04,-0.003 0.082,-0.003 h 0.155 q 0.085,0 0.136,0.017 0.05,0.014 0.09,0.068 0.02,0.028 0.023,0.099 0.005,0.07 0.005,0.163 v 0.728 q 0,0.077 -0.042,0.113 -0.04,0.037 -0.093,0.037 -0.065,0 -0.108,-0.034 -0.039,-0.031 -0.039,-0.102 v -0.11 q -0.073,0.085 -0.175,0.122 -0.099,0.036 -0.251,0.036 -0.155,0 -0.305,-0.062 -0.15,-0.062 -0.265,-0.183 -0.116,-0.124 -0.19,-0.308 -0.07,-0.186 -0.07,-0.431 0,-0.246 0.07,-0.438 0.074,-0.192 0.198,-0.324 0.124,-0.136 0.29,-0.207 0.167,-0.07 0.36,-0.07 z m 2.108,0.294 q -0.102,0 -0.17,0.022 -0.067,0.02 -0.112,0.054 -0.046,0.034 -0.074,0.07 l -0.05,0.07 q -0.023,0.035 -0.051,0.058 -0.026,0.02 -0.065,0.02 -0.068,0 -0.096,-0.035 -0.026,-0.036 -0.026,-0.096 0,-0.124 0.093,-0.23 0.029,-0.035 0.077,-0.071 0.05,-0.04 0.118,-0.071 0.07,-0.031 0.161,-0.05 0.093,-0.023 0.209,-0.023 0.308,0 0.477,0.15 0.17,0.149 0.17,0.42 0,0.053 -0.012,0.118 -0.009,0.065 -0.037,0.136 -0.025,0.07 -0.073,0.146 -0.048,0.077 -0.127,0.156 -0.07,0.07 -0.15,0.13 -0.079,0.059 -0.163,0.118 l -0.178,0.127 q -0.09,0.065 -0.184,0.15 0.09,0.048 0.195,0.062 0.104,0.014 0.234,0.014 0.122,0 0.195,-0.006 0.073,-0.006 0.119,-0.014 l 0.07,-0.014 q 0.026,-0.006 0.054,-0.006 0.104,0 0.104,0.096 0,0.084 -0.07,0.13 -0.07,0.044 -0.17,0.067 -0.098,0.02 -0.203,0.023 -0.104,0.006 -0.172,0.006 -0.037,0 -0.104,-0.006 -0.065,-0.003 -0.142,-0.014 -0.076,-0.012 -0.155,-0.032 -0.076,-0.022 -0.14,-0.056 -0.063,-0.037 -0.103,-0.087 -0.039,-0.054 -0.039,-0.127 0,-0.1 0.07,-0.187 0.074,-0.09 0.181,-0.175 0.107,-0.087 0.232,-0.172 0.124,-0.087 0.231,-0.178 0.107,-0.093 0.178,-0.192 0.073,-0.098 0.073,-0.214 0,-0.144 -0.099,-0.214 -0.096,-0.074 -0.276,-0.074 z"
       word-spacing="0"
       letter-spacing="0"
       font-size="2.822"
       font-weight="400"
       aria-label="SWING 2"
       id="path213"
       inkscape:connector-curvature="0" />
  </g>
  <rect
     rx="0.99000001"
     ry="0.99000001"
     y="24.877001"
     x="3.4628422"
     height="3.043"
     width="8.7469997"
     id="rect217"
     style="fill:#3e3e3e;stroke:#c8c8c8;stroke-width:0.132;paint-order:stroke markers fill" />
  <g
     style="line-height:1.25"
     id="g221"
     transform="translate(-79.375155)">
    <path
       style="font-weight:400;font-size:2.82200003px;font-family:Sniglet;-inkscape-font-specification:'Sniglet, Normal';font-variant-ligatures:normal;font-variant-caps:normal;font-variant-numeric:normal;font-feature-settings:normal;text-align:start;letter-spacing:0;word-spacing:0;fill:#ffffff"
       d="m 85.014,27.2 q 0,0.068 -0.014,0.105 -0.011,0.037 -0.03,0.056 -0.018,0.02 -0.043,0.023 -0.023,0.006 -0.045,0.006 -0.077,0 -0.102,-0.034 -0.023,-0.034 -0.031,-0.152 -0.006,-0.062 -0.009,-0.18 l -0.005,-0.283 q 0,-0.164 -0.003,-0.361 v -0.418 q 0,-0.104 0.025,-0.212 0.026,-0.107 0.096,-0.194 0.074,-0.088 0.2,-0.142 0.13,-0.053 0.337,-0.053 0.144,0 0.273,0.03 0.13,0.032 0.229,0.108 0.099,0.076 0.158,0.203 0.06,0.127 0.06,0.316 0,0.198 -0.066,0.328 -0.065,0.13 -0.183,0.206 -0.119,0.076 -0.282,0.107 -0.164,0.03 -0.359,0.03 h -0.096 q -0.048,0 -0.107,-0.005 z m 0.813,-1.188 q 0,-0.19 -0.107,-0.285 -0.105,-0.096 -0.35,-0.096 -0.093,0 -0.161,0.017 -0.065,0.014 -0.107,0.054 -0.043,0.037 -0.065,0.102 -0.02,0.064 -0.02,0.163 v 0.22 q 0,0.122 0.003,0.229 0.065,0.003 0.144,0.003 h 0.152 q 0.085,0 0.175,-0.011 0.093,-0.012 0.167,-0.051 0.073,-0.042 0.121,-0.122 0.048,-0.081 0.048,-0.222 z m 1.282,-0.073 q 0.017,-0.04 0.051,-0.065 0.037,-0.025 0.076,-0.025 0.037,0 0.07,0.025 0.035,0.023 0.054,0.062 0.108,0.22 0.212,0.477 0.105,0.254 0.19,0.483 0.047,-0.35 0.104,-0.706 0.056,-0.355 0.127,-0.68 0.008,-0.037 0.025,-0.06 0.017,-0.025 0.037,-0.036 0.02,-0.014 0.04,-0.02 0.022,-0.006 0.036,-0.006 0.048,0 0.079,0.029 0.031,0.025 0.031,0.07 0,0.05 -0.017,0.18 -0.017,0.128 -0.045,0.3 -0.028,0.17 -0.065,0.36 -0.034,0.193 -0.068,0.37 -0.034,0.179 -0.065,0.325 -0.03,0.147 -0.05,0.223 -0.017,0.065 -0.051,0.1 -0.034,0.03 -0.099,0.03 -0.068,0 -0.116,-0.06 -0.045,-0.061 -0.101,-0.191 -0.054,-0.13 -0.13,-0.33 -0.076,-0.203 -0.198,-0.486 -0.124,0.283 -0.203,0.486 -0.076,0.203 -0.133,0.333 -0.053,0.13 -0.101,0.192 -0.048,0.059 -0.113,0.059 -0.113,0 -0.15,-0.13 -0.022,-0.076 -0.053,-0.22 -0.031,-0.147 -0.065,-0.325 l -0.065,-0.366 q -0.034,-0.192 -0.06,-0.362 l -0.042,-0.296 q -0.014,-0.13 -0.014,-0.18 0,-0.05 0.031,-0.08 0.031,-0.03 0.088,-0.03 0.04,0 0.076,0.025 0.037,0.022 0.054,0.096 0.067,0.324 0.118,0.68 0.054,0.356 0.113,0.706 0.088,-0.207 0.175,-0.438 0.087,-0.231 0.217,-0.52 z m 2.339,1.265 q -0.005,-0.102 -0.008,-0.212 0,-0.11 -0.003,-0.237 -0.003,-0.127 -0.003,-0.274 v -0.686 l -0.17,0.088 q -0.07,0.045 -0.112,0.053 -0.04,0.008 -0.088,0.008 -0.042,0 -0.076,-0.036 -0.03,-0.037 -0.03,-0.088 0,-0.05 0.033,-0.087 0.037,-0.04 0.085,-0.071 0.062,-0.042 0.132,-0.085 0.074,-0.042 0.141,-0.076 0.068,-0.037 0.125,-0.056 0.059,-0.023 0.098,-0.023 0.02,0 0.04,0.006 0.023,0.006 0.04,0.023 0.02,0.017 0.03,0.053 0.015,0.034 0.017,0.093 l 0.009,0.178 0.006,0.15 q 0.002,0.07 0.002,0.15 V 26.5 q 0,0.116 -0.002,0.23 l -0.006,0.228 q -0.003,0.115 -0.009,0.242 -0.002,0.068 -0.014,0.105 -0.008,0.037 -0.025,0.056 -0.017,0.02 -0.04,0.023 -0.02,0.006 -0.048,0.006 -0.05,0 -0.084,-0.034 -0.034,-0.037 -0.04,-0.152 z"
       word-spacing="0"
       letter-spacing="0"
       font-size="2.822"
       font-weight="400"
       aria-label="PW 1"
       id="path219"
       inkscape:connector-curvature="0" />
  </g>
  <g
     style="line-height:1.25"
     id="g225"
     transform="translate(-79.375155)">
    <path
       d="m 85.794,13.97 q 0,0.069 -0.013,0.106 -0.012,0.037 -0.032,0.056 -0.016,0.02 -0.042,0.023 -0.022,0.005 -0.045,0.005 -0.076,0 -0.102,-0.033 -0.022,-0.034 -0.03,-0.153 -0.006,-0.062 -0.01,-0.18 l -0.005,-0.283 q 0,-0.163 -0.003,-0.36 v -0.42 q 0,-0.103 0.026,-0.21 0.025,-0.108 0.096,-0.195 0.073,-0.087 0.2,-0.141 0.13,-0.054 0.336,-0.054 0.144,0 0.274,0.03 0.13,0.032 0.228,0.109 0.1,0.076 0.158,0.203 0.06,0.127 0.06,0.316 0,0.197 -0.065,0.327 -0.065,0.13 -0.184,0.206 -0.118,0.076 -0.282,0.107 -0.164,0.032 -0.358,0.032 h -0.096 q -0.048,0 -0.108,-0.006 z m 0.813,-1.187 q 0,-0.19 -0.107,-0.285 -0.104,-0.096 -0.35,-0.096 -0.093,0 -0.16,0.017 -0.066,0.014 -0.108,0.054 -0.042,0.036 -0.065,0.1 -0.02,0.066 -0.02,0.165 v 0.22 q 0,0.122 0.003,0.229 0.065,0.003 0.144,0.003 h 0.153 q 0.084,0 0.175,-0.012 0.093,-0.011 0.166,-0.05 0.073,-0.043 0.121,-0.122 0.048,-0.082 0.048,-0.223 z M 87.89,12.71 q 0.017,-0.04 0.05,-0.065 0.037,-0.025 0.077,-0.025 0.036,0 0.07,0.025 0.034,0.023 0.054,0.062 0.107,0.22 0.212,0.477 0.104,0.254 0.189,0.483 0.048,-0.35 0.104,-0.706 0.057,-0.356 0.127,-0.68 0.009,-0.037 0.025,-0.06 0.017,-0.025 0.037,-0.036 0.02,-0.014 0.04,-0.02 0.022,-0.005 0.036,-0.005 0.048,0 0.08,0.028 0.03,0.025 0.03,0.07 0,0.05 -0.016,0.18 -0.017,0.128 -0.046,0.3 -0.028,0.169 -0.065,0.36 -0.033,0.193 -0.067,0.37 -0.034,0.179 -0.065,0.326 -0.031,0.146 -0.051,0.223 -0.017,0.065 -0.05,0.098 -0.035,0.03 -0.1,0.03 -0.067,0 -0.115,-0.058 -0.045,-0.062 -0.102,-0.192 -0.053,-0.13 -0.13,-0.33 -0.076,-0.203 -0.197,-0.485 -0.124,0.282 -0.203,0.485 -0.077,0.203 -0.133,0.333 -0.054,0.13 -0.102,0.192 -0.048,0.06 -0.113,0.06 -0.112,0 -0.15,-0.13 -0.022,-0.077 -0.053,-0.22 L 87.198,13.475 Q 87.168,13.297 87.133,13.108 87.1,12.916 87.074,12.747 L 87.032,12.45 q -0.014,-0.13 -0.014,-0.18 0,-0.048 0.03,-0.08 0.032,-0.03 0.088,-0.03 0.04,0 0.076,0.025 0.037,0.023 0.054,0.096 0.068,0.324 0.119,0.68 0.053,0.356 0.112,0.706 0.088,-0.206 0.175,-0.438 0.088,-0.231 0.218,-0.52 z"
       style="font-weight:400;font-size:2.82200003px;font-family:Sniglet;-inkscape-font-specification:'Sniglet, Normal';font-variant-ligatures:normal;font-variant-caps:normal;font-variant-numeric:normal;font-feature-settings:normal;text-align:start;letter-spacing:0;word-spacing:0;fill:#ffffff"
       aria-label="PW"
       font-weight="400"
       font-size="2.822"
       letter-spacing="0"
       word-spacing="0"
       id="path223"
       inkscape:connector-curvature="0" />
  </g>
</svg>
