<?xml version="1.0" encoding="UTF-8" standalone="no"?>
<svg
   xmlns:dc="http://purl.org/dc/elements/1.1/"
   xmlns:cc="http://creativecommons.org/ns#"
   xmlns:rdf="http://www.w3.org/1999/02/22-rdf-syntax-ns#"
   xmlns:svg="http://www.w3.org/2000/svg"
   xmlns="http://www.w3.org/2000/svg"
   xmlns:xlink="http://www.w3.org/1999/xlink"
   xmlns:sodipodi="http://sodipodi.sourceforge.net/DTD/sodipodi-0.dtd"
   xmlns:inkscape="http://www.inkscape.org/namespaces/inkscape"
   width="60"
   height="380"
   viewBox="0 0 15.875 100.542"
   version="1.1"
   id="svg196"
   sodipodi:docname="GateSeq64Expander_dark.svg"
   inkscape:version="0.92.3 (2405546, 2018-03-11)">
  <metadata
     id="metadata200">
    <rdf:RDF>
      <cc:Work
         rdf:about="">
        <dc:format>image/svg+xml</dc:format>
        <dc:type
           rdf:resource="http://purl.org/dc/dcmitype/StillImage" />
        <dc:title></dc:title>
      </cc:Work>
    </rdf:RDF>
  </metadata>
  <sodipodi:namedview
     pagecolor="#ffffff"
     bordercolor="#666666"
     borderopacity="1"
     objecttolerance="10"
     gridtolerance="10"
     guidetolerance="10"
     inkscape:pageopacity="0"
     inkscape:pageshadow="2"
     inkscape:window-width="1920"
     inkscape:window-height="1017"
     id="namedview198"
     showgrid="false"
     inkscape:zoom="1.5779803"
     inkscape:cx="210"
     inkscape:cy="190.00189"
     inkscape:window-x="-8"
     inkscape:window-y="-8"
     inkscape:window-maximized="1"
     inkscape:current-layer="svg196" />
  <defs
     id="defs24">
    <linearGradient
       gradientTransform="matrix(5.73462,0,0,3.67617,-479.61,-89.076)"
       xlink:href="#a"
       id="d"
       x1="92.069"
       y1="26.308001"
       x2="92.063004"
       y2="35.48"
       gradientUnits="userSpaceOnUse" />
    <linearGradient
       id="a">
      <stop
         offset="0"
         id="stop3" />
      <stop
         offset="1"
         stop-color="#8c8c8c"
         id="stop5" />
    </linearGradient>
    <linearGradient
       gradientTransform="translate(-38.614,27.033)"
       xlink:href="#a"
       id="e"
       x1="92.069"
       y1="26.308001"
       x2="92.063004"
       y2="35.48"
       gradientUnits="userSpaceOnUse" />
    <linearGradient
       xlink:href="#a"
       id="f"
       x1="92.707001"
       y1="238.72501"
       x2="92.774002"
       y2="232.729"
       gradientUnits="userSpaceOnUse"
       gradientTransform="rotate(180,80.118,146.758)" />
    <linearGradient
       xlink:href="#a"
       id="g"
       x1="92.761002"
       y1="238.72501"
       x2="92.774002"
       y2="231.29201"
       gradientUnits="userSpaceOnUse"
       gradientTransform="rotate(180,80.146,154.12)" />
    <linearGradient
       xlink:href="#a"
       id="h"
       x1="92.761002"
       y1="238.72501"
       x2="92.774002"
       y2="231.29201"
       gradientUnits="userSpaceOnUse"
       gradientTransform="rotate(180,80.143,162.078)" />
    <linearGradient
       xlink:href="#b"
       id="i"
       x1="26.759001"
       y1="162"
       x2="30.999001"
       y2="162"
       gradientUnits="userSpaceOnUse"
       gradientTransform="matrix(1,0,0,0.56406,0,70.452)" />
    <linearGradient
       id="b">
      <stop
         offset="0"
         stop-color="#fff"
         id="stop13" />
      <stop
         offset="1"
         stop-color="#fff"
         stop-opacity="0"
         id="stop15" />
    </linearGradient>
    <linearGradient
       xlink:href="#c"
       id="j"
       x1="26.759001"
       y1="162"
       x2="30.999001"
       y2="162"
       gradientUnits="userSpaceOnUse"
       gradientTransform="matrix(0.99995,0,0,0.53173,135.453,-112.052)" />
    <linearGradient
       id="c">
      <stop
         offset="0"
         stop-color="#fff"
         stop-opacity=".992"
         id="stop19" />
      <stop
         offset="1"
         stop-color="#fff"
         stop-opacity="0"
         id="stop21" />
    </linearGradient>
  </defs>
  <path
     d="M 0,0 H 15.875053 V 100.541 H 0 Z m 0,0"
     id="path26"
     inkscape:connector-curvature="0"
     style="fill:#191919;stroke-width:1" />
  <rect
     rx="0.99000001"
     ry="0.99000001"
     y="77.669998"
     x="4.9787226"
     height="3.043"
     width="5.7449999"
     id="rect28"
     style="fill:#333333;stroke:#8c8c8c;stroke-width:0.132;paint-order:stroke markers fill" />
  <path
     word-spacing="0"
     letter-spacing="0"
     font-size="3.528"
     font-weight="400"
     d="m 8.1767263,78.724 0.11,-0.092 a 0.145,0.145 0 0 0 0.006,-0.205 0.235,0.235 0 0 0 -0.05,-0.038 0.116,0.116 0 0 0 -0.056,-0.014 0.192,0.192 0 0 0 -0.077,0.02 0.658,0.658 0 0 0 -0.117,0.065 l -0.398,0.243 a 3.1,3.1 0 0 0 -0.29,0.19 0.902,0.902 0 0 0 -0.18,0.16 0.244,0.244 0 0 0 -0.06,0.154 0.25,0.25 0 0 0 0.064,0.16 0.9,0.9 0 0 0 0.18,0.158 c 0.078,0.056 0.174,0.12 0.29,0.19 l 0.394,0.24 c 0.048,0.03 0.086,0.053 0.117,0.067 0.03,0.012 0.056,0.018 0.077,0.018 0.022,0 0.04,-0.005 0.057,-0.014 a 0.223,0.223 0 0 0 0.05,-0.04 0.15,0.15 0 0 0 0.038,-0.098 0.134,0.134 0 0 0 -0.046,-0.102 2.423,2.423 0 0 0 -0.11,-0.095 c -0.3,-0.315 -0.287,-0.754 0,-0.967 z"
     style="font-weight:400;font-size:3.52800012px;line-height:1.25;font-family:Sniglet;-inkscape-font-specification:'Sniglet, Normal';font-variant-ligatures:normal;font-variant-caps:normal;font-variant-numeric:normal;font-feature-settings:normal;text-align:start;letter-spacing:0;word-spacing:0;fill:#c8c8c8"
     id="path30"
     inkscape:connector-curvature="0" />
  <path
     d="m 8.6637263,93.893 -1.63,0.115 v -2.06 q 0,-0.23 0.065,-0.333 0.063,-0.104 0.22,-0.147 0.153,-0.043 0.347,-0.002 0.224,0.047 0.357,0.19 0.133,0.146 0.133,0.33 0,0.186 -0.158,0.287 -0.157,0.102 -0.407,0.049 -0.082,-0.018 -0.144,-0.044 -0.063,-0.026 -0.205,-0.11 v 1.345 l 1.22,-0.085 v -1.554 q 0,-0.224 0.065,-0.337 0.065,-0.11 0.225,-0.15 0.16,-0.041 0.349,-0.001 0.223,0.047 0.354,0.19 0.129,0.14 0.129,0.325 0,0.195 -0.156,0.294 -0.155,0.1 -0.407,0.047 -0.16,-0.034 -0.357,-0.16 z"
     style="font-weight:400;font-size:3.52800012px;line-height:1.25;font-family:Arial;-inkscape-font-specification:'Arial, Normal';font-variant-ligatures:normal;font-variant-caps:normal;font-variant-numeric:normal;font-feature-settings:normal;text-align:start;letter-spacing:0;word-spacing:0;fill:#969696"
     font-size="3.528"
     aria-label="♫"
     font-weight="400"
     letter-spacing="0"
     word-spacing="0"
     id="path132"
     inkscape:connector-curvature="0" />
  <rect
     rx="0.99000001"
     ry="0.99000001"
     y="11.599"
     x="2.8907251"
     height="3.043"
     width="10.089"
     id="rect134"
     style="fill:#333333;stroke:#8c8c8c;stroke-width:0.132;paint-order:stroke markers fill" />
  <rect
     rx="0.99000001"
     ry="0.99000001"
     y="24.806999"
     x="2.2117243"
     height="3.043"
     width="11.492"
     id="rect136"
     style="fill:#333333;stroke:#8c8c8c;stroke-width:0.132;paint-order:stroke markers fill" />
  <g
     style="line-height:1.25"
     aria-label="GATE 1"
     id="g140"
     transform="translate(-95.250274)">
    <path
       style="font-weight:400;font-size:2.82200003px;font-family:Sniglet;-inkscape-font-specification:'Sniglet, Normal';font-variant-ligatures:normal;font-variant-caps:normal;font-variant-numeric:normal;font-feature-settings:normal;text-align:start;letter-spacing:0;word-spacing:0;fill:#c8c8c8"
       d="m 99.574,25.28 q 0.093,0 0.192,0.018 0.098,0.017 0.18,0.05 0.082,0.03 0.136,0.08 0.053,0.047 0.053,0.11 0,0.064 -0.034,0.098 -0.034,0.034 -0.084,0.034 -0.048,0 -0.09,-0.017 l -0.09,-0.036 q -0.052,-0.02 -0.122,-0.037 -0.07,-0.017 -0.178,-0.017 -0.119,0 -0.223,0.056 -0.102,0.054 -0.18,0.153 -0.08,0.096 -0.125,0.228 -0.045,0.133 -0.045,0.288 0,0.19 0.048,0.328 0.048,0.138 0.124,0.228 0.08,0.09 0.175,0.136 0.099,0.042 0.198,0.042 0.16,0 0.254,-0.045 0.096,-0.048 0.152,-0.122 0.003,-0.06 0.003,-0.14 v -0.178 q 0,-0.037 -0.006,-0.057 -0.005,-0.023 -0.028,-0.034 -0.023,-0.011 -0.068,-0.014 -0.042,-0.003 -0.115,-0.003 -0.09,0 -0.147,-0.023 -0.057,-0.025 -0.057,-0.104 0,-0.056 0.029,-0.09 0.03,-0.037 0.124,-0.043 h 0.053 q 0.04,-0.003 0.082,-0.003 h 0.155 q 0.085,0 0.136,0.017 0.05,0.014 0.09,0.068 0.02,0.028 0.023,0.099 0.005,0.07 0.005,0.164 v 0.728 q 0,0.076 -0.042,0.113 -0.04,0.036 -0.093,0.036 -0.065,0 -0.107,-0.034 -0.04,-0.03 -0.04,-0.101 v -0.11 q -0.073,0.084 -0.175,0.12 -0.099,0.038 -0.25,0.038 -0.156,0 -0.306,-0.062 -0.15,-0.062 -0.265,-0.184 -0.116,-0.124 -0.19,-0.307 -0.07,-0.187 -0.07,-0.432 0,-0.246 0.07,-0.438 0.074,-0.192 0.198,-0.324 0.125,-0.136 0.291,-0.206 0.167,-0.07 0.359,-0.07 z m 2.113,1.855 -0.062,-0.155 q -0.031,-0.09 -0.068,-0.19 l -0.178,0.007 h -0.409 q -0.099,0 -0.18,-0.003 l -0.066,0.186 q -0.03,0.087 -0.059,0.155 -0.056,0.144 -0.164,0.144 -0.04,0 -0.076,-0.025 -0.034,-0.026 -0.034,-0.074 0,-0.048 0.017,-0.124 0.017,-0.08 0.043,-0.166 l 0.059,-0.184 q 0.03,-0.096 0.06,-0.178 0.027,-0.09 0.078,-0.228 l 0.113,-0.294 0.119,-0.3 q 0.059,-0.15 0.107,-0.26 0.011,-0.027 0.028,-0.061 0.017,-0.036 0.04,-0.067 0.025,-0.031 0.053,-0.054 0.031,-0.023 0.068,-0.023 0.037,0 0.068,0.026 0.03,0.022 0.053,0.056 0.026,0.034 0.043,0.07 0.02,0.038 0.03,0.066 0.046,0.113 0.102,0.26 0.06,0.146 0.116,0.296 0.06,0.15 0.11,0.285 0.05,0.135 0.082,0.228 0.025,0.082 0.056,0.175 0.034,0.093 0.062,0.184 0.029,0.09 0.046,0.17 0.02,0.075 0.02,0.123 0,0.048 -0.037,0.074 -0.034,0.025 -0.074,0.025 -0.05,0 -0.093,-0.034 -0.042,-0.037 -0.073,-0.11 z m -0.5,-0.62 0.136,0.002 q 0.067,0 0.135,0.003 l -0.068,-0.197 -0.064,-0.19 -0.054,-0.166 -0.04,-0.138 q -0.01,-0.037 -0.025,-0.06 -0.014,-0.022 -0.037,-0.022 -0.022,0 -0.036,0.025 -0.014,0.023 -0.026,0.06 -0.034,0.115 -0.096,0.3 -0.059,0.185 -0.127,0.388 0.076,-0.003 0.153,-0.003 0.076,-0.003 0.15,-0.003 z m 1.876,-0.952 q -0.08,0.006 -0.17,0.008 l -0.194,0.006 0.005,0.144 0.006,0.133 q 0.003,0.067 0.003,0.14 0.003,0.074 0.003,0.164 v 0.246 q 0,0.116 -0.003,0.234 l -0.006,0.234 -0.008,0.246 q -0.003,0.068 -0.014,0.104 -0.009,0.037 -0.026,0.057 -0.017,0.02 -0.04,0.022 -0.022,0.006 -0.05,0.006 -0.051,0 -0.088,-0.034 -0.034,-0.036 -0.04,-0.152 -0.005,-0.102 -0.008,-0.214 l -0.002,-0.243 q -0.003,-0.13 -0.003,-0.28 v -0.606 q 0.003,-0.116 0.008,-0.2 h -0.115 q -0.119,0 -0.204,-0.004 -0.082,-0.003 -0.135,-0.014 -0.054,-0.014 -0.08,-0.042 -0.022,-0.028 -0.022,-0.08 0,-0.025 0.006,-0.044 0.005,-0.023 0.025,-0.04 0.02,-0.02 0.054,-0.03 0.037,-0.012 0.093,-0.018 l 0.096,-0.006 0.085,-0.006 q 0.042,-0.003 0.087,-0.003 h 0.105 q 0.166,0 0.313,0.003 0.15,0.003 0.316,0.012 0.068,0.006 0.104,0.016 0.037,0.008 0.057,0.026 0.02,0.017 0.022,0.04 0.006,0.022 0.006,0.05 0,0.05 -0.037,0.085 -0.034,0.034 -0.15,0.04 z m 0.402,1.286 q -0.006,-0.09 -0.012,-0.245 -0.005,-0.155 -0.005,-0.32 v -0.19 l 0.005,-0.206 q 0.006,-0.21 0.026,-0.328 0.022,-0.118 0.084,-0.178 0.065,-0.06 0.181,-0.073 0.116,-0.014 0.308,-0.014 h 0.059 q 0.06,0 0.141,0.003 0.082,0 0.17,0.003 l 0.149,0.006 q 0.062,0.006 0.099,0.017 0.04,0.008 0.06,0.025 0.019,0.014 0.024,0.037 0.006,0.02 0.006,0.045 0,0.065 -0.037,0.096 -0.036,0.028 -0.15,0.037 -0.056,0.006 -0.166,0.008 h -0.22 q -0.113,0 -0.203,0.003 h -0.113 q -0.073,0.003 -0.104,0.034 -0.029,0.028 -0.029,0.138 l 0.003,0.124 q 0.006,0.096 0.006,0.27 h 0.234 q 0.15,0 0.243,0.007 0.096,0.003 0.147,0.017 0.053,0.014 0.073,0.045 0.02,0.03 0.02,0.082 0,0.025 -0.006,0.048 -0.003,0.02 -0.023,0.037 -0.02,0.014 -0.056,0.025 -0.037,0.008 -0.104,0.014 -0.082,0.006 -0.156,0.008 h -0.378 v 0.344 l 0.006,0.096 q 0.003,0.045 0.011,0.076 0.011,0.03 0.037,0.05 0.028,0.02 0.079,0.029 0.053,0.008 0.14,0.008 h 0.608 q 0.098,0 0.124,0.037 0.025,0.037 0.025,0.099 0,0.05 -0.022,0.079 -0.023,0.025 -0.11,0.037 -0.085,0.014 -0.257,0.017 -0.17,0.003 -0.469,0.003 -0.127,0 -0.209,-0.023 -0.081,-0.023 -0.132,-0.076 -0.051,-0.054 -0.076,-0.14 -0.023,-0.086 -0.031,-0.21 z m 2.192,0.255 q -0.006,-0.102 -0.01,-0.212 l -0.002,-0.237 q -0.003,-0.127 -0.003,-0.274 v -0.333 q 0,-0.2 0.003,-0.341 0.003,-0.144 0.017,-0.234 0.014,-0.09 0.042,-0.133 0.031,-0.042 0.082,-0.042 0.026,0 0.048,0.006 0.023,0.006 0.04,0.025 0.017,0.017 0.028,0.054 0.014,0.034 0.017,0.09 l 0.008,0.18 0.006,0.159 q 0.003,0.076 0.003,0.16 v 0.43 q 0,0.115 -0.003,0.228 l -0.006,0.229 q -0.002,0.115 -0.008,0.242 -0.003,0.068 -0.014,0.105 -0.012,0.037 -0.029,0.056 -0.016,0.02 -0.039,0.023 -0.023,0.006 -0.05,0.006 -0.052,0 -0.088,-0.034 -0.037,-0.037 -0.043,-0.152 z m 1.764,0.042 q -0.09,-0.124 -0.173,-0.245 l -0.172,-0.271 q -0.09,-0.147 -0.209,-0.325 -0.115,-0.18 -0.279,-0.42 v 0.38 q 0,0.167 -0.003,0.31 l -0.005,0.272 q -0.003,0.127 -0.009,0.254 -0.003,0.068 -0.014,0.105 -0.008,0.036 -0.025,0.056 -0.017,0.02 -0.04,0.023 -0.02,0.006 -0.048,0.006 -0.05,0 -0.084,-0.034 -0.034,-0.037 -0.04,-0.153 -0.014,-0.31 -0.017,-0.62 v -0.647 q 0,-0.19 0.003,-0.296 0.005,-0.107 0.02,-0.161 0.017,-0.054 0.042,-0.068 0.028,-0.014 0.073,-0.014 0.046,0 0.119,0.07 0.073,0.068 0.16,0.18 0.088,0.114 0.187,0.26 0.102,0.148 0.2,0.303 0.1,0.155 0.19,0.308 l 0.169,0.276 q -0.003,-0.132 -0.003,-0.29 v -0.356 q 0,-0.223 0.003,-0.367 0.003,-0.147 0.014,-0.231 0.014,-0.085 0.042,-0.12 0.028,-0.033 0.08,-0.033 0.047,0 0.084,0.03 0.037,0.032 0.042,0.145 l 0.009,0.18 0.005,0.159 q 0.003,0.076 0.003,0.16 v 0.43 q 0,0.115 -0.003,0.228 l -0.005,0.229 q -0.003,0.116 -0.009,0.243 -0.003,0.067 -0.014,0.104 -0.008,0.037 -0.025,0.056 -0.017,0.02 -0.04,0.023 -0.02,0.006 -0.048,0.006 -0.048,0 -0.082,-0.028 -0.033,-0.028 -0.098,-0.116 z"
       word-spacing="0"
       letter-spacing="0"
       font-weight="400"
       font-size="2.822"
       aria-label="GATE IN"
       id="path138"
       inkscape:connector-curvature="0" />
  </g>
  <g
     style="line-height:1.25;-inkscape-font-specification:'Sniglet, Normal';font-variant-ligatures:normal;font-variant-caps:normal;font-variant-numeric:normal;font-feature-settings:normal;text-align:start"
     id="g144"
     transform="translate(-95.250274)">
    <path
       style="font-weight:400;font-size:3.88100004px;font-family:Sniglet;-inkscape-font-specification:'Sniglet, Normal';font-variant-ligatures:normal;font-variant-caps:normal;font-variant-numeric:normal;font-feature-settings:normal;text-align:start;letter-spacing:0;word-spacing:0;fill:#c8c8c8"
       d="m 100.112,5.843 q 0.129,0 0.264,0.023 0.136,0.023 0.249,0.07 0.112,0.042 0.186,0.108 0.074,0.066 0.074,0.152 0,0.089 -0.047,0.136 -0.046,0.046 -0.116,0.046 -0.066,0 -0.124,-0.023 l -0.125,-0.05 q -0.07,-0.028 -0.166,-0.051 -0.098,-0.023 -0.245,-0.023 -0.163,0 -0.307,0.077 -0.14,0.074 -0.248,0.21 -0.109,0.132 -0.17,0.314 -0.063,0.182 -0.063,0.396 0,0.26 0.066,0.45 0.066,0.19 0.171,0.314 0.109,0.125 0.24,0.187 0.136,0.058 0.272,0.058 0.221,0 0.35,-0.062 0.131,-0.066 0.209,-0.167 0.004,-0.082 0.004,-0.194 V 7.569 q 0,-0.05 -0.008,-0.077 -0.008,-0.031 -0.039,-0.047 -0.03,-0.015 -0.093,-0.02 -0.058,-0.003 -0.159,-0.003 -0.124,0 -0.202,-0.031 -0.077,-0.035 -0.077,-0.144 0,-0.077 0.038,-0.124 0.043,-0.05 0.171,-0.058 h 0.074 q 0.054,-0.004 0.113,-0.004 h 0.213 q 0.116,0 0.186,0.023 0.07,0.02 0.124,0.093 0.028,0.039 0.031,0.136 0.008,0.097 0.008,0.225 v 1.001 q 0,0.105 -0.058,0.155 -0.054,0.05 -0.128,0.05 -0.09,0 -0.148,-0.046 -0.054,-0.042 -0.054,-0.14 v -0.15 q -0.1,0.116 -0.24,0.166 -0.136,0.05 -0.346,0.05 -0.213,0 -0.419,-0.085 Q 99.367,8.454 99.208,8.287 99.049,8.117 98.948,7.864 98.851,7.608 98.851,7.27 q 0,-0.337 0.097,-0.601 0.101,-0.264 0.272,-0.447 0.17,-0.186 0.4,-0.283 0.229,-0.097 0.492,-0.097 z m 2.189,0.007 q 0.109,0 0.248,0.02 0.144,0.015 0.268,0.062 0.124,0.042 0.21,0.116 0.085,0.07 0.085,0.175 0,0.062 -0.035,0.105 -0.035,0.042 -0.112,0.042 -0.059,0 -0.12,-0.023 -0.059,-0.023 -0.136,-0.047 -0.074,-0.027 -0.175,-0.05 -0.097,-0.023 -0.229,-0.023 -0.256,0 -0.38,0.093 -0.12,0.089 -0.12,0.248 0,0.109 0.054,0.183 0.054,0.073 0.143,0.128 0.093,0.05 0.206,0.085 0.116,0.035 0.237,0.066 0.136,0.035 0.267,0.085 0.136,0.05 0.241,0.132 0.105,0.082 0.167,0.206 0.066,0.124 0.066,0.314 0,0.198 -0.074,0.357 -0.074,0.156 -0.202,0.268 -0.128,0.109 -0.306,0.17 -0.179,0.059 -0.388,0.059 -0.117,0 -0.272,-0.023 -0.155,-0.02 -0.295,-0.07 -0.14,-0.054 -0.237,-0.14 -0.097,-0.09 -0.097,-0.217 0,-0.078 0.04,-0.124 Q 101.397,8 101.478,8 q 0.066,0 0.11,0.027 0.042,0.024 0.073,0.055 0.116,0.1 0.264,0.135 0.147,0.035 0.302,0.035 0.09,0 0.187,-0.011 0.1,-0.016 0.182,-0.059 0.082,-0.042 0.136,-0.12 0.054,-0.081 0.054,-0.217 0,-0.124 -0.05,-0.202 -0.047,-0.081 -0.128,-0.136 -0.082,-0.054 -0.194,-0.089 -0.109,-0.035 -0.237,-0.07 -0.144,-0.039 -0.283,-0.085 -0.14,-0.047 -0.249,-0.124 -0.108,-0.082 -0.178,-0.202 -0.066,-0.124 -0.066,-0.315 0,-0.19 0.07,-0.333 0.07,-0.144 0.19,-0.24 0.12,-0.098 0.283,-0.148 0.167,-0.05 0.357,-0.05 z m 2.608,1.77 q -0.179,0.008 -0.411,0.015 -0.233,0.004 -0.551,0.004 -0.132,0 -0.225,-0.004 -0.094,-0.004 -0.152,-0.02 -0.058,-0.018 -0.085,-0.057 -0.027,-0.04 -0.027,-0.109 0,-0.035 0.007,-0.062 0.008,-0.031 0.035,-0.054 0.028,-0.024 0.074,-0.04 0.05,-0.019 0.128,-0.026 l 0.101,-0.008 q 0.047,-0.004 0.09,-0.004 0.042,-0.004 0.089,-0.004 h 0.116 q 0.21,0 0.404,0.004 0.194,0 0.403,0.011 0.093,0.008 0.144,0.024 0.05,0.011 0.077,0.035 0.027,0.023 0.031,0.054 0.008,0.031 0.008,0.07 0,0.07 -0.05,0.116 -0.047,0.047 -0.206,0.054 z m 1.476,-0.051 -0.578,0.897 q -0.054,0.085 -0.12,0.128 -0.062,0.046 -0.144,0.046 -0.1,0 -0.143,-0.05 -0.04,-0.047 -0.04,-0.12 0,-0.043 0.016,-0.09 0.02,-0.046 0.05,-0.089 l 0.723,-1.032 -0.722,-1.032 q -0.031,-0.043 -0.05,-0.09 -0.016,-0.046 -0.016,-0.089 0,-0.073 0.039,-0.12 0.042,-0.05 0.143,-0.05 0.082,0 0.144,0.046 0.066,0.043 0.12,0.128 l 0.578,0.897 0.579,-0.897 q 0.054,-0.085 0.116,-0.128 0.066,-0.046 0.147,-0.046 0.101,0 0.14,0.05 0.043,0.047 0.043,0.12 0,0.043 -0.02,0.09 -0.015,0.046 -0.046,0.089 l -0.722,1.032 0.722,1.032 q 0.03,0.043 0.046,0.09 0.02,0.046 0.02,0.089 0,0.073 -0.043,0.12 -0.039,0.05 -0.14,0.05 -0.081,0 -0.147,-0.046 -0.062,-0.043 -0.116,-0.128 z"
       word-spacing="0"
       letter-spacing="0"
       font-size="3.881"
       font-weight="400"
       aria-label="GS-X"
       id="path142"
       inkscape:connector-curvature="0" />
  </g>
  <g
     style="line-height:1.25"
     aria-label="GATE 1"
     id="g148"
     transform="translate(-95.250274)">
    <path
       style="font-weight:400;font-size:2.82200003px;font-family:Sniglet;-inkscape-font-specification:'Sniglet, Normal';font-variant-ligatures:normal;font-variant-caps:normal;font-variant-numeric:normal;font-feature-settings:normal;text-align:start;letter-spacing:0;word-spacing:0;fill:#c8c8c8"
       d="m 100.398,12.606 q 0.017,-0.04 0.051,-0.066 0.037,-0.025 0.076,-0.025 0.037,0 0.07,0.025 0.035,0.023 0.054,0.062 0.108,0.22 0.212,0.477 0.104,0.254 0.19,0.483 0.047,-0.35 0.104,-0.706 0.056,-0.355 0.127,-0.68 0.008,-0.036 0.025,-0.06 0.017,-0.024 0.037,-0.036 0.02,-0.014 0.04,-0.02 0.022,-0.005 0.036,-0.005 0.048,0 0.079,0.028 0.03,0.025 0.03,0.07 0,0.05 -0.016,0.18 -0.017,0.128 -0.045,0.3 -0.028,0.17 -0.065,0.36 -0.034,0.193 -0.068,0.37 -0.034,0.179 -0.065,0.326 -0.03,0.146 -0.05,0.222 -0.018,0.065 -0.051,0.1 -0.034,0.03 -0.1,0.03 -0.067,0 -0.115,-0.06 -0.045,-0.061 -0.101,-0.191 -0.054,-0.13 -0.13,-0.33 -0.076,-0.203 -0.198,-0.486 -0.124,0.283 -0.203,0.486 -0.076,0.203 -0.133,0.333 -0.053,0.13 -0.101,0.192 -0.048,0.06 -0.113,0.06 -0.113,0 -0.15,-0.13 -0.022,-0.077 -0.053,-0.22 -0.031,-0.148 -0.065,-0.325 l -0.065,-0.367 q -0.034,-0.192 -0.06,-0.362 L 99.54,12.345 q -0.014,-0.13 -0.014,-0.18 0,-0.05 0.031,-0.08 0.031,-0.03 0.088,-0.03 0.04,0 0.076,0.025 0.037,0.022 0.053,0.096 0.068,0.324 0.119,0.68 0.054,0.356 0.113,0.705 0.087,-0.206 0.175,-0.437 0.087,-0.231 0.217,-0.52 z m 2.023,0.744 -0.082,0.006 h -0.178 q -0.048,0 -0.107,-0.006 v 0.573 q 0,0.09 -0.045,0.113 -0.042,0.02 -0.107,0.02 -0.034,0 -0.054,-0.006 -0.02,-0.003 -0.034,-0.014 -0.011,-0.014 -0.02,-0.04 -0.005,-0.025 -0.008,-0.07 -0.006,-0.051 -0.009,-0.147 l -0.005,-0.254 q 0,-0.155 -0.003,-0.375 v -0.523 q 0,-0.115 0.028,-0.222 0.029,-0.11 0.102,-0.192 0.073,-0.085 0.197,-0.136 0.127,-0.05 0.322,-0.05 0.138,0 0.268,0.03 0.133,0.03 0.235,0.108 0.101,0.076 0.163,0.206 0.062,0.13 0.062,0.324 0,0.26 -0.113,0.404 -0.11,0.14 -0.304,0.2 l 0.378,0.52 q 0.05,0.067 0.05,0.138 0,0.056 -0.039,0.087 -0.037,0.034 -0.093,0.034 -0.062,0 -0.107,-0.034 -0.045,-0.036 -0.085,-0.093 z m 0.443,-0.657 q 0,-0.195 -0.118,-0.288 -0.116,-0.096 -0.37,-0.096 -0.093,0 -0.155,0.017 -0.062,0.014 -0.1,0.056 -0.036,0.042 -0.053,0.119 -0.014,0.073 -0.014,0.189 v 0.192 q 0,0.11 0.003,0.2 0.065,0.003 0.144,0.003 h 0.152 q 0.08,0 0.167,-0.008 0.09,-0.011 0.166,-0.05 0.076,-0.043 0.127,-0.12 0.051,-0.078 0.051,-0.214 z m 0.573,1.177 q -0.005,-0.102 -0.008,-0.212 0,-0.11 -0.003,-0.237 -0.003,-0.127 -0.003,-0.274 v -0.333 q 0,-0.2 0.003,-0.341 0.003,-0.144 0.017,-0.235 0.014,-0.09 0.042,-0.132 0.032,-0.043 0.082,-0.043 0.026,0 0.048,0.006 0.023,0.006 0.04,0.026 0.017,0.017 0.028,0.053 0.014,0.034 0.017,0.09 0.006,0.102 0.008,0.18 l 0.006,0.159 q 0.003,0.077 0.003,0.16 v 0.43 q 0,0.116 -0.003,0.229 l -0.006,0.228 q -0.002,0.116 -0.008,0.243 -0.003,0.068 -0.014,0.105 -0.011,0.036 -0.028,0.056 -0.017,0.02 -0.04,0.023 -0.022,0.006 -0.05,0.006 -0.051,0 -0.088,-0.034 -0.037,-0.037 -0.043,-0.153 z m 1.717,-1.541 q -0.079,0.006 -0.169,0.008 l -0.195,0.006 0.006,0.144 0.006,0.132 q 0.002,0.068 0.002,0.14 0.003,0.075 0.003,0.165 v 0.246 q 0,0.115 -0.003,0.234 l -0.005,0.234 q -0.003,0.119 -0.009,0.246 -0.002,0.067 -0.014,0.104 -0.008,0.037 -0.025,0.056 -0.017,0.02 -0.04,0.023 -0.022,0.006 -0.05,0.006 -0.051,0 -0.088,-0.034 -0.034,-0.037 -0.04,-0.152 -0.005,-0.102 -0.008,-0.215 0,-0.113 -0.003,-0.242 -0.003,-0.13 -0.003,-0.28 v -0.606 q 0.003,-0.116 0.009,-0.201 h -0.116 q -0.118,0 -0.203,-0.003 -0.082,-0.003 -0.135,-0.014 -0.054,-0.014 -0.08,-0.042 -0.022,-0.03 -0.022,-0.08 0,-0.025 0.006,-0.045 0.005,-0.022 0.025,-0.04 0.02,-0.02 0.054,-0.03 0.036,-0.011 0.093,-0.017 l 0.096,-0.006 0.084,-0.006 q 0.043,-0.003 0.088,-0.003 h 0.104 q 0.167,0 0.313,0.003 0.15,0.003 0.317,0.01 0.067,0.007 0.104,0.018 0.037,0.008 0.056,0.026 0.02,0.016 0.023,0.04 0.006,0.022 0.006,0.05 0,0.05 -0.037,0.085 -0.034,0.033 -0.15,0.04 z m 0.403,1.287 q -0.006,-0.09 -0.012,-0.246 -0.006,-0.155 -0.006,-0.32 v -0.191 l 0.006,-0.206 q 0.006,-0.21 0.025,-0.327 0.023,-0.12 0.085,-0.178 0.065,-0.06 0.18,-0.073 0.116,-0.014 0.308,-0.014 h 0.06 q 0.059,0 0.14,0.003 0.083,0 0.17,0.003 l 0.15,0.006 q 0.062,0.006 0.098,0.016 0.04,0.008 0.06,0.026 0.02,0.014 0.025,0.037 0.006,0.02 0.006,0.045 0,0.065 -0.037,0.096 -0.037,0.028 -0.15,0.036 -0.056,0.006 -0.166,0.008 h -0.22 q -0.113,0 -0.203,0.003 h -0.113 q -0.074,0.003 -0.105,0.034 -0.028,0.028 -0.028,0.139 l 0.003,0.124 q 0.005,0.096 0.005,0.27 h 0.235 q 0.15,0 0.242,0.007 0.096,0.003 0.147,0.017 0.054,0.014 0.074,0.045 0.02,0.03 0.02,0.082 0,0.025 -0.006,0.048 -0.003,0.02 -0.023,0.036 -0.02,0.014 -0.056,0.026 -0.037,0.008 -0.105,0.014 -0.082,0.006 -0.155,0.008 h -0.378 v 0.344 l 0.005,0.096 q 0.003,0.045 0.012,0.076 0.011,0.03 0.036,0.05 0.029,0.02 0.08,0.029 0.053,0.008 0.14,0.008 h 0.607 q 0.1,0 0.125,0.037 0.025,0.037 0.025,0.099 0,0.05 -0.023,0.079 -0.022,0.025 -0.11,0.036 -0.084,0.014 -0.257,0.017 -0.169,0.003 -0.468,0.003 -0.127,0 -0.209,-0.022 -0.082,-0.023 -0.133,-0.077 -0.05,-0.053 -0.076,-0.138 -0.022,-0.087 -0.03,-0.211 z"
       word-spacing="0"
       letter-spacing="0"
       font-weight="400"
       font-size="2.822"
       aria-label="WRITE"
       id="path146"
       inkscape:connector-curvature="0" />
  </g>
  <rect
     rx="0.99000001"
     ry="0.99000001"
     y="51.316002"
     x="1.9987268"
     height="3.043"
     width="11.799"
     id="rect150"
     style="fill:#333333;stroke:#8c8c8c;stroke-width:0.132;paint-order:stroke markers fill" />
  <path
     word-spacing="0"
     letter-spacing="0"
     font-size="2.822"
     font-weight="400"
     style="font-weight:400;font-size:2.82200003px;line-height:1.25;font-family:Sniglet;-inkscape-font-specification:'Sniglet, Normal';font-variant-ligatures:normal;font-variant-caps:normal;font-variant-numeric:normal;font-feature-settings:normal;text-align:start;letter-spacing:0;word-spacing:0;fill:#c8c8c8"
     d="m 4.0727263,52.322 q 0.016,-0.039 0.05,-0.065 0.037,-0.025 0.077,-0.025 0.036,0 0.07,0.025 0.034,0.023 0.054,0.062 0.107,0.22 0.211,0.477 0.105,0.254 0.19,0.483 0.047,-0.35 0.104,-0.706 0.056,-0.355 0.127,-0.68 0.008,-0.037 0.025,-0.059 0.017,-0.025 0.037,-0.037 0.02,-0.014 0.04,-0.02 0.022,-0.01 0.036,-0.01 0.048,0 0.08,0.028 0.03,0.025 0.03,0.071 0,0.051 -0.017,0.18 -0.017,0.128 -0.045,0.3 -0.028,0.17 -0.065,0.361 -0.034,0.192 -0.068,0.37 -0.033,0.178 -0.064,0.324 -0.032,0.147 -0.051,0.223 -0.017,0.065 -0.051,0.1 -0.034,0.03 -0.099,0.03 -0.068,0 -0.116,-0.059 -0.045,-0.062 -0.101,-0.192 -0.054,-0.13 -0.13,-0.33 -0.076,-0.203 -0.197,-0.485 -0.125,0.282 -0.204,0.485 -0.076,0.203 -0.132,0.333 -0.054,0.13 -0.102,0.192 -0.048,0.06 -0.113,0.06 -0.113,0 -0.15,-0.13 -0.022,-0.077 -0.053,-0.22 -0.031,-0.147 -0.065,-0.325 -0.03,-0.178 -0.065,-0.367 -0.034,-0.192 -0.06,-0.361 -0.025,-0.17 -0.041,-0.297 -0.015,-0.13 -0.015,-0.18 0,-0.048 0.031,-0.08 0.031,-0.03 0.088,-0.03 0.04,0 0.076,0.025 0.037,0.023 0.054,0.096 0.067,0.324 0.118,0.68 0.054,0.355 0.113,0.705 0.088,-0.206 0.175,-0.437 0.088,-0.231 0.218,-0.52 z m 2.022,0.746 q -0.04,0 -0.081,0.01 h -0.178 q -0.048,0 -0.107,-0.01 v 0.572 q 0,0.09 -0.046,0.113 -0.042,0.02 -0.107,0.02 -0.034,0 -0.054,-0.01 -0.02,0 -0.033,-0.014 -0.012,-0.014 -0.02,-0.039 -0.006,-0.025 -0.008,-0.07 -0.006,-0.052 -0.008,-0.148 l -0.006,-0.254 q 0,-0.155 -0.003,-0.375 v -0.522 q 0,-0.116 0.028,-0.223 0.028,-0.11 0.102,-0.192 0.073,-0.085 0.197,-0.135 0.127,-0.051 0.322,-0.051 0.138,0 0.268,0.03 0.133,0.032 0.234,0.108 0.102,0.076 0.164,0.206 0.062,0.13 0.062,0.324 0,0.26 -0.113,0.404 -0.11,0.141 -0.305,0.2 l 0.379,0.52 q 0.05,0.068 0.05,0.138 0,0.056 -0.04,0.088 -0.036,0.034 -0.092,0.034 -0.062,0 -0.108,-0.034 -0.045,-0.037 -0.084,-0.093 z m 0.443,-0.658 q 0,-0.195 -0.118,-0.288 -0.116,-0.096 -0.37,-0.096 -0.093,0 -0.155,0.017 -0.062,0.014 -0.099,0.056 -0.036,0.042 -0.053,0.118 -0.014,0.073 -0.014,0.19 v 0.191 q 0,0.11 0.003,0.2 h 0.296 q 0.079,0 0.166,-0.01 0.09,-0.01 0.167,-0.05 0.076,-0.042 0.127,-0.119 0.05,-0.079 0.05,-0.214 z m 0.574,1.177 q -0.006,-0.102 -0.008,-0.212 0,-0.11 -0.003,-0.237 -0.003,-0.127 -0.003,-0.274 v -0.333 q 0,-0.2 0.003,-0.341 0.003,-0.144 0.017,-0.235 0.014,-0.09 0.042,-0.132 0.031,-0.042 0.082,-0.042 0.025,0 0.048,0.01 0.022,0.01 0.04,0.025 0.016,0.017 0.028,0.054 0.014,0.034 0.016,0.09 0.006,0.101 0.008,0.18 l 0.006,0.158 q 0.003,0.076 0.003,0.161 v 0.429 q 0,0.116 -0.003,0.229 l -0.006,0.229 -0.008,0.242 q -0.003,0.068 -0.014,0.105 -0.01,0.037 -0.028,0.057 -0.017,0.02 -0.04,0.023 -0.022,0.01 -0.05,0.01 -0.05,0 -0.088,-0.034 -0.036,-0.037 -0.042,-0.153 z m 1.717,-1.541 q -0.08,0.01 -0.17,0.01 -0.087,0 -0.194,0.01 l 0.006,0.144 0.006,0.132 q 0.003,0.068 0.003,0.141 0.003,0.073 0.003,0.164 v 0.246 q 0,0.115 -0.003,0.234 l -0.006,0.234 -0.008,0.246 q -0.003,0.068 -0.014,0.104 -0.008,0.037 -0.026,0.056 -0.017,0.02 -0.04,0.023 -0.022,0.01 -0.05,0.01 -0.05,0 -0.088,-0.034 -0.033,-0.037 -0.039,-0.152 -0.006,-0.102 -0.008,-0.215 0,-0.113 -0.003,-0.243 -0.003,-0.13 -0.003,-0.279 v -0.606 q 0.003,-0.116 0.008,-0.201 h -0.319 q -0.082,0 -0.135,-0.014 -0.054,-0.014 -0.08,-0.042 -0.022,-0.028 -0.022,-0.08 0,-0.024 0.006,-0.044 0.006,-0.023 0.025,-0.04 0.02,-0.02 0.054,-0.031 0.037,-0.011 0.093,-0.017 0.054,0 0.096,-0.01 0.042,0 0.085,-0.01 h 0.505 q 0.15,0 0.316,0.01 0.068,0.01 0.104,0.018 0.037,0.01 0.057,0.025 0.02,0.017 0.022,0.04 0.006,0.023 0.006,0.05 0,0.052 -0.036,0.086 -0.034,0.034 -0.15,0.039 z m 0.402,1.287 q -0.006,-0.09 -0.012,-0.246 -0.006,-0.155 -0.006,-0.319 v -0.192 l 0.006,-0.206 q 0.006,-0.209 0.026,-0.327 0.022,-0.119 0.084,-0.178 0.065,-0.059 0.181,-0.073 0.116,-0.014 0.308,-0.014 h 0.3699997 q 0.09,0 0.15,0.01 l 0.098,0.017 q 0.04,0.01 0.06,0.025 0.019,0.014 0.025,0.037 0.006,0.02 0.006,0.045 0,0.065 -0.037,0.096 -0.037,0.028 -0.15,0.037 -0.056,0.01 -0.166,0.01 H 9.6377263 q -0.074,0 -0.105,0.034 -0.028,0.028 -0.028,0.138 l 0.003,0.125 q 0.006,0.096 0.006,0.27 h 0.234 q 0.15,0 0.243,0.01 0.096,0 0.1469997,0.017 0.053,0.014 0.073,0.045 0.02,0.031 0.02,0.082 0,0.025 -0.006,0.048 -0.003,0.02 -0.023,0.037 -0.02,0.014 -0.056,0.025 -0.037,0.01 -0.105,0.014 -0.081,0.01 -0.1549997,0.01 h -0.378 v 0.345 l 0.006,0.096 q 0.003,0.045 0.011,0.076 0.012,0.03 0.037,0.05 0.028,0.02 0.079,0.029 0.054,0.01 0.141,0.01 h 0.6069997 q 0.099,0 0.124,0.037 0.025,0.037 0.025,0.099 0,0.05 -0.022,0.079 -0.023,0.025 -0.11,0.037 -0.085,0.014 -0.257,0.017 H 9.6807263 q -0.127,0 -0.21,-0.023 -0.081,-0.023 -0.132,-0.076 -0.05,-0.054 -0.076,-0.139 -0.023,-0.088 -0.031,-0.211 z m 2.8039997,-1.261 q 0.16,0 0.288,0.051 0.127,0.048 0.214,0.139 0.09,0.09 0.138,0.22 0.048,0.13 0.048,0.29 0,0.178 -0.056,0.32 -0.054,0.14 -0.152,0.24 -0.096,0.098 -0.232,0.152 -0.132,0.054 -0.29,0.054 -0.173,0 -0.305,-0.06 -0.13,-0.058 -0.22,-0.16 -0.088,-0.102 -0.133,-0.235 -0.045,-0.132 -0.045,-0.279 0,-0.16 0.05,-0.293 0.054,-0.136 0.15,-0.232 0.099,-0.099 0.237,-0.152 0.138,-0.054 0.308,-0.054 z m -0.031,1.205 q 0.116,0 0.197,-0.039 0.082,-0.042 0.133,-0.11 0.054,-0.068 0.076,-0.152 0.026,-0.088 0.026,-0.18 0,-0.097 -0.026,-0.178 -0.022,-0.085 -0.073,-0.147 -0.048,-0.062 -0.127,-0.096 -0.076,-0.037 -0.184,-0.037 -0.11,0 -0.192,0.037 -0.081,0.037 -0.138,0.101 -0.053,0.062 -0.082,0.15 -0.028,0.088 -0.028,0.189 0,0.206 0.105,0.336 0.107,0.127 0.313,0.127 z"
     id="path152"
     inkscape:connector-curvature="0" />
  <rect
     rx="0.99000001"
     ry="0.99000001"
     y="64.481003"
     x="2.03473"
     height="3.043"
     width="11.799"
     id="rect154"
     style="fill:#333333;stroke:#8c8c8c;stroke-width:0.132;paint-order:stroke markers fill" />
  <path
     word-spacing="0"
     letter-spacing="0"
     font-size="2.822"
     font-weight="400"
     style="font-weight:400;font-size:2.82200003px;line-height:1.25;font-family:Sniglet;-inkscape-font-specification:'Sniglet, Normal';font-variant-ligatures:normal;font-variant-caps:normal;font-variant-numeric:normal;font-feature-settings:normal;text-align:start;letter-spacing:0;word-spacing:0;fill:#c8c8c8"
     d="m 4.1077263,65.488 q 0.017,-0.04 0.051,-0.066 0.037,-0.025 0.077,-0.025 0.036,0 0.07,0.025 0.034,0.023 0.054,0.062 0.107,0.22 0.211,0.477 0.105,0.254 0.19,0.483 0.048,-0.35 0.104,-0.706 0.056,-0.355 0.127,-0.68 0.008,-0.037 0.025,-0.059 0.017,-0.025 0.037,-0.037 0.02,-0.014 0.04,-0.02 0.022,-0.01 0.036,-0.01 0.048,0 0.08,0.028 0.03,0.025 0.03,0.071 0,0.051 -0.017,0.18 -0.017,0.128 -0.045,0.3 -0.028,0.17 -0.065,0.361 l -0.067,0.37 q -0.034,0.178 -0.065,0.324 -0.03,0.147 -0.05,0.223 -0.018,0.065 -0.052,0.1 -0.034,0.03 -0.099,0.03 -0.067,0 -0.115,-0.059 -0.046,-0.062 -0.102,-0.192 -0.054,-0.13 -0.13,-0.33 -0.076,-0.203 -0.197,-0.485 -0.125,0.282 -0.204,0.485 -0.076,0.203 -0.132,0.333 -0.054,0.13 -0.102,0.192 -0.048,0.06 -0.113,0.06 -0.113,0 -0.15,-0.13 -0.022,-0.077 -0.053,-0.22 l -0.065,-0.325 -0.065,-0.367 q -0.034,-0.192 -0.06,-0.36 l -0.04,-0.298 q -0.015,-0.13 -0.015,-0.18 0,-0.048 0.03,-0.08 0.032,-0.03 0.088,-0.03 0.04,0 0.076,0.025 0.037,0.023 0.054,0.096 0.068,0.324 0.118,0.68 0.054,0.355 0.113,0.705 0.088,-0.206 0.175,-0.437 0.088,-0.23 0.218,-0.52 z m 2.023,0.744 q -0.04,0 -0.08,0.01 h -0.179 q -0.048,0 -0.108,-0.01 v 0.573 q 0,0.09 -0.045,0.113 -0.042,0.02 -0.107,0.02 -0.034,0 -0.054,-0.01 -0.02,0 -0.033,-0.014 -0.012,-0.014 -0.02,-0.039 -0.006,-0.025 -0.008,-0.07 -0.006,-0.052 -0.008,-0.148 l -0.006,-0.254 q 0,-0.155 -0.003,-0.375 v -0.522 q 0,-0.116 0.028,-0.223 0.028,-0.11 0.102,-0.192 0.073,-0.085 0.197,-0.135 0.127,-0.05 0.322,-0.05 0.138,0 0.268,0.03 0.133,0.031 0.234,0.107 0.102,0.076 0.164,0.206 0.062,0.13 0.062,0.324 0,0.26 -0.113,0.404 -0.11,0.141 -0.305,0.2 l 0.378,0.52 q 0.051,0.068 0.051,0.138 0,0.056 -0.04,0.088 -0.036,0.034 -0.092,0.034 -0.062,0 -0.108,-0.034 -0.045,-0.037 -0.084,-0.093 z m 0.444,-0.657 q 0,-0.195 -0.119,-0.288 -0.116,-0.096 -0.37,-0.096 -0.093,0 -0.155,0.017 -0.062,0.014 -0.099,0.056 -0.036,0.042 -0.053,0.118 -0.014,0.073 -0.014,0.19 v 0.191 q 0,0.11 0.003,0.2 h 0.296 q 0.08,0 0.166,-0.01 0.09,-0.01 0.167,-0.05 0.076,-0.042 0.127,-0.119 0.05,-0.079 0.05,-0.214 z m 0.573,1.177 q -0.006,-0.102 -0.01,-0.212 l -0.002,-0.237 q -0.003,-0.127 -0.003,-0.274 v -0.333 q 0,-0.2 0.003,-0.34 0.003,-0.145 0.017,-0.236 0.014,-0.09 0.042,-0.132 0.031,-0.042 0.082,-0.042 0.025,0 0.048,0.01 0.023,0.01 0.04,0.025 0.016,0.017 0.028,0.054 0.014,0.034 0.017,0.09 0.006,0.101 0.008,0.18 l 0.006,0.158 q 0.003,0.076 0.003,0.161 v 0.43 q 0,0.115 -0.003,0.228 l -0.006,0.23 -0.008,0.241 q -0.003,0.068 -0.015,0.105 -0.01,0.037 -0.028,0.057 -0.017,0.02 -0.04,0.023 -0.022,0.01 -0.05,0.01 -0.05,0 -0.088,-0.034 -0.036,-0.037 -0.042,-0.153 z m 1.717,-1.54 q -0.08,0.01 -0.17,0.01 -0.087,0 -0.194,0.01 l 0.006,0.143 0.006,0.132 q 0.003,0.068 0.003,0.141 0.003,0.073 0.003,0.164 v 0.246 q 0,0.115 -0.003,0.234 l -0.006,0.234 -0.008,0.246 q -0.003,0.068 -0.014,0.104 -0.008,0.037 -0.026,0.056 -0.017,0.02 -0.04,0.023 -0.022,0.01 -0.05,0.01 -0.05,0 -0.087,-0.034 -0.034,-0.037 -0.04,-0.152 -0.006,-0.102 -0.008,-0.215 0,-0.113 -0.003,-0.243 -0.003,-0.13 -0.003,-0.279 v -0.606 q 0.003,-0.116 0.008,-0.2 h -0.319 q -0.082,0 -0.135,-0.015 -0.054,-0.014 -0.08,-0.042 -0.022,-0.028 -0.022,-0.08 0,-0.024 0.006,-0.044 0.006,-0.023 0.025,-0.04 0.02,-0.02 0.054,-0.03 0.037,-0.012 0.093,-0.018 0.054,0 0.096,-0.01 0.042,0 0.085,-0.01 h 0.505 q 0.15,0 0.316,0.01 0.068,0.01 0.105,0.018 0.036,0.01 0.056,0.025 0.02,0.017 0.023,0.04 0.006,0.023 0.006,0.05 0,0.052 -0.037,0.086 -0.034,0.034 -0.15,0.04 z m 0.402,1.286 q -0.006,-0.09 -0.012,-0.246 -0.006,-0.155 -0.006,-0.319 v -0.192 l 0.006,-0.206 q 0.006,-0.209 0.026,-0.327 0.022,-0.119 0.085,-0.178 0.064,-0.059 0.18,-0.073 0.116,-0.014 0.308,-0.014 h 0.3699997 q 0.09,0 0.15,0.01 l 0.098,0.017 q 0.04,0.01 0.06,0.025 0.02,0.014 0.025,0.037 0.006,0.02 0.006,0.045 0,0.065 -0.037,0.096 -0.037,0.028 -0.15,0.037 -0.056,0.01 -0.166,0.01 H 9.6737263 q -0.074,0 -0.105,0.034 -0.028,0.028 -0.028,0.138 l 0.003,0.125 q 0.006,0.096 0.006,0.27 h 0.234 q 0.15,0 0.2429997,0.01 0.096,0 0.147,0.017 0.053,0.014 0.073,0.045 0.02,0.031 0.02,0.082 0,0.025 -0.006,0.048 -0.003,0.02 -0.023,0.037 -0.02,0.014 -0.056,0.025 -0.037,0.01 -0.105,0.014 -0.08,0.01 -0.1549997,0.01 h -0.379 v 0.345 l 0.006,0.096 q 0.003,0.045 0.012,0.076 0.01,0.03 0.036,0.05 0.028,0.02 0.08,0.03 0.053,0.01 0.14,0.01 h 0.6069997 q 0.1,0 0.124,0.036 0.026,0.037 0.026,0.1 0,0.05 -0.023,0.078 -0.022,0.025 -0.11,0.037 -0.085,0.014 -0.257,0.017 H 9.7157263 q -0.127,0 -0.21,-0.023 -0.08,-0.023 -0.132,-0.076 -0.05,-0.054 -0.076,-0.139 -0.023,-0.088 -0.03,-0.21 z"
     id="path156"
     inkscape:connector-curvature="0" />
  <ellipse
     ry="0.72299999"
     rx="0.71399999"
     cy="65.945"
     cx="12.056726"
     id="ellipse158"
     style="fill:#c8c8c8;paint-order:markers stroke fill" />
  <rect
     rx="0.99000001"
     ry="0.99000001"
     y="38.077"
     x="1.6607294"
     height="3.043"
     width="12.574"
     id="rect160"
     style="fill:#333333;stroke:#8c8c8c;stroke-width:0.132;paint-order:stroke markers fill" />
  <g
     aria-label="GATE 1"
     id="g166"
     transform="translate(-95.250274)">
    <g
       style="line-height:1.25"
       aria-label="GATE IN"
       id="g164">
      <path
         style="font-weight:400;font-size:2.82200003px;font-family:Sniglet;-inkscape-font-specification:'Sniglet, Normal';font-variant-ligatures:normal;font-variant-caps:normal;font-variant-numeric:normal;font-feature-settings:normal;text-align:start;letter-spacing:0;word-spacing:0;fill:#c8c8c8"
         d="m 98.679,40.379 q 0,0.067 -0.014,0.104 -0.011,0.037 -0.03,0.057 -0.018,0.02 -0.043,0.022 -0.023,0.006 -0.045,0.006 -0.077,0 -0.102,-0.034 Q 98.422,40.5 98.414,40.382 98.408,40.32 98.405,40.202 L 98.4,39.919 q 0,-0.164 -0.003,-0.361 V 39.14 q 0,-0.104 0.025,-0.212 0.026,-0.107 0.096,-0.194 0.074,-0.088 0.2,-0.141 0.13,-0.054 0.337,-0.054 0.144,0 0.273,0.03 0.13,0.032 0.229,0.108 0.099,0.076 0.158,0.203 0.06,0.127 0.06,0.316 0,0.198 -0.066,0.328 -0.064,0.13 -0.183,0.206 -0.119,0.076 -0.282,0.107 -0.164,0.03 -0.359,0.03 h -0.096 q -0.048,0 -0.107,-0.005 z m 0.813,-1.188 q 0,-0.19 -0.107,-0.286 -0.105,-0.095 -0.35,-0.095 -0.093,0 -0.161,0.016 -0.065,0.015 -0.107,0.054 -0.043,0.037 -0.065,0.102 -0.02,0.065 -0.02,0.163 v 0.22 q 0,0.122 0.003,0.23 0.065,0.002 0.144,0.002 h 0.152 q 0.085,0 0.175,-0.011 0.093,-0.011 0.167,-0.051 0.073,-0.042 0.121,-0.121 0.048,-0.082 0.048,-0.223 z m 1.161,0.67 -0.082,0.007 h -0.178 q -0.048,0 -0.107,-0.006 v 0.573 q 0,0.09 -0.045,0.113 -0.042,0.02 -0.107,0.02 -0.034,0 -0.054,-0.006 -0.02,-0.003 -0.034,-0.014 -0.011,-0.014 -0.02,-0.04 -0.005,-0.025 -0.008,-0.07 -0.006,-0.051 -0.008,-0.147 l -0.006,-0.254 q 0,-0.155 -0.003,-0.376 v -0.522 q 0,-0.115 0.028,-0.223 0.029,-0.11 0.102,-0.192 0.073,-0.084 0.197,-0.135 0.127,-0.05 0.322,-0.05 0.138,0 0.268,0.03 0.133,0.03 0.235,0.107 0.101,0.077 0.163,0.206 0.062,0.13 0.062,0.325 0,0.26 -0.113,0.404 -0.11,0.14 -0.304,0.2 l 0.378,0.52 q 0.05,0.067 0.05,0.138 0,0.056 -0.039,0.087 -0.037,0.034 -0.093,0.034 -0.062,0 -0.107,-0.034 -0.045,-0.037 -0.085,-0.093 z m 0.443,-0.656 q 0,-0.195 -0.118,-0.288 -0.116,-0.096 -0.37,-0.096 -0.093,0 -0.155,0.017 -0.062,0.014 -0.1,0.056 -0.036,0.042 -0.053,0.119 -0.014,0.073 -0.014,0.189 v 0.192 q 0,0.11 0.003,0.2 0.065,0.003 0.144,0.003 h 0.152 q 0.08,0 0.167,-0.008 0.09,-0.011 0.166,-0.05 0.076,-0.043 0.127,-0.12 0.051,-0.078 0.051,-0.214 z m 1.288,1.379 q -0.17,0 -0.32,-0.067 -0.146,-0.068 -0.256,-0.195 -0.11,-0.13 -0.175,-0.316 -0.062,-0.186 -0.062,-0.423 0,-0.223 0.053,-0.41 0.057,-0.186 0.164,-0.321 0.11,-0.136 0.271,-0.21 0.16,-0.075 0.373,-0.075 0.172,0 0.327,0.062 0.155,0.062 0.27,0.186 0.12,0.124 0.187,0.31 0.068,0.187 0.068,0.435 0,0.206 -0.057,0.393 -0.053,0.186 -0.166,0.327 -0.11,0.138 -0.28,0.223 -0.169,0.082 -0.397,0.082 z m 0.005,-0.265 q 0.155,0 0.271,-0.062 0.116,-0.065 0.192,-0.17 0.076,-0.103 0.113,-0.24 0.037,-0.137 0.037,-0.281 0,-0.175 -0.048,-0.31 -0.046,-0.14 -0.125,-0.232 -0.079,-0.093 -0.183,-0.141 -0.104,-0.05 -0.223,-0.05 -0.141,0 -0.248,0.058 -0.105,0.06 -0.178,0.16 -0.07,0.103 -0.107,0.24 -0.037,0.137 -0.037,0.29 0,0.168 0.042,0.307 0.043,0.135 0.113,0.23 0.074,0.097 0.172,0.15 0.1,0.05 0.21,0.05 z m 1.695,0.237 q -0.158,0 -0.254,-0.025 -0.096,-0.025 -0.15,-0.07 -0.05,-0.048 -0.07,-0.116 -0.017,-0.068 -0.026,-0.153 -0.008,-0.098 -0.014,-0.26 -0.003,-0.163 -0.003,-0.338 v -0.178 q 0.003,-0.096 0.003,-0.186 l 0.006,-0.172 q 0.003,-0.08 0.008,-0.136 0.009,-0.087 0.029,-0.158 0.02,-0.07 0.073,-0.12 0.056,-0.052 0.155,-0.077 0.102,-0.028 0.268,-0.028 0.378,0 0.565,0.14 0.189,0.14 0.189,0.396 0,0.133 -0.06,0.245 -0.056,0.113 -0.197,0.17 0.079,0.014 0.144,0.06 0.065,0.044 0.11,0.11 0.048,0.06 0.07,0.14 0.026,0.076 0.026,0.155 0,0.102 -0.042,0.21 -0.043,0.104 -0.144,0.19 -0.102,0.089 -0.271,0.145 -0.167,0.057 -0.415,0.057 z m 0.59,-0.61 q 0,-0.1 -0.048,-0.163 -0.045,-0.062 -0.119,-0.093 -0.073,-0.034 -0.163,-0.045 -0.09,-0.011 -0.181,-0.011 h -0.147 q -0.076,0 -0.14,0.003 l -0.007,0.12 -0.005,0.12 v 0.152 q 0,0.076 0.011,0.127 0.011,0.05 0.042,0.082 0.032,0.03 0.088,0.045 0.06,0.01 0.15,0.01 0.248,0 0.383,-0.086 0.136,-0.088 0.136,-0.26 z m -0.522,-1.14 q -0.093,0 -0.153,0.018 -0.056,0.014 -0.087,0.04 -0.028,0.025 -0.04,0.06 -0.008,0.038 -0.008,0.08 v 0.395 q 0.04,0.003 0.082,0.003 h 0.084 q 0.102,0 0.198,-0.014 0.099,-0.014 0.178,-0.048 0.079,-0.034 0.127,-0.093 0.048,-0.06 0.048,-0.152 0,-0.127 -0.105,-0.206 -0.101,-0.082 -0.324,-0.082 z m 1.69,1.576 q -0.005,-0.102 -0.008,-0.212 0,-0.11 -0.003,-0.237 -0.003,-0.127 -0.003,-0.274 v -0.333 q 0,-0.2 0.003,-0.341 0.003,-0.144 0.017,-0.235 0.014,-0.09 0.042,-0.132 0.031,-0.043 0.082,-0.043 0.025,0 0.048,0.006 0.023,0.006 0.04,0.026 0.016,0.017 0.028,0.053 0.014,0.034 0.017,0.09 l 0.008,0.18 0.006,0.159 q 0.003,0.076 0.003,0.16 v 0.43 q 0,0.116 -0.003,0.229 l -0.006,0.228 -0.008,0.243 q -0.003,0.068 -0.014,0.104 -0.012,0.037 -0.029,0.057 -0.017,0.02 -0.04,0.022 -0.022,0.006 -0.05,0.006 -0.05,0 -0.087,-0.033 -0.037,-0.037 -0.043,-0.153 z m 1.765,0.042 q -0.09,-0.124 -0.173,-0.246 l -0.172,-0.27 q -0.09,-0.147 -0.209,-0.325 -0.115,-0.18 -0.28,-0.42 v 0.38 q 0,0.167 -0.002,0.31 l -0.005,0.272 q -0.003,0.127 -0.009,0.254 -0.003,0.067 -0.014,0.104 -0.009,0.037 -0.025,0.057 -0.017,0.02 -0.04,0.022 -0.02,0.006 -0.048,0.006 -0.05,0 -0.085,-0.034 -0.034,-0.036 -0.04,-0.152 -0.013,-0.31 -0.016,-0.621 v -0.646 q 0,-0.19 0.003,-0.297 0.005,-0.107 0.02,-0.16 0.016,-0.054 0.042,-0.068 0.028,-0.014 0.073,-0.014 0.045,0 0.119,0.07 0.073,0.068 0.16,0.18 0.088,0.114 0.187,0.26 0.101,0.147 0.2,0.302 0.099,0.156 0.19,0.308 l 0.169,0.277 q -0.003,-0.133 -0.003,-0.291 v -0.356 q 0,-0.223 0.003,-0.367 0.002,-0.146 0.014,-0.23 0.014,-0.086 0.042,-0.12 0.028,-0.033 0.08,-0.033 0.047,0 0.084,0.03 0.036,0.032 0.042,0.145 l 0.009,0.18 0.005,0.158 q 0.003,0.076 0.003,0.16 v 0.43 q 0,0.116 -0.003,0.229 l -0.005,0.228 q -0.003,0.116 -0.009,0.243 -0.003,0.068 -0.014,0.104 -0.008,0.037 -0.025,0.057 -0.017,0.02 -0.04,0.022 -0.02,0.006 -0.048,0.006 -0.048,0 -0.082,-0.028 -0.034,-0.028 -0.098,-0.115 z"
         font-size="2.822"
         aria-label="PROB IN"
         word-spacing="0"
         letter-spacing="0"
         font-weight="400"
         id="path162"
         inkscape:connector-curvature="0" />
    </g>
  </g>
</svg>
