<?xml version="1.0" encoding="UTF-8" standalone="no"?>
<svg
   xmlns:dc="http://purl.org/dc/elements/1.1/"
   xmlns:cc="http://creativecommons.org/ns#"
   xmlns:rdf="http://www.w3.org/1999/02/22-rdf-syntax-ns#"
   xmlns:svg="http://www.w3.org/2000/svg"
   xmlns="http://www.w3.org/2000/svg"
   xmlns:xlink="http://www.w3.org/1999/xlink"
   xmlns:sodipodi="http://sodipodi.sourceforge.net/DTD/sodipodi-0.dtd"
   xmlns:inkscape="http://www.inkscape.org/namespaces/inkscape"
   width="60"
   height="380"
   viewBox="0 0 15.875059 100.542"
   version="1.1"
   id="svg323"
   sodipodi:docname="PhraseSeqExpander_dark.svg"
   inkscape:version="0.92.3 (2405546, 2018-03-11)">
  <metadata
     id="metadata327">
    <rdf:RDF>
      <cc:Work
         rdf:about="">
        <dc:format>image/svg+xml</dc:format>
        <dc:type
           rdf:resource="http://purl.org/dc/dcmitype/StillImage" />
        <dc:title></dc:title>
      </cc:Work>
    </rdf:RDF>
  </metadata>
  <sodipodi:namedview
     pagecolor="#ffffff"
     bordercolor="#666666"
     borderopacity="1"
     objecttolerance="10"
     gridtolerance="10"
     guidetolerance="10"
     inkscape:pageopacity="0"
     inkscape:pageshadow="2"
     inkscape:window-width="1920"
     inkscape:window-height="1017"
     id="namedview325"
     showgrid="false"
     inkscape:zoom="1.5779806"
     inkscape:cx="255.00005"
     inkscape:cy="159.08383"
     inkscape:window-x="-8"
     inkscape:window-y="-8"
     inkscape:window-maximized="1"
     inkscape:current-layer="svg323" />
  <defs
     id="defs43">
    <linearGradient
       id="b">
      <stop
         offset="0"
         id="stop2" />
      <stop
         offset="1"
         stop-color="#8c8c8c"
         id="stop4" />
    </linearGradient>
    <linearGradient
       id="d">
      <stop
         offset="0"
         stop-color="#fff"
         stop-opacity=".992"
         id="stop7" />
      <stop
         offset="1"
         stop-color="#fff"
         stop-opacity="0"
         id="stop9" />
    </linearGradient>
    <linearGradient
       id="c">
      <stop
         offset="0"
         stop-color="#fff"
         id="stop12" />
      <stop
         offset="1"
         stop-color="#fff"
         stop-opacity="0"
         id="stop14" />
    </linearGradient>
    <linearGradient
       id="a">
      <stop
         offset="0"
         id="stop17" />
      <stop
         offset="1"
         stop-color="#fff"
         id="stop19" />
    </linearGradient>
    <linearGradient
       xlink:href="#a"
       id="h"
       gradientUnits="userSpaceOnUse"
       gradientTransform="matrix(1.25816,0,0,1.25816,32.958,-15.82)"
       x1="24.039"
       y1="62.948002"
       x2="24.039"
       y2="59.622002" />
    <linearGradient
       xlink:href="#a"
       id="i"
       gradientUnits="userSpaceOnUse"
       gradientTransform="matrix(1.00722,0,0,1.00722,-69.402,-137.27)"
       x1="24.039"
       y1="62.948002"
       x2="24.039"
       y2="59.622002" />
    <linearGradient
       xlink:href="#b"
       id="j"
       x1="92.069"
       y1="26.308001"
       x2="92.063004"
       y2="35.48"
       gradientUnits="userSpaceOnUse"
       gradientTransform="translate(0.265)" />
    <linearGradient
       xlink:href="#b"
       id="k"
       x1="92.707001"
       y1="238.72501"
       x2="92.774002"
       y2="232.729"
       gradientUnits="userSpaceOnUse"
       gradientTransform="rotate(-180,79.469,155.073)" />
    <linearGradient
       xlink:href="#b"
       id="l"
       x1="92.707001"
       y1="238.72501"
       x2="92.774002"
       y2="232.729"
       gradientUnits="userSpaceOnUse"
       gradientTransform="rotate(180,84.652,132.875)" />
    <linearGradient
       xlink:href="#b"
       id="m"
       x1="92.761002"
       y1="238.72501"
       x2="92.774002"
       y2="231.29201"
       gradientUnits="userSpaceOnUse"
       gradientTransform="rotate(180,101.048,146.963)" />
    <linearGradient
       xlink:href="#b"
       id="n"
       x1="7.2249999"
       y1="25.922001"
       x2="7.1420002"
       y2="63.956001"
       gradientUnits="userSpaceOnUse"
       gradientTransform="matrix(1.09581,0,0,0.98802,-0.683,0.665)" />
    <linearGradient
       xlink:href="#b"
       id="e"
       x1="68.058998"
       y1="183.806"
       x2="68.149002"
       y2="213.24899"
       gradientUnits="userSpaceOnUse"
       gradientTransform="matrix(1,0,0,0.78173,-26.543,-118.07)" />
    <linearGradient
       xlink:href="#c"
       id="f"
       x1="26.759001"
       y1="162"
       x2="30.999001"
       y2="162"
       gradientUnits="userSpaceOnUse"
       gradientTransform="matrix(1,0,0,0.56406,0,70.452)" />
    <linearGradient
       xlink:href="#d"
       id="g"
       x1="26.759001"
       y1="162"
       x2="30.999001"
       y2="162"
       gradientUnits="userSpaceOnUse"
       gradientTransform="matrix(0.99995,0,0,0.53173,135.453,-112.052)" />
    <linearGradient
       xlink:href="#a"
       id="o"
       gradientUnits="userSpaceOnUse"
       gradientTransform="matrix(1.25816,0,0,1.25816,32.958,-15.82)"
       x1="24.039"
       y1="62.948002"
       x2="24.039"
       y2="59.622002" />
    <linearGradient
       xlink:href="#a"
       id="p"
       gradientUnits="userSpaceOnUse"
       gradientTransform="matrix(1.00722,0,0,1.00722,-69.402,-137.27)"
       x1="24.039"
       y1="62.948002"
       x2="24.039"
       y2="59.622002" />
    <linearGradient
       xlink:href="#a"
       id="q"
       gradientUnits="userSpaceOnUse"
       gradientTransform="matrix(1.25816,0,0,1.25816,32.958,-15.82)"
       x1="24.039"
       y1="62.948002"
       x2="24.039"
       y2="59.622002" />
    <linearGradient
       xlink:href="#a"
       id="r"
       gradientUnits="userSpaceOnUse"
       gradientTransform="matrix(1.00722,0,0,1.00722,-69.402,-137.27)"
       x1="24.039"
       y1="62.948002"
       x2="24.039"
       y2="59.622002" />
    <linearGradient
       xlink:href="#a"
       id="s"
       gradientUnits="userSpaceOnUse"
       gradientTransform="matrix(1.25816,0,0,1.25816,32.958,-15.82)"
       x1="24.039"
       y1="62.948002"
       x2="24.039"
       y2="59.622002" />
    <linearGradient
       xlink:href="#a"
       id="t"
       gradientUnits="userSpaceOnUse"
       gradientTransform="matrix(1.00722,0,0,1.00722,-69.402,-137.27)"
       x1="24.039"
       y1="62.948002"
       x2="24.039"
       y2="59.622002" />
    <linearGradient
       xlink:href="#a"
       id="u"
       gradientUnits="userSpaceOnUse"
       gradientTransform="matrix(1.25816,0,0,1.25816,32.958,-15.82)"
       x1="24.039"
       y1="62.948002"
       x2="24.039"
       y2="59.622002" />
    <linearGradient
       xlink:href="#a"
       id="v"
       gradientUnits="userSpaceOnUse"
       gradientTransform="matrix(1.00722,0,0,1.00722,-69.402,-137.27)"
       x1="24.039"
       y1="62.948002"
       x2="24.039"
       y2="59.622002" />
    <linearGradient
       xlink:href="#a"
       id="w"
       gradientUnits="userSpaceOnUse"
       gradientTransform="matrix(1.25816,0,0,1.25816,32.958,-15.82)"
       x1="24.039"
       y1="62.948002"
       x2="24.039"
       y2="59.622002" />
    <linearGradient
       xlink:href="#a"
       id="x"
       gradientUnits="userSpaceOnUse"
       gradientTransform="matrix(1.00722,0,0,1.00722,-69.402,-137.27)"
       x1="24.039"
       y1="62.948002"
       x2="24.039"
       y2="59.622002" />
    <linearGradient
       gradientTransform="matrix(1.67004,0,0,0.24085,-63.912,-35.067)"
       xlink:href="#b"
       id="y"
       x1="68.058998"
       y1="183.806"
       x2="68.149002"
       y2="213.24899"
       gradientUnits="userSpaceOnUse" />
  </defs>
  <path
     d="M 0,0 H 15.875056 V 100.541 H 0 Z m 0,0"
     id="path45"
     inkscape:connector-curvature="0"
     style="fill:#191919;stroke-width:1" />
  <rect
     rx="0.99000001"
     ry="0.99000001"
     y="76.265999"
     x="2.6121223"
     height="3.043"
     width="10.661"
     id="rect257"
     style="fill:#333333;stroke:#8c8c8c;stroke-width:0.132;paint-order:stroke markers fill" />
  <g
     style="line-height:1.25"
     id="g261"
     transform="translate(-119.06288)">
    <path
       style="font-weight:400;font-size:2.82200003px;font-family:Sniglet;-inkscape-font-specification:'Sniglet, Normal';font-variant-ligatures:normal;font-variant-caps:normal;font-variant-numeric:normal;font-feature-settings:normal;text-align:start;letter-spacing:0;word-spacing:0;fill:#ffffff"
       d="m 124.187,78.258 q -0.13,-0.285 -0.232,-0.55 -0.098,-0.268 -0.169,-0.477 -0.065,0.35 -0.11,0.705 -0.042,0.356 -0.11,0.68 -0.017,0.074 -0.062,0.1 -0.045,0.022 -0.076,0.022 -0.051,0 -0.082,-0.031 -0.028,-0.031 -0.028,-0.08 0,-0.064 0.014,-0.197 l 0.04,-0.305 q 0.025,-0.169 0.056,-0.355 0.03,-0.186 0.062,-0.359 l 0.062,-0.316 q 0.031,-0.14 0.054,-0.217 0.036,-0.13 0.15,-0.13 0.067,0 0.115,0.068 0.048,0.065 0.101,0.203 0.057,0.136 0.133,0.344 0.08,0.21 0.203,0.491 0.122,-0.282 0.195,-0.488 0.076,-0.209 0.127,-0.344 0.054,-0.138 0.102,-0.203 0.048,-0.068 0.118,-0.068 0.065,0 0.099,0.034 0.034,0.03 0.05,0.096 0.02,0.079 0.049,0.22 0.028,0.138 0.059,0.31 0.034,0.17 0.065,0.356 l 0.056,0.356 q 0.026,0.169 0.04,0.307 0.017,0.136 0.017,0.21 0,0.044 -0.031,0.072 -0.031,0.026 -0.08,0.026 -0.03,0 -0.075,-0.023 -0.046,-0.025 -0.063,-0.099 -0.033,-0.16 -0.062,-0.333 l -0.05,-0.347 -0.046,-0.352 q -0.022,-0.178 -0.048,-0.353 -0.036,0.113 -0.084,0.248 -0.048,0.136 -0.102,0.274 -0.054,0.135 -0.11,0.268 -0.056,0.133 -0.11,0.24 -0.02,0.037 -0.054,0.056 -0.03,0.017 -0.065,0.017 -0.036,0 -0.07,-0.017 -0.031,-0.02 -0.048,-0.059 z m 2.05,0.508 q -0.169,0 -0.318,-0.068 -0.147,-0.067 -0.257,-0.194 -0.11,-0.13 -0.175,-0.317 -0.062,-0.186 -0.062,-0.423 0,-0.223 0.053,-0.41 0.057,-0.185 0.164,-0.32 0.11,-0.136 0.27,-0.21 0.162,-0.076 0.373,-0.076 0.173,0 0.328,0.062 0.155,0.062 0.27,0.186 0.12,0.125 0.187,0.31 0.068,0.187 0.068,0.436 0,0.206 -0.057,0.392 -0.053,0.186 -0.166,0.327 -0.11,0.138 -0.28,0.223 -0.169,0.082 -0.398,0.082 z m 0.006,-0.265 q 0.155,0 0.271,-0.062 0.116,-0.065 0.192,-0.17 0.076,-0.104 0.113,-0.24 0.036,-0.138 0.036,-0.282 0,-0.175 -0.048,-0.31 -0.045,-0.139 -0.124,-0.232 -0.079,-0.093 -0.183,-0.14 -0.105,-0.052 -0.223,-0.052 -0.141,0 -0.248,0.06 -0.105,0.059 -0.178,0.16 -0.07,0.102 -0.108,0.24 -0.036,0.136 -0.036,0.291 0,0.167 0.042,0.305 0.042,0.135 0.113,0.231 0.073,0.096 0.172,0.15 0.099,0.05 0.209,0.05 z M 128,76.743 q 0.29,0 0.466,0.087 0.175,0.087 0.268,0.231 0.093,0.144 0.121,0.328 0.031,0.183 0.031,0.372 0,0.206 -0.054,0.39 -0.05,0.183 -0.16,0.321 -0.108,0.136 -0.277,0.218 -0.17,0.079 -0.404,0.079 -0.186,0 -0.299,-0.028 -0.11,-0.026 -0.172,-0.08 -0.06,-0.053 -0.079,-0.135 -0.02,-0.082 -0.02,-0.192 v -1.061 q 0,-0.121 0.02,-0.22 0.023,-0.099 0.085,-0.167 0.062,-0.07 0.175,-0.107 0.115,-0.037 0.299,-0.037 z m 0.011,1.744 q 0.175,0 0.288,-0.063 0.116,-0.064 0.184,-0.169 0.067,-0.104 0.093,-0.237 0.028,-0.133 0.028,-0.27 0,-0.128 -0.02,-0.255 -0.02,-0.13 -0.082,-0.234 -0.062,-0.105 -0.178,-0.17 -0.115,-0.064 -0.307,-0.064 -0.175,0 -0.243,0.05 -0.068,0.051 -0.068,0.156 v 1.08 q 0,0.088 0.062,0.133 0.065,0.043 0.243,0.043 z m 1.175,-0.178 q -0.006,-0.09 -0.012,-0.246 -0.005,-0.155 -0.005,-0.319 v -0.192 l 0.005,-0.206 q 0.006,-0.208 0.026,-0.327 0.022,-0.119 0.084,-0.178 0.065,-0.06 0.181,-0.073 0.116,-0.014 0.308,-0.014 h 0.059 q 0.06,0 0.141,0.003 0.082,0 0.17,0.003 l 0.149,0.006 q 0.062,0.006 0.099,0.017 0.04,0.008 0.059,0.025 0.02,0.014 0.025,0.037 0.006,0.02 0.006,0.045 0,0.065 -0.037,0.096 -0.036,0.028 -0.15,0.037 -0.056,0.006 -0.166,0.008 h -0.22 q -0.113,0 -0.203,0.003 h -0.113 q -0.073,0.003 -0.104,0.034 -0.029,0.028 -0.029,0.138 l 0.003,0.124 q 0.006,0.096 0.006,0.27 h 0.234 q 0.15,0 0.243,0.007 0.096,0.003 0.146,0.017 0.054,0.014 0.074,0.045 0.02,0.031 0.02,0.082 0,0.025 -0.006,0.048 -0.003,0.02 -0.023,0.037 -0.02,0.014 -0.056,0.025 -0.037,0.008 -0.104,0.014 -0.082,0.006 -0.156,0.008 h -0.378 v 0.344 l 0.006,0.096 q 0.003,0.046 0.011,0.077 0.011,0.03 0.037,0.05 0.028,0.02 0.079,0.029 0.053,0.008 0.14,0.008 h 0.608 q 0.098,0 0.124,0.036 0.025,0.037 0.025,0.099 0,0.05 -0.022,0.079 -0.023,0.025 -0.11,0.037 -0.085,0.014 -0.257,0.017 -0.17,0.003 -0.469,0.003 -0.127,0 -0.209,-0.023 -0.081,-0.023 -0.132,-0.076 -0.051,-0.054 -0.076,-0.138 -0.023,-0.088 -0.031,-0.212 z"
       word-spacing="0"
       letter-spacing="0"
       font-size="2.822"
       font-weight="400"
       aria-label="MODE"
       id="path259"
       inkscape:connector-curvature="0" />
  </g>
  <g
     style="line-height:1.25"
     id="g265"
     transform="translate(-119.06288)">
    <path
       word-spacing="0"
       letter-spacing="0"
       font-weight="400"
       aria-label="♫"
       font-size="3.528"
       style="font-weight:400;font-size:3.52800012px;font-family:Arial;-inkscape-font-specification:'Arial, Normal';font-variant-ligatures:normal;font-variant-caps:normal;font-variant-numeric:normal;font-feature-settings:normal;text-align:start;letter-spacing:0;word-spacing:0;fill:#969696"
       d="m 127.727,93.893 -1.631,0.115 v -2.06 q 0,-0.23 0.066,-0.333 0.063,-0.104 0.219,-0.147 0.153,-0.043 0.348,-0.002 0.223,0.047 0.356,0.19 0.134,0.146 0.134,0.33 0,0.186 -0.158,0.286 -0.158,0.103 -0.408,0.05 -0.082,-0.018 -0.143,-0.044 -0.064,-0.026 -0.205,-0.11 v 1.345 l 1.219,-0.085 v -1.554 q 0,-0.224 0.065,-0.337 0.066,-0.11 0.226,-0.151 0.16,-0.04 0.348,0 0.223,0.047 0.354,0.19 0.13,0.14 0.13,0.325 0,0.195 -0.156,0.294 -0.156,0.1 -0.408,0.047 -0.16,-0.034 -0.356,-0.16 z"
       id="path263"
       inkscape:connector-curvature="0" />
  </g>
  <rect
     rx="0.99000001"
     ry="0.99000001"
     y="28.641001"
     x="2.1681221"
     height="3.043"
     width="11.487"
     id="rect267"
     style="fill:#333333;stroke:#8c8c8c;stroke-width:0.132;paint-order:stroke markers fill" />
  <g
     style="line-height:1.25"
     id="g271"
     transform="translate(-119.06288)">
    <path
       style="font-weight:400;font-size:2.82200003px;font-family:Sniglet;-inkscape-font-specification:'Sniglet, Normal';font-variant-ligatures:normal;font-variant-caps:normal;font-variant-numeric:normal;font-feature-settings:normal;text-align:start;letter-spacing:0;word-spacing:0;fill:#ffffff"
       d="m 123.746,29.126 q 0.093,0 0.192,0.017 0.099,0.017 0.18,0.051 0.082,0.031 0.136,0.079 0.053,0.048 0.053,0.11 0,0.065 -0.033,0.099 -0.034,0.034 -0.085,0.034 -0.048,0 -0.09,-0.017 l -0.09,-0.037 q -0.052,-0.02 -0.122,-0.037 -0.07,-0.016 -0.178,-0.016 -0.118,0 -0.223,0.056 -0.101,0.054 -0.18,0.152 -0.08,0.096 -0.125,0.229 -0.045,0.133 -0.045,0.288 0,0.189 0.048,0.327 0.048,0.139 0.124,0.229 0.08,0.09 0.175,0.135 0.1,0.043 0.198,0.043 0.16,0 0.254,-0.046 0.096,-0.048 0.152,-0.12 0.003,-0.06 0.003,-0.142 v -0.178 q 0,-0.037 -0.005,-0.056 -0.006,-0.023 -0.029,-0.034 -0.022,-0.011 -0.067,-0.014 -0.043,-0.003 -0.116,-0.003 -0.09,0 -0.147,-0.023 -0.056,-0.025 -0.056,-0.104 0,-0.057 0.028,-0.09 0.03,-0.037 0.124,-0.043 h 0.054 q 0.04,-0.003 0.082,-0.003 h 0.155 q 0.084,0 0.135,0.017 0.051,0.014 0.09,0.068 0.02,0.028 0.023,0.099 0.006,0.07 0.006,0.163 v 0.728 q 0,0.077 -0.043,0.113 -0.04,0.037 -0.093,0.037 -0.065,0 -0.107,-0.034 -0.04,-0.03 -0.04,-0.102 v -0.11 q -0.073,0.085 -0.175,0.122 -0.098,0.036 -0.25,0.036 -0.156,0 -0.305,-0.062 -0.15,-0.062 -0.266,-0.183 -0.115,-0.124 -0.189,-0.308 -0.07,-0.186 -0.07,-0.431 0,-0.246 0.07,-0.438 0.074,-0.192 0.198,-0.324 0.124,-0.136 0.29,-0.207 0.167,-0.07 0.359,-0.07 z m 2.113,1.854 q -0.028,-0.067 -0.062,-0.155 -0.031,-0.09 -0.068,-0.189 l -0.178,0.006 h -0.409 q -0.099,0 -0.18,-0.003 l -0.065,0.186 q -0.031,0.088 -0.06,0.156 -0.056,0.144 -0.163,0.144 -0.04,0 -0.077,-0.026 -0.033,-0.025 -0.033,-0.073 0,-0.048 0.017,-0.124 0.016,-0.08 0.042,-0.167 0.028,-0.09 0.06,-0.183 0.03,-0.096 0.058,-0.178 0.029,-0.09 0.08,-0.229 l 0.112,-0.293 0.119,-0.3 q 0.06,-0.149 0.107,-0.26 0.011,-0.027 0.028,-0.061 0.017,-0.037 0.04,-0.068 0.025,-0.03 0.053,-0.053 0.031,-0.023 0.068,-0.023 0.037,0 0.068,0.025 0.03,0.023 0.054,0.057 0.025,0.034 0.042,0.07 0.02,0.037 0.03,0.065 0.046,0.113 0.102,0.26 0.06,0.147 0.116,0.296 0.06,0.15 0.11,0.285 0.051,0.136 0.082,0.229 l 0.057,0.175 q 0.033,0.093 0.062,0.183 0.028,0.09 0.045,0.17 0.02,0.076 0.02,0.124 0,0.048 -0.037,0.073 -0.034,0.026 -0.074,0.026 -0.05,0 -0.093,-0.034 -0.042,-0.037 -0.073,-0.11 z m -0.5,-0.62 q 0.068,0 0.136,0.003 0.068,0 0.135,0.003 l -0.067,-0.198 -0.065,-0.19 q -0.028,-0.09 -0.054,-0.166 l -0.04,-0.138 q -0.01,-0.037 -0.025,-0.06 -0.014,-0.022 -0.036,-0.022 -0.023,0 -0.037,0.026 -0.014,0.022 -0.026,0.059 -0.033,0.116 -0.095,0.302 l -0.127,0.387 q 0.076,-0.003 0.152,-0.003 0.076,-0.003 0.15,-0.003 z m 1.876,-0.952 q -0.079,0.006 -0.17,0.008 l -0.194,0.006 0.006,0.144 0.005,0.133 q 0.003,0.068 0.003,0.141 0.003,0.074 0.003,0.164 v 0.245 q 0,0.116 -0.003,0.235 l -0.006,0.234 q -0.002,0.118 -0.008,0.245 -0.003,0.068 -0.014,0.105 -0.009,0.037 -0.026,0.056 -0.017,0.02 -0.04,0.023 -0.022,0.006 -0.05,0.006 -0.05,0 -0.087,-0.034 -0.034,-0.037 -0.04,-0.152 -0.006,-0.102 -0.008,-0.215 0,-0.113 -0.003,-0.243 -0.003,-0.13 -0.003,-0.279 v -0.606 q 0.003,-0.117 0.008,-0.201 h -0.115 q -0.119,0 -0.203,-0.003 -0.082,-0.003 -0.136,-0.014 -0.053,-0.014 -0.079,-0.043 -0.022,-0.028 -0.022,-0.079 0,-0.025 0.005,-0.045 0.006,-0.022 0.026,-0.04 0.02,-0.02 0.053,-0.03 0.037,-0.012 0.093,-0.017 l 0.096,-0.006 0.085,-0.006 q 0.042,-0.003 0.087,-0.003 h 0.105 q 0.166,0 0.313,0.003 0.15,0.003 0.316,0.011 0.068,0.006 0.105,0.017 0.036,0.008 0.056,0.025 0.02,0.017 0.023,0.04 0.005,0.022 0.005,0.05 0,0.051 -0.036,0.085 -0.034,0.034 -0.15,0.04 z m 0.402,1.287 q -0.006,-0.09 -0.011,-0.245 -0.006,-0.155 -0.006,-0.319 v -0.192 l 0.006,-0.206 q 0.005,-0.209 0.025,-0.327 0.023,-0.119 0.085,-0.178 0.065,-0.06 0.18,-0.074 0.116,-0.014 0.308,-0.014 h 0.06 q 0.058,0 0.14,0.003 0.082,0 0.17,0.003 l 0.15,0.006 q 0.061,0.006 0.098,0.017 0.04,0.008 0.06,0.026 0.019,0.014 0.025,0.036 0.005,0.02 0.005,0.046 0,0.064 -0.036,0.095 -0.037,0.029 -0.15,0.037 -0.056,0.006 -0.166,0.008 h -0.22 q -0.114,0 -0.204,0.003 h -0.113 q -0.073,0.003 -0.104,0.034 -0.028,0.028 -0.028,0.138 l 0.002,0.125 q 0.006,0.096 0.006,0.27 h 0.234 q 0.15,0 0.243,0.006 0.096,0.003 0.147,0.017 0.053,0.014 0.073,0.046 0.02,0.03 0.02,0.081 0,0.026 -0.006,0.048 -0.003,0.02 -0.022,0.037 -0.02,0.014 -0.057,0.025 -0.036,0.008 -0.104,0.015 -0.082,0.006 -0.155,0.008 h -0.379 v 0.343 l 0.006,0.097 q 0.003,0.045 0.011,0.076 0.012,0.031 0.037,0.05 0.028,0.02 0.08,0.03 0.053,0.007 0.14,0.007 h 0.607 q 0.099,0 0.124,0.037 0.026,0.036 0.026,0.099 0,0.05 -0.023,0.079 -0.023,0.025 -0.11,0.036 -0.085,0.014 -0.257,0.017 -0.17,0.003 -0.468,0.003 -0.127,0 -0.21,-0.022 -0.081,-0.023 -0.132,-0.077 -0.05,-0.053 -0.076,-0.138 -0.023,-0.087 -0.031,-0.212 z m 2.736,-1.275 q -0.101,0 -0.169,0.022 -0.068,0.02 -0.113,0.054 -0.045,0.034 -0.073,0.07 l -0.051,0.071 q -0.023,0.034 -0.05,0.057 -0.026,0.02 -0.066,0.02 -0.068,0 -0.096,-0.035 -0.025,-0.036 -0.025,-0.096 0,-0.124 0.093,-0.231 0.028,-0.034 0.076,-0.07 0.05,-0.04 0.119,-0.071 0.07,-0.031 0.16,-0.05 0.094,-0.024 0.21,-0.024 0.307,0 0.476,0.15 0.17,0.15 0.17,0.42 0,0.054 -0.012,0.12 -0.008,0.064 -0.036,0.135 -0.026,0.07 -0.074,0.146 -0.048,0.077 -0.127,0.156 -0.07,0.07 -0.15,0.13 -0.078,0.059 -0.163,0.118 l -0.178,0.127 q -0.09,0.065 -0.183,0.15 0.09,0.047 0.195,0.062 0.104,0.014 0.234,0.014 0.121,0 0.195,-0.006 0.073,-0.006 0.118,-0.014 0.045,-0.008 0.07,-0.015 0.026,-0.006 0.054,-0.006 0.105,0 0.105,0.096 0,0.085 -0.07,0.13 -0.071,0.045 -0.17,0.068 -0.099,0.02 -0.203,0.022 -0.105,0.006 -0.173,0.006 -0.036,0 -0.104,-0.006 -0.065,-0.003 -0.141,-0.014 -0.076,-0.01 -0.155,-0.03 -0.077,-0.023 -0.141,-0.057 -0.063,-0.037 -0.102,-0.088 -0.04,-0.053 -0.04,-0.127 0,-0.098 0.071,-0.186 0.073,-0.09 0.18,-0.175 0.108,-0.087 0.232,-0.172 0.124,-0.087 0.231,-0.178 0.108,-0.093 0.178,-0.192 0.074,-0.098 0.074,-0.214 0,-0.144 -0.1,-0.215 -0.095,-0.073 -0.276,-0.073 z"
       word-spacing="0"
       letter-spacing="0"
       font-size="2.822"
       font-weight="400"
       aria-label="GATE 2"
       id="path269"
       inkscape:connector-curvature="0" />
  </g>
  <rect
     rx="0.99000001"
     ry="0.99000001"
     y="12.766"
     x="2.5281227"
     height="3.043"
     width="10.725"
     id="rect273"
     style="fill:#333333;stroke:#8c8c8c;stroke-width:0.132;paint-order:stroke markers fill" />
  <g
     style="line-height:1.25"
     id="g277"
     transform="translate(-119.06288)">
    <path
       style="font-weight:400;font-size:2.82200003px;font-family:Sniglet;-inkscape-font-specification:'Sniglet, Normal';font-variant-ligatures:normal;font-variant-caps:normal;font-variant-numeric:normal;font-feature-settings:normal;text-align:start;letter-spacing:0;word-spacing:0;fill:#ffffff"
       d="m 124.108,13.232 q 0.093,0 0.192,0.017 0.099,0.016 0.18,0.05 0.083,0.031 0.136,0.08 0.054,0.047 0.054,0.11 0,0.064 -0.034,0.098 -0.034,0.034 -0.085,0.034 -0.048,0 -0.09,-0.017 l -0.09,-0.036 q -0.051,-0.02 -0.122,-0.037 -0.07,-0.017 -0.178,-0.017 -0.118,0 -0.222,0.056 -0.102,0.054 -0.181,0.153 -0.08,0.096 -0.124,0.228 -0.045,0.133 -0.045,0.288 0,0.19 0.048,0.328 0.048,0.138 0.124,0.228 0.079,0.09 0.175,0.136 0.098,0.042 0.197,0.042 0.161,0 0.254,-0.045 0.096,-0.048 0.153,-0.121 0.002,-0.06 0.002,-0.142 v -0.177 q 0,-0.037 -0.005,-0.057 -0.006,-0.022 -0.028,-0.034 -0.023,-0.011 -0.068,-0.014 -0.042,-0.003 -0.116,-0.003 -0.09,0 -0.147,-0.022 -0.056,-0.026 -0.056,-0.105 0,-0.056 0.028,-0.09 0.031,-0.037 0.124,-0.042 h 0.054 q 0.04,-0.003 0.082,-0.003 h 0.155 q 0.085,0 0.136,0.016 0.05,0.015 0.09,0.068 0.02,0.028 0.022,0.099 0.006,0.07 0.006,0.164 v 0.728 q 0,0.076 -0.042,0.113 -0.04,0.036 -0.093,0.036 -0.065,0 -0.108,-0.034 -0.04,-0.03 -0.04,-0.101 v -0.11 q -0.073,0.085 -0.174,0.121 -0.099,0.037 -0.251,0.037 -0.156,0 -0.305,-0.062 -0.15,-0.062 -0.265,-0.184 -0.116,-0.124 -0.19,-0.307 -0.07,-0.187 -0.07,-0.432 0,-0.246 0.07,-0.438 0.074,-0.191 0.198,-0.324 0.124,-0.136 0.29,-0.206 0.167,-0.07 0.36,-0.07 z m 2.113,1.854 -0.062,-0.155 q -0.03,-0.09 -0.067,-0.19 l -0.178,0.007 h -0.41 q -0.098,0 -0.18,-0.003 l -0.065,0.186 q -0.031,0.087 -0.06,0.155 -0.056,0.144 -0.163,0.144 -0.04,0 -0.076,-0.025 -0.034,-0.026 -0.034,-0.074 0,-0.048 0.017,-0.124 0.017,-0.079 0.042,-0.166 0.028,-0.09 0.06,-0.184 0.03,-0.096 0.059,-0.178 0.028,-0.09 0.079,-0.228 0.053,-0.141 0.113,-0.294 l 0.118,-0.299 q 0.06,-0.15 0.107,-0.26 l 0.029,-0.062 q 0.017,-0.036 0.04,-0.067 0.025,-0.031 0.053,-0.054 0.03,-0.023 0.068,-0.023 0.036,0 0.067,0.026 0.031,0.022 0.054,0.056 0.025,0.034 0.042,0.07 0.02,0.037 0.031,0.066 l 0.102,0.26 q 0.06,0.146 0.116,0.296 0.059,0.15 0.11,0.285 0.05,0.135 0.081,0.228 l 0.057,0.175 q 0.034,0.093 0.062,0.184 0.028,0.09 0.045,0.169 0.02,0.076 0.02,0.124 0,0.048 -0.037,0.074 -0.034,0.025 -0.073,0.025 -0.05,0 -0.093,-0.034 -0.043,-0.037 -0.074,-0.11 z m -0.5,-0.621 q 0.069,0 0.136,0.003 0.068,0 0.136,0.003 l -0.068,-0.198 -0.065,-0.189 -0.053,-0.166 -0.04,-0.138 q -0.011,-0.037 -0.025,-0.06 -0.015,-0.022 -0.037,-0.022 -0.023,0 -0.037,0.025 -0.014,0.023 -0.025,0.06 -0.034,0.115 -0.096,0.301 l -0.127,0.387 q 0.076,-0.003 0.152,-0.003 0.076,-0.003 0.15,-0.003 z m 1.876,-0.952 q -0.079,0.007 -0.169,0.009 l -0.195,0.006 0.006,0.144 0.006,0.132 q 0.002,0.068 0.002,0.142 0.003,0.073 0.003,0.163 v 0.246 q 0,0.116 -0.003,0.234 l -0.005,0.234 q -0.003,0.119 -0.009,0.246 -0.003,0.068 -0.014,0.104 -0.008,0.037 -0.025,0.057 -0.017,0.02 -0.04,0.022 -0.022,0.006 -0.05,0.006 -0.051,0 -0.088,-0.034 -0.034,-0.036 -0.04,-0.152 -0.005,-0.102 -0.008,-0.215 0,-0.112 -0.003,-0.242 -0.003,-0.13 -0.003,-0.28 v -0.606 q 0.003,-0.116 0.009,-0.2 h -0.116 q -0.118,0 -0.203,-0.004 -0.082,-0.003 -0.136,-0.014 -0.053,-0.014 -0.079,-0.042 -0.022,-0.028 -0.022,-0.08 0,-0.025 0.005,-0.044 0.006,-0.023 0.026,-0.04 0.02,-0.02 0.053,-0.03 0.037,-0.012 0.094,-0.018 l 0.096,-0.006 0.084,-0.006 q 0.043,-0.003 0.088,-0.003 h 0.104 q 0.167,0 0.313,0.003 0.15,0.003 0.317,0.012 0.067,0.006 0.104,0.016 0.037,0.008 0.056,0.026 0.02,0.017 0.023,0.04 0.006,0.022 0.006,0.05 0,0.05 -0.037,0.085 -0.034,0.034 -0.15,0.04 z m 0.402,1.288 -0.011,-0.246 q -0.006,-0.155 -0.006,-0.319 v -0.192 l 0.006,-0.206 q 0.006,-0.208 0.025,-0.327 0.023,-0.118 0.085,-0.178 0.065,-0.059 0.18,-0.073 0.116,-0.014 0.308,-0.014 h 0.06 q 0.059,0 0.14,0.003 0.083,0 0.17,0.003 l 0.15,0.006 q 0.062,0.006 0.098,0.017 0.04,0.008 0.06,0.025 0.02,0.014 0.025,0.037 0.006,0.02 0.006,0.045 0,0.065 -0.037,0.096 -0.037,0.028 -0.15,0.037 -0.056,0.006 -0.166,0.008 h -0.22 q -0.113,0 -0.203,0.003 h -0.113 q -0.074,0.003 -0.105,0.034 -0.028,0.028 -0.028,0.138 l 0.003,0.124 q 0.005,0.096 0.005,0.271 h 0.235 q 0.15,0 0.242,0.006 0.096,0.003 0.147,0.017 0.054,0.014 0.073,0.045 0.02,0.031 0.02,0.082 0,0.025 -0.005,0.048 -0.003,0.02 -0.023,0.037 -0.02,0.014 -0.056,0.025 -0.037,0.008 -0.105,0.014 -0.082,0.006 -0.155,0.008 h -0.378 v 0.345 l 0.005,0.096 q 0.003,0.045 0.012,0.076 0.011,0.03 0.036,0.05 0.029,0.02 0.08,0.029 0.053,0.008 0.14,0.008 h 0.607 q 0.1,0 0.124,0.036 0.026,0.037 0.026,0.1 0,0.05 -0.023,0.078 -0.022,0.026 -0.11,0.037 -0.084,0.014 -0.257,0.017 -0.169,0.003 -0.468,0.003 -0.127,0 -0.209,-0.023 -0.082,-0.022 -0.133,-0.076 -0.05,-0.054 -0.076,-0.138 -0.022,-0.088 -0.03,-0.212 z m 2.528,0.254 q -0.006,-0.102 -0.009,-0.212 l -0.002,-0.237 q -0.003,-0.127 -0.003,-0.274 v -0.685 l -0.17,0.087 q -0.07,0.045 -0.113,0.054 -0.039,0.008 -0.087,0.008 -0.042,0 -0.076,-0.037 -0.031,-0.037 -0.031,-0.088 0,-0.05 0.034,-0.087 0.036,-0.04 0.084,-0.07 0.062,-0.043 0.133,-0.085 0.073,-0.043 0.141,-0.077 0.068,-0.036 0.124,-0.056 0.06,-0.023 0.099,-0.023 0.02,0 0.04,0.006 0.022,0.006 0.039,0.023 0.02,0.017 0.031,0.054 0.014,0.034 0.017,0.093 0.006,0.101 0.008,0.178 l 0.006,0.15 q 0.003,0.07 0.003,0.149 v 0.426 q 0,0.116 -0.003,0.228 l -0.006,0.23 q -0.002,0.115 -0.008,0.242 -0.003,0.067 -0.014,0.104 -0.009,0.037 -0.026,0.057 -0.016,0.02 -0.039,0.022 -0.02,0.006 -0.048,0.006 -0.05,0 -0.085,-0.034 -0.034,-0.036 -0.04,-0.152 z"
       word-spacing="0"
       letter-spacing="0"
       font-size="2.822"
       font-weight="400"
       aria-label="GATE 1"
       id="path275"
       inkscape:connector-curvature="0" />
  </g>
  <rect
     rx="0.99000001"
     ry="0.99000001"
     y="44.515999"
     x="3.6421211"
     height="3.043"
     width="8.4250002"
     id="rect279"
     style="fill:#333333;stroke:#8c8c8c;stroke-width:0.132;paint-order:stroke markers fill" />
  <g
     style="line-height:1.25"
     id="g283"
     transform="translate(-119.06288)">
    <path
       style="font-weight:400;font-size:2.82200003px;font-family:Sniglet;-inkscape-font-specification:'Sniglet, Normal';font-variant-ligatures:normal;font-variant-caps:normal;font-variant-numeric:normal;font-feature-settings:normal;text-align:start;letter-spacing:0;word-spacing:0;fill:#ffffff"
       d="m 125.501,45.283 q -0.079,0.006 -0.17,0.008 l -0.194,0.006 0.006,0.144 0.005,0.133 q 0.003,0.068 0.003,0.141 0.003,0.074 0.003,0.164 v 0.245 q 0,0.116 -0.003,0.235 l -0.006,0.234 q -0.002,0.118 -0.008,0.245 -0.003,0.068 -0.014,0.105 -0.009,0.037 -0.026,0.056 -0.017,0.02 -0.04,0.023 -0.022,0.006 -0.05,0.006 -0.05,0 -0.087,-0.034 -0.034,-0.037 -0.04,-0.152 -0.006,-0.102 -0.008,-0.215 0,-0.113 -0.003,-0.243 -0.003,-0.13 -0.003,-0.279 v -0.606 q 0.003,-0.117 0.008,-0.201 h -0.115 q -0.119,0 -0.203,-0.003 -0.082,-0.003 -0.136,-0.014 -0.054,-0.014 -0.079,-0.043 -0.023,-0.028 -0.023,-0.079 0,-0.025 0.006,-0.045 0.006,-0.022 0.025,-0.04 0.02,-0.02 0.054,-0.03 0.037,-0.012 0.093,-0.017 l 0.096,-0.006 0.085,-0.006 q 0.042,-0.003 0.087,-0.003 h 0.105 q 0.166,0 0.313,0.003 0.15,0.003 0.316,0.011 0.068,0.006 0.105,0.017 0.036,0.008 0.056,0.025 0.02,0.017 0.023,0.04 0.005,0.022 0.005,0.05 0,0.051 -0.037,0.085 -0.033,0.034 -0.15,0.04 z m 0.482,1.541 q -0.005,-0.101 -0.008,-0.211 0,-0.11 -0.003,-0.237 -0.003,-0.127 -0.003,-0.274 v -0.333 q 0,-0.2 0.003,-0.342 0.003,-0.144 0.017,-0.234 0.014,-0.09 0.042,-0.132 0.031,-0.043 0.082,-0.043 0.026,0 0.048,0.006 0.023,0.006 0.04,0.026 0.017,0.017 0.028,0.053 0.014,0.034 0.017,0.09 l 0.008,0.181 0.006,0.158 q 0.003,0.076 0.003,0.161 v 0.429 q 0,0.116 -0.003,0.229 l -0.006,0.228 q -0.002,0.116 -0.008,0.243 -0.003,0.068 -0.014,0.104 -0.012,0.037 -0.028,0.057 -0.017,0.02 -0.04,0.022 -0.023,0.006 -0.05,0.006 -0.052,0 -0.088,-0.034 -0.037,-0.036 -0.043,-0.152 z m 0.664,-0.254 q -0.006,-0.09 -0.011,-0.245 -0.006,-0.155 -0.006,-0.319 v -0.192 l 0.006,-0.206 q 0.005,-0.209 0.025,-0.327 0.023,-0.119 0.085,-0.178 0.065,-0.06 0.18,-0.074 0.116,-0.014 0.308,-0.014 h 0.06 q 0.059,0 0.14,0.003 0.082,0 0.17,0.003 l 0.15,0.006 q 0.061,0.006 0.098,0.017 0.04,0.008 0.06,0.026 0.02,0.014 0.025,0.036 0.005,0.02 0.005,0.046 0,0.064 -0.036,0.095 -0.037,0.029 -0.15,0.037 -0.056,0.006 -0.166,0.008 h -0.22 q -0.113,0 -0.204,0.003 h -0.113 q -0.073,0.003 -0.104,0.034 -0.028,0.028 -0.028,0.138 l 0.003,0.125 q 0.005,0.096 0.005,0.27 h 0.234 q 0.15,0 0.243,0.006 0.096,0.003 0.147,0.017 0.054,0.014 0.073,0.046 0.02,0.03 0.02,0.081 0,0.026 -0.006,0.048 -0.002,0.02 -0.022,0.037 -0.02,0.014 -0.057,0.025 -0.036,0.008 -0.104,0.015 -0.082,0.006 -0.155,0.008 h -0.378 v 0.343 q 0.002,0.06 0.005,0.097 0.003,0.045 0.011,0.076 0.012,0.031 0.037,0.05 0.028,0.02 0.08,0.03 0.053,0.007 0.14,0.007 h 0.607 q 0.099,0 0.124,0.037 0.026,0.036 0.026,0.099 0,0.05 -0.023,0.079 -0.023,0.025 -0.11,0.036 -0.085,0.014 -0.257,0.017 -0.17,0.003 -0.468,0.003 -0.127,0 -0.21,-0.022 -0.081,-0.023 -0.132,-0.077 -0.05,-0.053 -0.076,-0.138 -0.023,-0.087 -0.031,-0.212 z m 2.138,-1.566 q 0.29,0 0.466,0.088 0.175,0.087 0.268,0.231 0.093,0.144 0.121,0.327 0.031,0.184 0.031,0.373 0,0.206 -0.053,0.39 -0.051,0.183 -0.161,0.321 -0.107,0.136 -0.277,0.217 -0.17,0.08 -0.403,0.08 -0.187,0 -0.3,-0.029 -0.11,-0.025 -0.172,-0.079 -0.059,-0.053 -0.079,-0.135 -0.02,-0.082 -0.02,-0.192 v -1.061 q 0,-0.122 0.02,-0.22 0.023,-0.1 0.085,-0.167 0.062,-0.07 0.175,-0.107 0.116,-0.037 0.3,-0.037 z m 0.011,1.744 q 0.175,0 0.288,-0.062 0.116,-0.065 0.184,-0.17 0.067,-0.104 0.093,-0.236 0.028,-0.133 0.028,-0.271 0,-0.127 -0.02,-0.254 -0.02,-0.13 -0.082,-0.234 -0.062,-0.105 -0.177,-0.17 -0.116,-0.065 -0.308,-0.065 -0.175,0 -0.243,0.051 -0.067,0.05 -0.067,0.155 v 1.081 q 0,0.088 0.062,0.133 0.065,0.042 0.242,0.042 z"
       word-spacing="0"
       letter-spacing="0"
       font-size="2.822"
       font-weight="400"
       aria-label="TIED"
       id="path281"
       inkscape:connector-curvature="0" />
  </g>
  <rect
     rx="0.99000001"
     ry="0.99000001"
     y="60.390999"
     x="2.9891212"
     height="3.043"
     width="9.8290005"
     id="rect285"
     style="fill:#333333;stroke:#8c8c8c;stroke-width:0.132;paint-order:stroke markers fill" />
  <g
     style="line-height:1.25"
     id="g289"
     transform="translate(-119.06288)">
    <path
       style="font-weight:400;font-size:2.82200003px;font-family:Sniglet;-inkscape-font-specification:'Sniglet, Normal';font-variant-ligatures:normal;font-variant-caps:normal;font-variant-numeric:normal;font-feature-settings:normal;text-align:start;letter-spacing:0;word-spacing:0;fill:#f9f9f9"
       d="m 124.349,60.882 q 0.08,0 0.18,0.014 0.105,0.011 0.195,0.045 0.09,0.031 0.153,0.085 0.062,0.05 0.062,0.127 0,0.045 -0.025,0.076 -0.026,0.031 -0.082,0.031 -0.043,0 -0.088,-0.017 -0.042,-0.017 -0.099,-0.034 -0.053,-0.02 -0.127,-0.036 -0.07,-0.017 -0.166,-0.017 -0.186,0 -0.277,0.067 -0.087,0.065 -0.087,0.181 0,0.079 0.04,0.133 0.039,0.053 0.104,0.093 0.068,0.036 0.15,0.062 0.084,0.025 0.172,0.048 0.098,0.025 0.194,0.062 0.099,0.037 0.175,0.096 0.076,0.06 0.122,0.15 0.048,0.09 0.048,0.228 0,0.144 -0.054,0.26 -0.054,0.113 -0.147,0.194 -0.093,0.08 -0.223,0.125 -0.13,0.042 -0.282,0.042 -0.085,0 -0.198,-0.017 -0.112,-0.014 -0.214,-0.05 -0.102,-0.04 -0.172,-0.102 -0.07,-0.065 -0.07,-0.158 0,-0.057 0.027,-0.09 0.032,-0.035 0.09,-0.035 0.049,0 0.08,0.02 0.03,0.017 0.053,0.04 0.085,0.073 0.192,0.098 0.108,0.026 0.22,0.026 0.065,0 0.136,-0.008 0.073,-0.011 0.133,-0.042 0.059,-0.031 0.098,-0.088 0.04,-0.06 0.04,-0.158 0,-0.09 -0.037,-0.147 -0.034,-0.059 -0.093,-0.099 -0.06,-0.039 -0.141,-0.064 -0.08,-0.026 -0.172,-0.051 -0.105,-0.028 -0.206,-0.062 -0.102,-0.034 -0.18,-0.09 -0.08,-0.06 -0.13,-0.147 -0.049,-0.09 -0.049,-0.229 0,-0.138 0.051,-0.243 0.051,-0.104 0.138,-0.175 0.088,-0.07 0.206,-0.107 0.122,-0.037 0.26,-0.037 z m 1.236,1.205 v 0.16 q 0,0.069 -0.002,0.13 0,0.063 -0.003,0.125 l -0.006,0.138 q 0.195,-0.022 0.305,-0.037 l 0.172,-0.022 0.099,-0.011 q 0.037,-0.003 0.085,-0.003 0.124,0 0.124,0.12 0,0.049 -0.051,0.083 -0.048,0.034 -0.124,0.059 -0.074,0.023 -0.167,0.04 -0.09,0.014 -0.178,0.02 -0.084,0.007 -0.155,0.01 -0.068,0.004 -0.096,0.004 -0.101,0 -0.158,-0.015 -0.056,-0.01 -0.084,-0.073 -0.029,-0.065 -0.037,-0.195 -0.006,-0.13 -0.006,-0.367 v -0.406 q 0,-0.178 0.003,-0.319 0.003,-0.141 0.003,-0.251 0.003,-0.11 0.008,-0.2 0.006,-0.116 0.04,-0.15 0.034,-0.037 0.085,-0.037 0.028,0 0.048,0.006 0.022,0.003 0.039,0.023 0.017,0.02 0.025,0.056 0.012,0.037 0.015,0.105 0.01,0.248 0.014,0.49 0.002,0.244 0.002,0.517 z m 1.039,0.612 q -0.005,-0.101 -0.008,-0.211 0,-0.11 -0.003,-0.237 -0.003,-0.127 -0.003,-0.274 v -0.333 q 0,-0.2 0.003,-0.342 0.003,-0.144 0.017,-0.234 0.014,-0.09 0.042,-0.132 0.031,-0.043 0.082,-0.043 0.025,0 0.048,0.006 0.023,0.006 0.04,0.026 0.016,0.017 0.028,0.053 0.014,0.034 0.017,0.09 l 0.008,0.181 0.006,0.158 q 0.003,0.076 0.003,0.161 v 0.429 q 0,0.116 -0.003,0.229 l -0.006,0.228 -0.008,0.243 q -0.003,0.068 -0.014,0.104 -0.012,0.037 -0.029,0.057 -0.017,0.02 -0.04,0.022 -0.022,0.006 -0.05,0.006 -0.05,0 -0.087,-0.034 -0.037,-0.036 -0.043,-0.152 z m 1.226,-1.82 q 0.29,0 0.465,0.088 0.175,0.087 0.268,0.231 0.093,0.144 0.122,0.327 0.03,0.184 0.03,0.373 0,0.206 -0.053,0.39 -0.05,0.183 -0.16,0.321 -0.108,0.136 -0.277,0.217 -0.17,0.08 -0.404,0.08 -0.186,0 -0.3,-0.029 -0.11,-0.025 -0.171,-0.079 -0.06,-0.053 -0.08,-0.135 -0.02,-0.082 -0.02,-0.192 V 61.41 q 0,-0.122 0.02,-0.22 0.023,-0.1 0.085,-0.167 0.062,-0.07 0.175,-0.107 0.116,-0.037 0.3,-0.037 z m 0.01,1.744 q 0.176,0 0.289,-0.062 0.115,-0.065 0.183,-0.17 0.068,-0.104 0.093,-0.236 0.028,-0.133 0.028,-0.271 0,-0.127 -0.02,-0.254 -0.02,-0.13 -0.081,-0.234 -0.062,-0.105 -0.178,-0.17 -0.116,-0.065 -0.308,-0.065 -0.175,0 -0.242,0.051 -0.068,0.05 -0.068,0.155 v 1.081 q 0,0.088 0.062,0.133 0.065,0.042 0.243,0.042 z m 1.175,-0.178 -0.011,-0.245 q -0.006,-0.155 -0.006,-0.319 v -0.192 l 0.006,-0.206 q 0.006,-0.209 0.025,-0.327 0.023,-0.119 0.085,-0.178 0.065,-0.06 0.18,-0.074 0.116,-0.014 0.308,-0.014 h 0.06 q 0.059,0 0.14,0.003 0.082,0 0.17,0.003 l 0.15,0.006 q 0.062,0.006 0.098,0.017 0.04,0.008 0.06,0.026 0.02,0.014 0.025,0.036 0.006,0.02 0.006,0.046 0,0.064 -0.037,0.095 -0.037,0.029 -0.15,0.037 -0.056,0.006 -0.166,0.008 h -0.22 q -0.113,0 -0.204,0.003 h -0.112 q -0.074,0.003 -0.105,0.034 -0.028,0.028 -0.028,0.138 l 0.003,0.125 q 0.005,0.096 0.005,0.27 h 0.235 q 0.15,0 0.242,0.006 0.096,0.003 0.147,0.017 0.054,0.014 0.073,0.046 0.02,0.03 0.02,0.081 0,0.026 -0.005,0.048 -0.003,0.02 -0.023,0.037 -0.02,0.014 -0.056,0.025 -0.037,0.008 -0.105,0.015 -0.082,0.006 -0.155,0.008 h -0.378 v 0.343 l 0.005,0.097 q 0.003,0.045 0.012,0.076 0.011,0.031 0.036,0.05 0.029,0.02 0.08,0.03 0.053,0.007 0.14,0.007 h 0.607 q 0.099,0 0.124,0.037 0.026,0.036 0.026,0.099 0,0.05 -0.023,0.079 -0.022,0.025 -0.11,0.036 -0.084,0.014 -0.257,0.017 -0.169,0.003 -0.468,0.003 -0.127,0 -0.209,-0.022 -0.082,-0.023 -0.133,-0.077 -0.05,-0.053 -0.076,-0.138 -0.022,-0.087 -0.03,-0.212 z"
       word-spacing="0"
       letter-spacing="0"
       font-size="2.822"
       font-weight="400"
       aria-label="SLIDE"
       id="path287"
       inkscape:connector-curvature="0" />
  </g>
  <g
     style="line-height:1.25;-inkscape-font-specification:'Sniglet, Normal';font-variant-ligatures:normal;font-variant-caps:normal;font-variant-numeric:normal;font-feature-settings:normal;text-align:start"
     id="g293"
     transform="translate(-119.06288)">
    <path
       style="font-weight:400;font-size:3.88100004px;font-family:Sniglet;-inkscape-font-specification:'Sniglet, Normal';font-variant-ligatures:normal;font-variant-caps:normal;font-variant-numeric:normal;font-feature-settings:normal;text-align:start;letter-spacing:0;word-spacing:0;fill:#c8c8c8"
       d="m 123.193,8.45 q 0,0.093 -0.02,0.144 -0.015,0.05 -0.042,0.077 -0.024,0.027 -0.059,0.031 -0.03,0.008 -0.062,0.008 -0.105,0 -0.14,-0.046 -0.03,-0.047 -0.042,-0.21 -0.008,-0.085 -0.012,-0.248 l -0.008,-0.388 q 0,-0.225 -0.003,-0.497 V 6.747 q 0,-0.144 0.034,-0.291 0.035,-0.148 0.132,-0.268 0.101,-0.12 0.276,-0.194 0.178,-0.074 0.462,-0.074 0.198,0 0.376,0.043 0.179,0.043 0.314,0.147 0.136,0.105 0.218,0.28 0.081,0.174 0.081,0.434 0,0.272 -0.089,0.45 -0.09,0.179 -0.252,0.284 -0.163,0.104 -0.388,0.147 -0.225,0.043 -0.493,0.043 h -0.132 q -0.066,0 -0.148,-0.008 z m 1.117,-1.634 q 0,-0.26 -0.147,-0.392 -0.144,-0.132 -0.481,-0.132 -0.128,0 -0.222,0.024 -0.089,0.02 -0.147,0.073 -0.058,0.05 -0.09,0.14 -0.026,0.09 -0.026,0.225 v 0.303 q 0,0.167 0.003,0.314 0.09,0.004 0.198,0.004 h 0.21 q 0.116,0 0.24,-0.015 0.129,-0.016 0.23,-0.07 0.1,-0.058 0.166,-0.167 0.066,-0.113 0.066,-0.307 z m 1.571,-0.861 q 0.109,0 0.249,0.02 0.143,0.015 0.267,0.061 0.124,0.043 0.21,0.117 0.085,0.07 0.085,0.174 0,0.063 -0.035,0.105 -0.035,0.043 -0.112,0.043 -0.058,0 -0.12,-0.023 -0.059,-0.024 -0.136,-0.047 -0.074,-0.027 -0.175,-0.05 -0.097,-0.024 -0.229,-0.024 -0.256,0 -0.38,0.093 -0.12,0.09 -0.12,0.249 0,0.108 0.054,0.182 0.054,0.074 0.143,0.128 0.094,0.05 0.206,0.086 0.116,0.034 0.237,0.066 0.136,0.034 0.268,0.085 0.135,0.05 0.24,0.132 0.105,0.081 0.167,0.206 0.066,0.124 0.066,0.314 0,0.198 -0.074,0.357 -0.074,0.155 -0.202,0.268 -0.128,0.108 -0.306,0.17 -0.179,0.059 -0.388,0.059 -0.117,0 -0.272,-0.024 -0.155,-0.02 -0.295,-0.07 -0.14,-0.054 -0.236,-0.14 -0.097,-0.088 -0.097,-0.217 0,-0.077 0.038,-0.124 0.043,-0.046 0.125,-0.046 0.065,0 0.108,0.027 0.043,0.023 0.074,0.054 0.116,0.101 0.264,0.136 0.147,0.035 0.302,0.035 0.09,0 0.187,-0.012 0.1,-0.015 0.182,-0.058 0.082,-0.043 0.136,-0.12 0.054,-0.082 0.054,-0.218 0,-0.124 -0.05,-0.201 -0.047,-0.082 -0.128,-0.136 -0.082,-0.054 -0.194,-0.09 -0.109,-0.034 -0.237,-0.07 -0.144,-0.038 -0.283,-0.085 -0.14,-0.046 -0.249,-0.124 -0.108,-0.081 -0.178,-0.202 -0.066,-0.124 -0.066,-0.314 0,-0.19 0.07,-0.334 0.07,-0.143 0.19,-0.24 0.12,-0.097 0.283,-0.148 0.167,-0.05 0.357,-0.05 z m 2.608,1.769 q -0.178,0.008 -0.411,0.016 -0.233,0.004 -0.551,0.004 -0.132,0 -0.225,-0.004 -0.094,-0.004 -0.152,-0.02 -0.058,-0.019 -0.085,-0.058 -0.027,-0.039 -0.027,-0.108 0,-0.035 0.008,-0.062 0.007,-0.032 0.034,-0.055 0.028,-0.023 0.074,-0.039 0.05,-0.019 0.128,-0.027 l 0.101,-0.008 q 0.047,-0.004 0.09,-0.004 0.042,-0.004 0.089,-0.004 h 0.116 q 0.21,0 0.404,0.004 0.194,0 0.403,0.012 0.093,0.008 0.144,0.023 0.05,0.012 0.077,0.035 0.028,0.023 0.031,0.054 0.008,0.031 0.008,0.07 0,0.07 -0.05,0.117 -0.047,0.046 -0.206,0.054 z m 1.476,-0.05 -0.578,0.896 q -0.054,0.086 -0.12,0.128 -0.062,0.047 -0.144,0.047 -0.1,0 -0.143,-0.05 -0.039,-0.047 -0.039,-0.12 0,-0.043 0.016,-0.09 0.019,-0.046 0.05,-0.09 l 0.722,-1.031 -0.722,-1.033 q -0.031,-0.042 -0.05,-0.089 -0.016,-0.046 -0.016,-0.089 0,-0.074 0.039,-0.12 0.043,-0.05 0.143,-0.05 0.082,0 0.144,0.046 0.066,0.042 0.12,0.128 l 0.578,0.896 0.579,-0.896 q 0.054,-0.086 0.116,-0.128 0.066,-0.047 0.148,-0.047 0.1,0 0.14,0.05 0.042,0.047 0.042,0.121 0,0.043 -0.02,0.09 -0.015,0.046 -0.046,0.088 l -0.722,1.033 0.722,1.032 q 0.031,0.043 0.047,0.09 0.019,0.046 0.019,0.088 0,0.074 -0.043,0.12 -0.039,0.051 -0.14,0.051 -0.08,0 -0.147,-0.047 -0.062,-0.042 -0.116,-0.128 z"
       word-spacing="0"
       letter-spacing="0"
       font-size="3.881"
       font-weight="400"
       aria-label="PS-X"
       id="path291"
       inkscape:connector-curvature="0" />
  </g>
</svg>
