<svg width="36" height="36" viewBox="0 0 36 36" fill="none" xmlns="http://www.w3.org/2000/svg">
<g clip-path="url(#clip0)">
<path fill-rule="evenodd" clip-rule="evenodd" d="M35.6145 16.1272C34.8321 14.8649 33.5282 13.6327 32.7987 11.8677C32.0693 10.114 32.1184 8.31494 31.782 6.88628C30.991 5.90487 30.0978 5.01039 29.1175 4.21793C27.6813 3.88156 25.8898 3.92691 24.1323 3.20124C22.371 2.46801 21.1313 1.16408 19.8728 0.385492C18.629 0.253908 17.3748 0.253908 16.131 0.385492C14.8687 1.17163 13.629 2.46801 11.8677 3.20124C10.1102 3.92691 8.31496 3.88156 6.87874 4.21793C5.89861 5.00916 5.0054 5.90237 4.21417 6.8825C3.88157 8.31872 3.92693 10.114 3.1937 11.8715C2.47181 13.6327 1.16031 14.8649 0.385509 16.1272C0.253658 17.3722 0.253658 18.6277 0.385509 19.8727C1.16031 21.1313 2.46425 22.3672 3.19748 24.1285C3.92693 25.8822 3.87779 27.6812 4.21795 29.1137C5.00787 30.0964 5.89984 30.9921 6.88252 31.782C8.31874 32.1184 10.1102 32.0693 11.8677 32.7987C13.629 33.5282 14.8687 34.8397 16.1235 35.6145C17.3686 35.7442 18.6238 35.7442 19.869 35.6145C21.1276 34.8321 22.3635 33.532 24.1247 32.7987C25.886 32.0693 27.6775 32.1184 29.1137 31.782C30.0938 30.9908 30.9871 30.0976 31.7783 29.1175C32.1146 27.6812 32.0655 25.8822 32.795 24.1285C33.5244 22.3672 34.8359 21.1313 35.6107 19.8727C35.7395 18.6288 35.7395 17.3749 35.6107 16.131" fill="black"/>
<path d="M35.6145 16.1272C34.8321 14.8649 33.5282 13.6327 32.7987 11.8677C32.0693 10.114 32.1184 8.31494 31.782 6.88628C30.991 5.90487 30.0978 5.01039 29.1175 4.21793C27.6813 3.88156 25.8898 3.92691 24.1323 3.20124C22.371 2.46801 21.1313 1.16408 19.8728 0.385492C18.629 0.253908 17.3748 0.253908 16.131 0.385492C14.8687 1.17163 13.629 2.46801 11.8677 3.20124C10.1102 3.92691 8.31496 3.88156 6.87874 4.21793C5.89861 5.00916 5.0054 5.90237 4.21417 6.8825C3.88157 8.31872 3.92693 10.114 3.1937 11.8715C2.47181 13.6327 1.16031 14.8649 0.385509 16.1272C0.253658 17.3722 0.253658 18.6277 0.385509 19.8727C1.16031 21.1313 2.46425 22.3672 3.19748 24.1285C3.92693 25.8822 3.87779 27.6812 4.21795 29.1137C5.00787 30.0964 5.89984 30.9921 6.88252 31.782C8.31874 32.1184 10.1102 32.0693 11.8677 32.7987C13.629 33.5282 14.8687 34.8397 16.1235 35.6145C17.3686 35.7442 18.6238 35.7442 19.869 35.6145C21.1276 34.8321 22.3635 33.532 24.1247 32.7987C25.886 32.0693 27.6775 32.1184 29.1137 31.782C30.0938 30.9908 30.9871 30.0976 31.7783 29.1175C32.1146 27.6812 32.0655 25.8822 32.795 24.1285C33.5244 22.3672 34.8359 21.1313 35.6107 19.8727C35.7395 18.6288 35.7395 17.3749 35.6107 16.131" stroke="#787878" stroke-width="0.578268" stroke-linecap="round" stroke-linejoin="round"/>
<path d="M17.8696 32.1033C25.6597 32.1033 31.9748 25.7882 31.9748 17.9981C31.9748 10.208 25.6597 3.89288 17.8696 3.89288C10.0795 3.89288 3.7644 10.208 3.7644 17.9981C3.7644 25.7882 10.0795 32.1033 17.8696 32.1033Z" fill="#464646" stroke="#595959" stroke-width="0.389291"/>
<path d="M18.0737 0.257019H17.8809C17.332 0.257019 16.8869 0.702055 16.8869 1.25103V14.041C16.8869 14.5899 17.332 15.035 17.8809 15.035H18.0737C18.6227 15.035 19.0677 14.5899 19.0677 14.041V1.25103C19.0677 0.702055 18.6227 0.257019 18.0737 0.257019Z" fill="#E7E7E7" stroke="#2B2B2B" stroke-width="0.502677" stroke-linejoin="round"/>
</g>
<defs>
<clipPath id="clip0">
<rect width="36" height="36" fill="white"/>
</clipPath>
</defs>
</svg>
